{
.appVersion = "3151";
.formatVersion = 3;
customParameters = (
{
name = vendorID;
value = "1BOU";
},
{
name = panose;
value = (
0,
0,
9,
0,
0,
0,
0,
0,
0,
0
);
},
{
name = unicodeRanges;
value = (
0,
1,
2,
3,
5,
13,
31,
33,
35,
38,
45,
60,
63,
67
);
},
{
name = codePageRanges;
value = (
"1252",
"1256"
);
},
{
name = fsType;
value = (
);
},
{
name = glyphOrder;
value = (
.notdef,
uni000D,
space,
exclam,
quotedbl,
numbersign,
dollar,
percent,
ampersand,
quotesingle,
parenleft,
parenright,
asterisk,
plus,
comma,
hyphen,
period,
slash,
zero,
one,
two,
three,
four,
five,
six,
seven,
eight,
nine,
colon,
semicolon,
less,
equal,
greater,
question,
at,
A,
B,
C,
D,
E,
F,
G,
H,
I,
J,
K,
L,
M,
N,
O,
P,
Q,
R,
S,
T,
U,
V,
W,
X,
Y,
Z,
bracketleft,
backslash,
bracketright,
asciicircum,
underscore,
grave,
a,
b,
c,
d,
e,
f,
g,
h,
i,
j,
k,
l,
m,
n,
o,
p,
q,
r,
s,
t,
u,
v,
w,
x,
y,
z,
braceleft,
bar,
braceright,
asciitilde,
exclamdown,
cent,
sterling,
yen,
brokenbar,
section,
dieresis,
copyright,
ordfeminine,
guillemotleft,
uni00AD,
registered,
macron,
degree,
plusminus,
twosuperior,
threesuperior,
acute,
paragraph,
periodcentered,
cedilla,
onesuperior,
ordmasculine,
guillemotright,
onequarter,
onehalf,
threequarters,
questiondown,
Agrave,
Aacute,
Acircumflex,
Atilde,
Adieresis,
Aring,
AE,
Ccedilla,
Egrave,
Eacute,
Ecircumflex,
Edieresis,
Igrave,
Iacute,
Icircumflex,
Idieresis,
Eth,
Ntilde,
Ograve,
Oacute,
Ocircumflex,
Otilde,
Odieresis,
multiply,
Oslash,
Ugrave,
Uacute,
Ucircumflex,
Udieresis,
Yacute,
Thorn,
germandbls,
agrave,
aacute,
acircumflex,
atilde,
adieresis,
aring,
ae,
ccedilla,
egrave,
eacute,
ecircumflex,
edieresis,
igrave,
iacute,
icircumflex,
idieresis,
eth,
ntilde,
ograve,
oacute,
ocircumflex,
otilde,
odieresis,
divide,
oslash,
ugrave,
uacute,
ucircumflex,
udieresis,
yacute,
thorn,
ydieresis,
dotlessi,
Lslash,
lslash,
OE,
oe,
Scaron,
scaron,
Ydieresis,
Zcaron,
zcaron,
florin,
circumflex,
caron,
breve,
dotaccent,
ring,
ogonek,
tilde,
hungarumlaut,
uni03BC,
uni060C,

glyphs = (
{
glyphname = .notdef;
layers = (
{
layerId = m01;
shapes = (
{
closed = 1;
nodes = (
(227,-85,o),
(251,-85,qs),
(275,-85,o),
(305,-54,o),
(305,-29,qs),
(305,-5,o),
(275,27,o),
(251,27,qs),
(227,27,o),
(195,-5,o),
(195,-29,qs),
(195,-53,o)
);
},
{
closed = 1;
nodes = (
(221,54,qs),
(277,54,ls),
(288,54,o),
(288,64,qs),
(288,75,ls),
(288,91,o),
(302,101,qs),
(367,148,o),
(414,217,o),
(414,263,qs),
(414,315,o),
(376,345,qs),
(334,379,o),
(261,379,qs),
(211,379,o),
(163,360,qs),
(113,340,o),
(129,290,qs),
(135,269,ls),
(137,262,o),
(143,262,qs),
(147,262,o),
(153,265,qs),
(211,294,o),
(258,294,qs),
(317,294,o),
(317,247,qs),
(317,216,o),
(269,177,qs),
(235,148,o),
(211,112,o),
(211,88,qs),
(211,64,ls),
(211,54,o)
);
},
{
closed = 1;
nodes = (
(509,-268,l),
(509,559,l),
(21,559,l),
(21,-268,l)
);
},
{
closed = 1;
nodes = (
(434,-193,l),
(96,-193,l),
(96,484,l),
(434,484,l)
);
}
);
userData = {
assembly = "NPUSHB[ ]	/* 74 values pushed */
0 3 2 5 2 3 5 128 0 5 0 2 5 0 126 0 6 10 1 9 4 6 9 103 0 4 0 2 3 4 2 105 0 0 0 1 8 0 1 105 0 8 7 7 8 87 0 8 8 7 95 0 7 8 7 79 50 50 50 53 50 53 18 17 17 58 37 34 41 36 34 11 6 31 
CALL[ ]	/* CallFunction */";
};
width = 531;
}
);
note = ".notdef";
},
{
glyphname = exclam;
layers = (
{
layerId = m01;
shapes = (
{
closed = 1;
nodes = (
(69,146,o),
(101,146,qs),
(135,146,o),
(178,102,o),
(178,68,qs),
(178,34,o),
(135,-9,o),
(101,-9,qs),
(68,-9,o),
(24,35,o),
(24,68,qs),
(24,101,o)
);
},
{
closed = 1;
nodes = (
(32,556,o),
(45,556,qs),
(73,556,ls),
(170,556,o),
(167,456,qs),
(158,180,ls),
(158,167,o),
(145,167,qs),
(58,167,ls),
(45,167,o),
(45,180,qs),
(32,542,ls)
);
}
);
userData = {
assembly = "NPUSHB[ ]	/* 28 values pushed */
0 2 2 3 97 0 3 3 39 77 0 1 1 0 97 0 0 0 46 0 78 51 51 36 34 4 9 26 
CALL[ ]	/* CallFunction */";
};
width = 206;
}
);
note = exclam;
unicode = 33;
},
{
glyphname = quotedbl;
layers = (
{
layerId = m01;
shapes = (
{
closed = 1;
nodes = (
(23,556,o),
(38,556,qs),
(78,556,ls),
(127,556,o),
(158,517,o),
(153,462,qs),
(142,356,ls),
(141,343,o),
(129,343,qs),
(57,343,ls),
(46,343,o),
(44,356,qs),
(25,542,ls)
);
},
{
closed = 1;
nodes = (
(180,556,o),
(194,556,qs),
(234,556,ls),
(284,556,o),
(315,517,o),
(309,462,qs),
(298,356,ls),
(296,343,o),
(285,343,qs),
(213,343,ls),
(202,343,o),
(200,356,qs),
(181,542,ls)
);
}
);
userData = {
assembly = "NPUSHB[ ]	/* 20 values pushed */
2 1 0 0 1 97 3 1 1 1 39 0 78 52 51 52 49 4 9 26 
CALL[ ]	/* CallFunction */";
};
width = 334;
}
);
note = quotedbl;
unicode = 34;
},
{
glyphname = numbersign;
layers = (
{
layerId = m01;
shapes = (
{
closed = 1;
nodes = (
(359,329,l),
(264,329,l),
(238,226,l),
(333,226,l)
);
},
{
closed = 1;
nodes = (
(19,134,o),
(22,147,qs),
(39,213,ls),
(43,226,o),
(55,226,qs),
(113,226,l),
(139,329,l),
(80,329,ls),
(67,329,o),
(70,343,qs),
(87,408,ls),
(91,422,o),
(102,422,qs),
(161,422,l),
(191,542,ls),
(194,556,o),
(208,556,qs),
(255,556,ls),
(319,556,o),
(302,487,qs),
(285,422,l),
(381,422,l),
(411,542,ls),
(414,556,o),
(428,556,qs),
(474,556,ls),
(540,556,o),
(522,487,qs),
(504,422,l),
(564,422,ls),
(578,422,o),
(574,408,qs),
(558,343,ls),
(554,329,o),
(542,329,qs),
(483,329,l),
(458,226,l),
(517,226,ls),
(530,226,o),
(527,213,qs),
(509,147,ls),
(506,134,o),
(494,134,qs),
(436,134,l),
(408,13,ls),
(404,0,o),
(394,0,qs),
(292,0,ls),
(279,0,o),
(283,13,qs),
(311,134,l),
(216,134,l),
(187,13,ls),
(184,0,o),
(173,0,qs),
(72,0,ls),
(59,0,o),
(63,13,qs),
(92,134,l),
(32,134,ls)
);
}
);
userData = {
assembly = "NPUSHB[ ]	/* 81 values pushed */
12 10 2 8 13 7 2 0 1 8 0 104 14 6 16 3 1 17 15 5 3 3 2 1 3 103 11 1 9 9 39 77 4 1 2 2 40 2 78 4 4 0 0 4 63 4 62 59 57 56 54 51 49 47 44 42 41 39 36 34 32 29 27 26 24 21 19 17 14 12 11 9 6 0 3 0 3 17 18 9 23 
CALL[ ]	/* CallFunction */";
};
width = 592;
}
);
note = numbersign;
unicode = 35;
},
{
glyphname = dollar;
layers = (
{
layerId = m01;
shapes = (
{
closed = 1;
nodes = (
(115,259,o),
(39,338,o),
(39,402,qs),
(39,467,o),
(82,511,qs),
(128,556,o),
(208,566,q),
(208,611,ls),
(208,623,o),
(220,623,qs),
(274,623,ls),
(286,623,o),
(286,611,qs),
(286,566,l),
(338,562,o),
(385,547,qs),
(419,535,o),
(439,495,o),
(429,461,qs),
(419,427,ls),
(415,413,o),
(408,413,qs),
(401,413,o),
(390,418,qs),
(337,443,o),
(286,448,q),
(286,339,l),
(376,311,o),
(452,234,o),
(452,171,qs),
(452,109,o),
(413,63,qs),
(368,10,o),
(286,-6,q),
(286,-52,ls),
(286,-65,o),
(274,-65,qs),
(220,-65,ls),
(208,-65,o),
(208,-52,qs),
(208,-10,l),
(125,-5,o),
(74,41,qs),
(22,87,o),
(22,152,qs),
(22,178,o),
(40,178,qs),
(46,178,o),
(50,174,qs),
(116,114,o),
(208,109,q),
(208,228,l)
);
},
{
closed = 1;
nodes = (
(324,129,o),
(324,161,qs),
(324,187,o),
(286,203,q),
(286,117,l)
);
},
{
closed = 1;
nodes = (
(166,440,o),
(166,408,qs),
(166,382,o),
(208,363,q),
(208,449,l)
);
}
);
userData = {
assembly = "NPUSHB[ ]	/* 66 values pushed */
61 44 37 25 4 4 5 57 52 51 24 4 1 4 56 1 0 1 17 1 2 0 4 76 0 4 5 1 5 4 1 128 0 1 0 5 1 0 126 0 5 0 3 5 3 101 0 0 0 2 97 0 2 2 46 2 78 57 45 50 20 34 16 6 9 28 
CALL[ ]	/* CallFunction */";
};
width = 477;
}
);
note = dollar;
unicode = 36;
},
{
glyphname = percent;
layers = (
{
layerId = m01;
shapes = (
{
closed = 1;
nodes = (
(214,13,q),
(505,542,l),
(511,556,o),
(525,556,qs),
(571,556,ls),
(604,556,o),
(626,513,o),
(610,483,qs),
(350,13,ls),
(342,0,o),
(331,0,qs),
(221,0,ls),
(208,0,o)
);
},
{
closed = 1;
nodes = (
(569,35,qs),
(520,84,o),
(520,169,qs),
(520,242,o),
(558,290,qs),
(601,344,o),
(677,344,qs),
(745,344,o),
(788,302,qs),
(839,253,o),
(839,169,qs),
(839,95,o),
(800,48,qs),
(755,-8,o),
(677,-8,qs),
(611,-8,o)
);
},
{
closed = 1;
nodes = (
(734,167,qs),
(734,248,o),
(677,248,qs),
(626,248,o),
(626,167,qs),
(626,90,o),
(677,90,qs),
(734,90,o)
);
},
{
closed = 1;
nodes = (
(72,256,qs),
(23,305,o),
(23,391,qs),
(23,463,o),
(61,511,qs),
(105,566,o),
(181,566,qs),
(248,566,o),
(292,523,qs),
(342,474,o),
(342,391,qs),
(342,317,o),
(303,269,qs),
(258,214,o),
(181,214,qs),
(115,214,o)
);
},
{
closed = 1;
nodes = (
(237,388,qs),
(237,468,o),
(181,468,qs),
(128,468,o),
(128,388,qs),
(128,311,o),
(181,311,qs),
(237,311,o)
);
}
);
userData = {
assembly = "MPPEM[ ]	/* MeasurePixelPerEm */
PUSHB[ ]	/* 1 value pushed */
19 
LT[ ]	/* LessThan */
IF[ ]	/* If */
NPUSHB[ ]	/* 44 values pushed */
0 3 0 5 6 3 5 105 14 1 8 13 1 6 4 8 6 105 0 9 9 1 97 7 1 1 1 39 77 12 1 4 4 0 97 11 2 10 3 0 0 40 0 78 
ELSE[ ]	/* Else */
MPPEM[ ]	/* MeasurePixelPerEm */
PUSHB[ ]	/* 1 value pushed */
23 
LT[ ]	/* LessThan */
IF[ ]	/* If */
NPUSHB[ ]	/* 48 values pushed */
0 3 0 5 6 3 5 105 14 1 8 13 1 6 4 8 6 105 0 1 1 39 77 0 9 9 7 97 0 7 7 39 77 12 1 4 4 0 97 11 2 10 3 0 0 40 0 78 
ELSE[ ]	/* Else */
MPPEM[ ]	/* MeasurePixelPerEm */
PUSHB[ ]	/* 1 value pushed */
40 
LT[ ]	/* LessThan */
IF[ ]	/* If */
NPUSHB[ ]	/* 52 values pushed */
0 3 0 5 6 3 5 105 14 1 8 13 1 6 4 8 6 105 0 1 1 39 77 0 9 9 7 97 0 7 7 39 77 10 1 0 0 40 77 12 1 4 4 2 97 11 1 2 2 46 2 78 
ELSE[ ]	/* Else */
NPUSHB[ ]	/* 50 values pushed */
0 7 0 9 3 7 9 105 0 3 0 5 6 3 5 105 14 1 8 13 1 6 4 8 6 105 0 1 1 39 77 10 1 0 0 40 77 12 1 4 4 2 97 11 1 2 2 46 2 78 
EIF[ ]	/* EndIf */
EIF[ ]	/* EndIf */
EIF[ ]	/* EndIf */
NPUSHB[ ]	/* 43 values pushed */
54 53 38 37 30 29 14 13 2 0 58 56 53 60 54 60 46 44 37 52 38 52 34 32 29 36 30 36 22 20 13 28 14 28 9 6 0 12 2 12 15 9 22 
CALL[ ]	/* CallFunction */";
};
width = 861;
}
);
note = percent;
unicode = 37;
},
{
glyphname = ampersand;
layers = (
{
layerId = m01;
shapes = (
{
closed = 1;
nodes = (
(403,279,ls),
(413,292,o),
(428,292,qs),
(533,292,ls),
(538,292,o),
(542,283,o),
(539,279,qs),
(443,152,l),
(546,13,l),
(550,9,o),
(545,0,o),
(540,0,qs),
(456,0,ls),
(392,0,o),
(358,42,qs),
(354,47,l),
(302,-10,o),
(213,-10,qs),
(133,-10,o),
(83,32,qs),
(27,78,o),
(27,155,qs),
(27,249,o),
(136,304,q),
(86,358,o),
(86,422,qs),
(86,482,o),
(129,521,qs),
(179,566,o),
(265,566,qs),
(345,566,o),
(391,534,qs),
(443,498,o),
(443,427,qs),
(443,346,o),
(324,277,q),
(365,231,l)
);
},
{
closed = 1;
nodes = (
(164,190,o),
(164,156,qs),
(164,132,o),
(198,99,o),
(224,99,qs),
(256,99,o),
(285,129,q),
(210,220,l)
);
},
{
closed = 1;
nodes = (
(319,422,qs),
(319,440,o),
(291,463,o),
(269,463,qs),
(249,463,o),
(224,440,o),
(224,421,qs),
(224,392,o),
(260,357,q),
(319,386,o)
);
}
);
userData = {
assembly = "MPPEM[ ]	/* MeasurePixelPerEm */
PUSHB[ ]	/* 1 value pushed */
19 
LT[ ]	/* LessThan */
IF[ ]	/* If */
NPUSHB[ ]	/* 16 values pushed */
12 1 3 5 44 36 28 3 4 3 20 1 1 4 3 76 
ELSE[ ]	/* Else */
NPUSHB[ ]	/* 16 values pushed */
12 1 3 5 44 36 28 3 4 3 20 1 2 4 3 76 
EIF[ ]	/* EndIf */
MPPEM[ ]	/* MeasurePixelPerEm */
PUSHB[ ]	/* 1 value pushed */
19 
LT[ ]	/* LessThan */
IF[ ]	/* If */
NPUSHB[ ]	/* 33 values pushed */
0 5 5 0 97 0 0 0 39 77 0 3 3 1 97 2 1 1 1 46 77 0 4 4 1 97 2 1 1 1 46 1 78 
ELSE[ ]	/* Else */
MPPEM[ ]	/* MeasurePixelPerEm */
PUSHB[ ]	/* 1 value pushed */
40 
LT[ ]	/* LessThan */
IF[ ]	/* If */
NPUSHB[ ]	/* 31 values pushed */
0 5 5 0 97 0 0 0 39 77 0 3 3 2 95 0 2 2 40 77 0 4 4 1 97 0 1 1 46 1 78 
ELSE[ ]	/* Else */
NPUSHB[ ]	/* 29 values pushed */
0 0 0 5 3 0 5 105 0 3 3 2 95 0 2 2 40 77 0 4 4 1 97 0 1 1 46 1 78 
EIF[ ]	/* EndIf */
EIF[ ]	/* EndIf */
NPUSHB[ ]	/* 9 values pushed */
41 36 55 35 42 37 6 9 28 
CALL[ ]	/* CallFunction */";
};
width = 561;
}
);
note = ampersand;
unicode = 38;
},
{
glyphname = quotesingle;
layers = (
{
layerId = m01;
shapes = (
{
closed = 1;
nodes = (
(23,556,o),
(38,556,qs),
(78,556,ls),
(127,556,o),
(158,517,o),
(153,462,qs),
(142,356,ls),
(141,343,o),
(129,343,qs),
(57,343,ls),
(46,343,o),
(44,356,qs),
(25,542,ls)
);
}
);
userData = {
assembly = "NPUSHB[ ]	/* 16 values pushed */
0 0 0 1 97 0 1 1 39 0 78 52 49 2 9 24 
CALL[ ]	/* CallFunction */";
};
width = 179;
}
);
note = quotesingle;
unicode = 39;
},
{
glyphname = parenleft;
layers = (
{
layerId = m01;
shapes = (
{
closed = 1;
nodes = (
(83,508,qs),
(120,594,o),
(182,646,qs),
(237,692,o),
(291,697,qs),
(292,697,o),
(293,697,qs),
(301,699,o),
(301,690,qs),
(301,687,o),
(302,679,qs),
(302,670,o),
(302,667,qs),
(302,632,o),
(289,594,o),
(271,579,qs),
(262,570,o),
(260,568,qs),
(203,510,o),
(155,376,o),
(155,276,qs),
(155,177,o),
(203,42,o),
(260,-16,q),
(262,-19,o),
(267,-23,qs),
(288,-42,o),
(302,-78,o),
(302,-114,qs),
(302,-118,o),
(302,-125,qs),
(301,-135,o),
(301,-138,qs),
(301,-146,o),
(294,-145,qs),
(291,-145,ls),
(210,-137,o),
(139,-50,qs),
(39,73,o),
(39,276,qs),
(39,407,o)
);
}
);
userData = {
assembly = "PUSHB[ ]	/* 4 values pushed */
32 6 1 50 
CALL[ ]	/* CallFunction */";
};
width = 341;
}
);
note = parenleft;
unicode = 40;
},
{
glyphname = parenright;
layers = (
{
layerId = m01;
shapes = (
{
closed = 1;
nodes = (
(276,44,qs),
(239,-42,o),
(176,-94,qs),
(121,-140,o),
(68,-145,qs),
(67,-145,o),
(65,-145,qs),
(58,-146,o),
(57,-138,qs),
(57,-135,o),
(57,-127,qs),
(56,-118,o),
(56,-114,qs),
(56,-54,o),
(87,-26,qs),
(96,-18,o),
(99,-16,q),
(155,42,o),
(203,177,o),
(203,276,qs),
(203,376,o),
(155,510,o),
(99,568,qs),
(96,571,o),
(91,575,qs),
(70,594,o),
(56,630,o),
(56,667,qs),
(56,670,o),
(57,678,qs),
(57,687,o),
(57,690,qs),
(58,698,o),
(64,698,q),
(67,697,o),
(68,697,qs),
(149,689,o),
(220,602,qs),
(319,479,o),
(319,276,qs),
(319,145,o)
);
}
);
userData = {
assembly = "PUSHB[ ]	/* 4 values pushed */
32 6 1 50 
CALL[ ]	/* CallFunction */";
};
width = 358;
}
);
note = parenright;
unicode = 41;
},
{
glyphname = asterisk;
layers = (
{
layerId = m01;
shapes = (
{
closed = 1;
nodes = (
(26,375,o),
(30,388,qs),
(55,467,ls),
(59,480,o),
(71,476,qs),
(150,444,l),
(144,529,ls),
(143,542,o),
(158,542,qs),
(241,542,ls),
(256,542,o),
(254,529,q),
(248,444,l),
(327,476,ls),
(339,480,o),
(343,467,qs),
(369,388,ls),
(373,375,o),
(361,372,qs),
(277,351,l),
(330,284,ls),
(338,275,o),
(327,268,qs),
(260,218,ls),
(249,210,o),
(243,221,qs),
(199,289,l),
(156,221,ls),
(150,210,o),
(139,218,qs),
(71,268,ls),
(61,275,o),
(69,284,qs),
(121,351,l),
(38,372,ls)
);
}
);
userData = {
assembly = "NPUSHB[ ]	/* 9 values pushed */
28 27 22 21 14 7 6 0 73 
MPPEM[ ]	/* MeasurePixelPerEm */
PUSHB[ ]	/* 1 value pushed */
27 
LT[ ]	/* LessThan */
IF[ ]	/* If */
PUSHB[ ]	/* 6 values pushed */
0 0 0 39 0 78 
ELSE[ ]	/* Else */
PUSHB[ ]	/* 4 values pushed */
0 0 0 118 
EIF[ ]	/* EndIf */
PUSHB[ ]	/* 5 values pushed */
26 23 1 9 22 
CALL[ ]	/* CallFunction */";
};
width = 393;
}
);
note = asterisk;
unicode = 42;
},
{
glyphname = plus;
layers = (
{
layerId = m01;
shapes = (
{
closed = 1;
nodes = (
(25,217,o),
(25,230,qs),
(25,316,ls),
(25,329,o),
(38,329,qs),
(156,329,l),
(156,457,ls),
(156,468,o),
(169,468,qs),
(187,468,ls),
(236,468,o),
(276,431,o),
(276,386,qs),
(276,329,l),
(393,329,ls),
(407,329,o),
(407,316,qs),
(407,230,ls),
(407,217,o),
(393,217,qs),
(276,217,l),
(276,90,ls),
(276,77,o),
(263,77,qs),
(169,77,ls),
(156,77,o),
(156,90,qs),
(156,217,l),
(38,217,ls)
);
}
);
userData = {
assembly = "NPUSHB[ ]	/* 41 values pushed */
0 3 2 0 3 89 4 1 2 6 5 2 1 0 2 1 103 0 3 3 0 95 0 0 3 0 79 0 0 0 28 0 27 34 51 35 34 50 7 9 27 
CALL[ ]	/* CallFunction */";
};
width = 432;
}
);
note = plus;
unicode = 43;
},
{
glyphname = comma;
layers = (
{
layerId = m01;
shapes = (
{
closed = 1;
nodes = (
(18,41,o),
(18,68,qs),
(18,101,o),
(63,146,o),
(95,146,qs),
(130,146,o),
(172,103,o),
(172,68,qs),
(172,-29,o),
(66,-109,qs),
(58,-115,o),
(52,-109,qs),
(35,-94,o),
(28,-62,o),
(38,-52,qs),
(64,-28,o),
(74,-6,q),
(48,1,o)
);
}
);
userData = {
assembly = "PUSHB[ ]	/* 8 values pushed */
0 0 0 118 43 1 9 23 
CALL[ ]	/* CallFunction */";
};
width = 190;
}
);
note = comma;
unicode = 44;
},
{
glyphname = hyphen;
layers = (
{
layerId = m01;
shapes = (
{
closed = 1;
nodes = (
(28,158,qs),
(28,257,ls),
(28,269,o),
(41,269,qs),
(265,269,ls),
(277,269,o),
(277,257,qs),
(277,158,ls),
(277,145,o),
(265,145,qs),
(41,145,ls),
(28,145,o)
);
}
);
userData = {
assembly = "NPUSHB[ ]	/* 28 values pushed */
0 1 0 0 1 87 0 1 1 0 95 2 1 0 1 0 79 2 0 8 5 0 11 2 11 3 9 22 
CALL[ ]	/* CallFunction */";
};
width = 304;
}
);
note = hyphen;
unicode = 45;
},
{
glyphname = period;
layers = (
{
layerId = m01;
shapes = (
{
closed = 1;
nodes = (
(180,100,o),
(180,68,qs),
(180,35,o),
(136,-10,o),
(104,-10,qs),
(73,-10,o),
(28,36,o),
(28,68,qs),
(28,100,o),
(73,146,o),
(104,146,qs),
(136,146,o)
);
}
);
userData = {
assembly = "NPUSHB[ ]	/* 23 values pushed */
2 1 0 0 1 97 0 1 1 46 1 78 1 0 7 5 0 11 1 11 3 9 22 
CALL[ ]	/* CallFunction */";
};
width = 208;
}
);
note = period;
unicode = 46;
},
{
glyphname = slash;
layers = (
{
layerId = m01;
shapes = (
{
closed = 1;
nodes = (
(8,13,qs),
(232,542,ls),
(237,556,o),
(253,556,qs),
(286,556,ls),
(319,556,o),
(344,508,o),
(329,473,qs),
(135,13,ls),
(129,0,o),
(115,0,qs),
(16,0,ls),
(2,0,o)
);
}
);
userData = {
assembly = "NPUSHB[ ]	/* 23 values pushed */
0 1 1 39 77 2 1 0 0 40 0 78 2 0 9 6 0 12 2 12 3 9 22 
CALL[ ]	/* CallFunction */";
};
width = 334;
}
);
note = slash;
unicode = 47;
},
{
glyphname = zero;
layers = (
{
layerId = m01;
shapes = (
{
closed = 1;
nodes = (
(373,279,qs),
(373,357,o),
(347,400,qs),
(320,442,o),
(271,442,qs),
(229,442,o),
(203,410,qs),
(169,368,o),
(169,279,qs),
(169,115,o),
(271,115,qs),
(373,115,o)
);
},
{
closed = 1;
nodes = (
(107,55,qs),
(32,132,o),
(32,279,qs),
(32,407,o),
(91,482,qs),
(155,566,o),
(271,566,qs),
(372,566,o),
(435,502,qs),
(510,425,o),
(510,279,qs),
(510,151,o),
(452,75,qs),
(388,-10,o),
(271,-10,qs),
(170,-10,o)
);
}
);
userData = {
assembly = "MPPEM[ ]	/* MeasurePixelPerEm */
PUSHB[ ]	/* 1 value pushed */
40 
LT[ ]	/* LessThan */
IF[ ]	/* If */
NPUSHB[ ]	/* 23 values pushed */
0 1 1 3 97 0 3 3 39 77 4 1 0 0 2 97 5 1 2 2 46 2 78 
ELSE[ ]	/* Else */
NPUSHB[ ]	/* 21 values pushed */
0 3 0 1 0 3 1 105 4 1 0 0 2 97 5 1 2 2 46 2 78 
EIF[ ]	/* EndIf */
NPUSHB[ ]	/* 19 values pushed */
13 12 1 0 21 19 12 27 13 27 7 5 0 11 1 11 6 9 22 
CALL[ ]	/* CallFunction */";
};
width = 542;
}
);
note = zero;
unicode = 48;
},
{
glyphname = one;
layers = (
{
layerId = m01;
shapes = (
{
closed = 1;
nodes = (
(38,393,ls),
(23,388,o),
(23,403,qs),
(23,506,ls),
(23,520,o),
(38,526,qs),
(93,546,ls),
(120,556,o),
(146,556,qs),
(185,556,ls),
(255,556,o),
(255,488,qs),
(255,123,l),
(298,123,ls),
(368,123,o),
(368,57,qs),
(368,17,ls),
(368,0,o),
(351,0,qs),
(35,0,ls),
(22,0,o),
(22,13,qs),
(22,110,ls),
(22,123,o),
(35,123,qs),
(121,123,l),
(121,424,l)
);
}
);
userData = {
assembly = "NPUSHB[ ]	/* 30 values pushed */
26 1 0 3 1 76 0 3 3 39 77 2 1 0 0 1 96 0 1 1 40 1 78 50 35 51 32 4 9 26 
CALL[ ]	/* CallFunction */";
};
width = 378;
}
);
note = one;
unicode = 49;
},
{
glyphname = two;
layers = (
{
layerId = m01;
shapes = (
{
closed = 1;
nodes = (
(432,123,o),
(432,59,qs),
(432,17,ls),
(432,0,o),
(416,0,qs),
(36,0,ls),
(23,0,o),
(23,13,qs),
(23,114,o),
(69,182,qs),
(104,233,o),
(194,289,qs),
(250,324,o),
(287,366,o),
(287,396,qs),
(287,448,o),
(215,448,qs),
(162,448,o),
(85,413,q),
(84,412,l),
(76,408,o),
(70,408,qs),
(61,408,o),
(58,419,qs),
(45,457,ls),
(25,517,o),
(89,542,qs),
(149,566,o),
(224,566,qs),
(306,566,o),
(359,530,qs),
(425,486,o),
(425,401,qs),
(425,340,o),
(389,291,qs),
(359,251,o),
(288,204,qs),
(227,164,o),
(198,140,o),
(189,123,q),
(362,123,ls)
);
}
);
userData = {
assembly = "MPPEM[ ]	/* MeasurePixelPerEm */
PUSHB[ ]	/* 1 value pushed */
40 
LT[ ]	/* LessThan */
IF[ ]	/* If */
NPUSHB[ ]	/* 30 values pushed */
0 1 2 4 2 1 4 128 0 2 2 0 97 0 0 0 39 77 5 1 4 4 3 95 0 3 3 40 3 78 
ELSE[ ]	/* Else */
NPUSHB[ ]	/* 28 values pushed */
0 1 2 4 2 1 4 128 0 0 0 2 1 0 2 105 5 1 4 4 3 95 0 3 3 40 3 78 
EIF[ ]	/* EndIf */
NPUSHB[ ]	/* 13 values pushed */
0 0 0 40 0 39 57 36 21 42 6 9 26 
CALL[ ]	/* CallFunction */";
};
width = 462;
}
);
note = two;
unicode = 50;
},
{
glyphname = three;
layers = (
{
layerId = m01;
shapes = (
{
closed = 1;
nodes = (
(427,167,qs),
(427,95,o),
(378,47,qs),
(319,-10,o),
(218,-10,qs),
(127,-10,o),
(70,38,qs),
(14,85,o),
(14,148,qs),
(14,177,o),
(35,177,qs),
(43,177,o),
(52,168,q),
(123,108,o),
(204,108,qs),
(245,108,o),
(291,143,o),
(291,176,qs),
(291,224,o),
(221,224,qs),
(158,224,ls),
(122,224,o),
(93,250,o),
(93,281,qs),
(93,327,ls),
(93,346,o),
(108,346,qs),
(204,346,ls),
(273,346,o),
(273,401,qs),
(273,449,o),
(201,449,qs),
(140,449,o),
(72,413,qs),
(63,408,o),
(57,408,qs),
(51,408,o),
(47,418,qs),
(33,458,ls),
(13,519,o),
(77,543,qs),
(134,566,o),
(215,566,qs),
(295,566,o),
(344,535,qs),
(408,496,o),
(408,414,qs),
(408,331,o),
(333,293,q),
(427,269,o)
);
}
);
userData = {
assembly = "MPPEM[ ]	/* MeasurePixelPerEm */
PUSHB[ ]	/* 1 value pushed */
40 
LT[ ]	/* LessThan */
IF[ ]	/* If */
NPUSHB[ ]	/* 45 values pushed */
0 1 2 3 2 1 3 128 0 6 4 5 4 6 5 128 0 3 0 4 6 3 4 103 0 2 2 0 97 0 0 0 39 77 0 5 5 7 97 0 7 7 46 7 78 
ELSE[ ]	/* Else */
NPUSHB[ ]	/* 43 values pushed */
0 1 2 3 2 1 3 128 0 6 4 5 4 6 5 128 0 0 0 2 1 0 2 105 0 3 0 4 6 3 4 103 0 5 5 7 97 0 7 7 46 7 78 
EIF[ ]	/* EndIf */
NPUSHB[ ]	/* 11 values pushed */
36 34 35 52 50 34 37 37 8 9 30 
CALL[ ]	/* CallFunction */";
};
width = 452;
}
);
note = three;
unicode = 51;
},
{
glyphname = four;
layers = (
{
layerId = m01;
shapes = (
{
closed = 1;
nodes = (
(6,106,o),
(6,119,qs),
(6,193,ls),
(6,208,o),
(16,224,qs),
(208,531,ls),
(224,556,o),
(253,556,qs),
(324,556,ls),
(394,556,o),
(394,488,qs),
(394,230,l),
(418,230,ls),
(487,230,o),
(487,163,qs),
(487,123,ls),
(487,106,o),
(470,106,qs),
(394,106,l),
(394,13,ls),
(394,0,o),
(383,0,qs),
(275,0,ls),
(264,0,o),
(264,13,qs),
(264,106,l),
(19,106,ls)
);
},
{
closed = 1;
nodes = (
(264,404,l),
(155,230,l),
(264,230,l)
);
}
);
userData = {
assembly = "NPUSHB[ ]	/* 48 values pushed */
28 1 2 3 1 76 7 5 2 2 6 4 2 1 0 2 1 104 0 3 3 39 77 0 0 0 40 0 78 27 27 0 0 27 29 27 29 0 26 0 25 50 35 34 50 8 9 26 
CALL[ ]	/* CallFunction */";
};
width = 498;
}
);
note = four;
unicode = 52;
},
{
glyphname = five;
layers = (
{
layerId = m01;
shapes = (
{
closed = 1;
nodes = (
(197,377,o),
(236,377,qs),
(323,377,o),
(375,334,qs),
(434,286,o),
(434,193,qs),
(434,106,o),
(379,51,qs),
(318,-10,o),
(218,-10,qs),
(133,-10,o),
(76,33,qs),
(17,78,o),
(17,143,qs),
(17,173,o),
(38,173,qs),
(46,173,o),
(56,164,qs),
(120,108,o),
(203,108,qs),
(299,108,o),
(299,192,qs),
(299,224,o),
(248,259,o),
(201,259,qs),
(128,259,o),
(56,237,qs),
(40,232,o),
(40,248,qs),
(40,542,ls),
(40,556,o),
(53,556,qs),
(334,556,ls),
(404,556,o),
(404,488,qs),
(404,449,ls),
(404,433,o),
(388,433,qs),
(161,433,l),
(161,369,l)
);
}
);
userData = {
assembly = "PUSHB[ ]	/* 6 values pushed */
39 1 2 6 1 76 
MPPEM[ ]	/* MeasurePixelPerEm */
PUSHB[ ]	/* 1 value pushed */
44 
LT[ ]	/* LessThan */
IF[ ]	/* If */
NPUSHB[ ]	/* 39 values pushed */
0 4 2 3 2 4 3 128 0 0 0 1 95 0 1 1 39 77 0 2 2 6 97 0 6 6 42 77 0 3 3 5 97 0 5 5 46 5 78 
ELSE[ ]	/* Else */
NPUSHB[ ]	/* 37 values pushed */
0 4 2 3 2 4 3 128 0 6 0 2 4 6 2 105 0 0 0 1 95 0 1 1 39 77 0 3 3 5 97 0 5 5 46 5 78 
EIF[ ]	/* EndIf */
NPUSHB[ ]	/* 10 values pushed */
38 36 34 35 37 51 32 7 9 29 
CALL[ ]	/* CallFunction */";
};
width = 461;
}
);
note = five;
unicode = 53;
},
{
glyphname = six;
layers = (
{
layerId = m01;
shapes = (
{
closed = 1;
nodes = (
(350,394,o),
(405,341,qs),
(463,285,o),
(463,203,qs),
(463,117,o),
(413,60,qs),
(353,-9,o),
(250,-9,qs),
(159,-9,o),
(98,40,qs),
(27,97,o),
(27,191,qs),
(27,233,o),
(56,309,o),
(100,381,qs),
(208,554,ls),
(215,566,o),
(230,566,qs),
(272,566,o),
(292,534,qs),
(317,494,o),
(288,443,qs),
(259,394,l),
(268,394,ls)
);
},
{
closed = 1;
nodes = (
(210,110,o),
(249,110,qs),
(284,110,o),
(329,158,o),
(329,194,qs),
(329,230,o),
(282,279,o),
(246,279,qs),
(210,279,o),
(161,231,o),
(161,194,qs),
(161,157,o)
);
}
);
userData = {
assembly = "MPPEM[ ]	/* MeasurePixelPerEm */
PUSHB[ ]	/* 1 value pushed */
40 
LT[ ]	/* LessThan */
IF[ ]	/* If */
NPUSHB[ ]	/* 27 values pushed */
0 0 0 39 77 0 3 3 2 97 5 1 2 2 48 77 0 4 4 1 97 0 1 1 46 1 78 
ELSE[ ]	/* Else */
NPUSHB[ ]	/* 27 values pushed */
0 0 2 0 133 0 3 3 2 97 5 1 2 2 48 77 0 4 4 1 97 0 1 1 46 1 78 
EIF[ ]	/* EndIf */
NPUSHB[ ]	/* 15 values pushed */
0 0 34 32 28 26 0 23 0 22 40 36 6 9 24 
CALL[ ]	/* CallFunction */";
};
width = 486;
}
);
note = six;
unicode = 54;
},
{
glyphname = seven;
layers = (
{
layerId = m01;
shapes = (
{
closed = 1;
nodes = (
(15,433,o),
(15,446,qs),
(15,542,ls),
(15,556,o),
(28,556,qs),
(326,556,ls),
(396,556,o),
(396,488,qs),
(396,476,ls),
(396,448,o),
(383,419,qs),
(202,13,ls),
(196,0,o),
(183,0,qs),
(67,0,ls),
(53,0,o),
(59,13,qs),
(247,433,l),
(28,433,ls)
);
}
);
userData = {
assembly = "NPUSHB[ ]	/* 28 values pushed */
3 1 2 2 1 95 0 1 1 39 77 0 0 0 40 0 78 0 0 0 18 0 17 54 50 4 9 24 
CALL[ ]	/* CallFunction */";
};
width = 421;
}
);
note = seven;
unicode = 55;
},
{
glyphname = eight;
layers = (
{
layerId = m01;
shapes = (
{
closed = 1;
nodes = (
(34,413,qs),
(34,479,o),
(85,520,qs),
(142,566,o),
(244,566,qs),
(331,566,o),
(387,530,qs),
(453,488,o),
(453,413,qs),
(453,331,o),
(384,289,q),
(464,253,o),
(464,164,qs),
(464,93,o),
(415,47,qs),
(355,-9,o),
(244,-9,qs),
(146,-9,o),
(87,35,qs),
(22,82,o),
(22,164,qs),
(22,249,o),
(100,291,q),
(34,330,o)
);
},
{
closed = 1;
nodes = (
(205,100,o),
(244,100,qs),
(282,100,o),
(329,136,o),
(329,165,qs),
(329,233,o),
(244,233,qs),
(156,233,o),
(156,165,qs),
(156,136,o)
);
},
{
closed = 1;
nodes = (
(208,339,o),
(244,339,qs),
(279,339,o),
(320,371,o),
(320,398,qs),
(320,426,o),
(279,458,o),
(244,458,qs),
(208,458,o),
(165,426,o),
(165,398,qs),
(165,371,o)
);
}
);
userData = {
assembly = "PUSHB[ ]	/* 6 values pushed */
12 1 2 5 1 76 
MPPEM[ ]	/* MeasurePixelPerEm */
PUSHB[ ]	/* 1 value pushed */
40 
LT[ ]	/* LessThan */
IF[ ]	/* If */
NPUSHB[ ]	/* 29 values pushed */
0 5 0 2 3 5 2 105 0 4 4 1 97 0 1 1 39 77 0 3 3 0 97 0 0 0 46 0 78 
ELSE[ ]	/* Else */
NPUSHB[ ]	/* 27 values pushed */
0 1 0 4 5 1 4 105 0 5 0 2 3 5 2 105 0 3 3 0 97 0 0 0 46 0 78 
EIF[ ]	/* EndIf */
NPUSHB[ ]	/* 9 values pushed */
36 36 35 38 42 37 6 9 28 
CALL[ ]	/* CallFunction */";
};
width = 487;
}
);
note = eight;
unicode = 56;
},
{
glyphname = nine;
layers = (
{
layerId = m01;
shapes = (
{
closed = 1;
nodes = (
(132,163,o),
(79,215,qs),
(22,271,o),
(22,351,qs),
(22,439,o),
(74,498,qs),
(135,566,o),
(239,566,qs),
(330,566,o),
(390,518,qs),
(458,462,o),
(458,367,qs),
(458,326,o),
(427,243,o),
(388,181,qs),
(276,3,l),
(270,-10,o),
(253,-10,qs),
(212,-10,o),
(191,25,qs),
(166,67,o),
(195,114,qs),
(225,163,l),
(213,163,ls)
);
},
{
closed = 1;
nodes = (
(323,326,o),
(323,363,qs),
(323,400,o),
(274,448,o),
(236,448,qs),
(201,448,o),
(155,400,o),
(155,363,qs),
(155,324,o),
(201,277,o),
(239,277,qs),
(274,277,o)
);
}
);
userData = {
assembly = "MPPEM[ ]	/* MeasurePixelPerEm */
PUSHB[ ]	/* 1 value pushed */
40 
LT[ ]	/* LessThan */
IF[ ]	/* If */
NPUSHB[ ]	/* 26 values pushed */
6 1 3 5 1 2 0 3 2 105 0 4 4 1 97 0 1 1 39 77 0 0 0 46 0 78 
ELSE[ ]	/* Else */
NPUSHB[ ]	/* 24 values pushed */
0 1 0 4 3 1 4 105 6 1 3 5 1 2 0 3 2 105 0 0 0 46 0 78 
EIF[ ]	/* EndIf */
NPUSHB[ ]	/* 19 values pushed */
25 24 0 0 31 29 24 35 25 35 0 23 0 22 40 36 7 9 24 
CALL[ ]	/* CallFunction */";
};
width = 484;
}
);
note = nine;
unicode = 57;
},
{
glyphname = colon;
layers = (
{
layerId = m01;
shapes = (
{
closed = 1;
nodes = (
(185,329,o),
(185,297,qs),
(185,264,o),
(141,219,o),
(109,219,qs),
(78,219,o),
(33,264,o),
(33,297,qs),
(33,329,o),
(78,374,o),
(109,374,qs),
(141,374,o)
);
},
{
closed = 1;
nodes = (
(185,100,o),
(185,68,qs),
(185,35,o),
(141,-10,o),
(109,-10,qs),
(78,-10,o),
(33,36,o),
(33,68,qs),
(33,100,o),
(78,146,o),
(109,146,qs),
(141,146,o)
);
}
);
userData = {
assembly = "MPPEM[ ]	/* MeasurePixelPerEm */
PUSHB[ ]	/* 1 value pushed */
33 
LT[ ]	/* LessThan */
IF[ ]	/* If */
NPUSHB[ ]	/* 23 values pushed */
0 1 1 0 97 4 1 0 0 42 77 5 1 2 2 3 97 0 3 3 46 3 78 
ELSE[ ]	/* Else */
NPUSHB[ ]	/* 21 values pushed */
4 1 0 0 1 2 0 1 105 5 1 2 2 3 97 0 3 3 46 3 78 
EIF[ ]	/* EndIf */
NPUSHB[ ]	/* 19 values pushed */
13 12 1 0 19 17 12 23 13 23 7 5 0 11 1 11 6 9 22 
CALL[ ]	/* CallFunction */";
};
width = 219;
}
);
note = colon;
unicode = 58;
},
{
glyphname = semicolon;
layers = (
{
layerId = m01;
shapes = (
{
closed = 1;
nodes = (
(29,41,o),
(29,68,qs),
(29,101,o),
(74,146,o),
(106,146,qs),
(141,146,o),
(183,103,o),
(183,68,qs),
(183,-28,o),
(77,-109,q),
(68,-114,o),
(63,-109,qs),
(46,-93,o),
(38,-62,o),
(49,-52,qs),
(78,-23,o),
(85,-6,q),
(60,1,o)
);
},
{
closed = 1;
nodes = (
(73,373,o),
(106,373,qs),
(140,373,o),
(183,330,o),
(183,296,qs),
(183,262,o),
(140,219,o),
(106,219,qs),
(73,219,o),
(28,263,o),
(28,296,qs),
(28,328,o)
);
}
);
userData = {
assembly = "MPPEM[ ]	/* MeasurePixelPerEm */
PUSHB[ ]	/* 1 value pushed */
31 
LT[ ]	/* LessThan */
IF[ ]	/* If */
NPUSHB[ ]	/* 16 values pushed */
0 0 1 0 134 0 1 1 2 97 0 2 2 42 1 78 
ELSE[ ]	/* Else */
NPUSHB[ ]	/* 21 values pushed */
0 0 1 0 134 0 2 1 1 2 89 0 2 2 1 97 0 1 2 1 81 
EIF[ ]	/* EndIf */
PUSHB[ ]	/* 6 values pushed */
36 39 43 3 9 25 
CALL[ ]	/* CallFunction */";
};
width = 212;
}
);
note = semicolon;
unicode = 59;
},
{
glyphname = less;
layers = (
{
layerId = m01;
shapes = (
{
closed = 1;
nodes = (
(393,190,o),
(428,134,o),
(428,82,qs),
(428,65,ls),
(428,53,o),
(417,58,qs),
(43,221,ls),
(30,226,o),
(30,242,qs),
(30,303,ls),
(30,316,o),
(43,322,qs),
(413,484,ls),
(419,487,o),
(428,483,o),
(428,477,qs),
(428,386,ls),
(428,370,o),
(413,363,qs),
(199,272,l),
(348,209,ls)
);
}
);
userData = {
assembly = "PUSHB[ ]	/* 4 values pushed */
15 6 1 50 
CALL[ ]	/* CallFunction */";
};
width = 462;
}
);
note = less;
unicode = 60;
},
{
glyphname = equal;
layers = (
{
layerId = m01;
shapes = (
{
closed = 1;
nodes = (
(25,427,o),
(38,427,qs),
(337,427,ls),
(407,427,o),
(407,359,qs),
(407,327,ls),
(407,314,o),
(393,314,qs),
(38,314,ls),
(25,314,o),
(25,327,qs),
(25,413,ls)
);
},
{
closed = 1;
nodes = (
(25,231,o),
(38,231,qs),
(337,231,ls),
(407,231,o),
(407,164,qs),
(407,131,ls),
(407,118,o),
(393,118,qs),
(38,118,ls),
(25,118,o),
(25,131,qs),
(25,218,ls)
);
}
);
userData = {
assembly = "NPUSHB[ ]	/* 31 values pushed */
0 1 0 0 3 1 0 103 0 3 2 2 3 87 0 3 3 2 95 0 2 3 2 79 51 51 51 49 4 9 26 
CALL[ ]	/* CallFunction */";
};
width = 432;
}
);
note = equal;
unicode = 61;
},
{
glyphname = greater;
layers = (
{
layerId = m01;
shapes = (
{
closed = 1;
nodes = (
(35,370,o),
(35,386,qs),
(35,477,ls),
(35,483,o),
(44,487,o),
(50,484,qs),
(421,322,ls),
(433,316,o),
(433,303,qs),
(433,242,ls),
(433,226,o),
(421,221,qs),
(47,58,ls),
(35,53,o),
(35,65,qs),
(35,82,ls),
(35,134,o),
(70,190,o),
(115,209,qs),
(264,272,l),
(50,363,ls)
);
}
);
userData = {
assembly = "PUSHB[ ]	/* 4 values pushed */
15 6 1 50 
CALL[ ]	/* CallFunction */";
};
width = 462;
}
);
note = greater;
unicode = 62;
},
{
glyphname = question;
layers = (
{
layerId = m01;
shapes = (
{
closed = 1;
nodes = (
(149,146,o),
(183,146,qs),
(216,146,o),
(259,102,o),
(259,68,qs),
(259,34,o),
(217,-9,o),
(183,-9,qs),
(149,-9,o),
(104,35,o),
(104,68,qs),
(104,101,o)
);
},
{
closed = 1;
nodes = (
(124,241,o),
(154,289,o),
(194,321,qs),
(229,349,o),
(252,379,o),
(252,398,qs),
(252,446,o),
(192,446,qs),
(130,446,o),
(60,409,q),
(52,406,o),
(47,406,qs),
(40,406,o),
(37,414,qs),
(24,453,ls),
(13,485,o),
(32,524,o),
(65,539,qs),
(123,566,o),
(198,566,qs),
(277,566,o),
(327,534,qs),
(391,494,o),
(391,417,qs),
(391,359,o),
(359,314,qs),
(331,276,o),
(254,220,qs),
(238,208,o),
(238,190,qs),
(238,180,ls),
(238,167,o),
(224,167,qs),
(137,167,ls),
(124,167,o),
(124,180,qs),
(124,210,ls)
);
}
);
userData = {
assembly = "MPPEM[ ]	/* MeasurePixelPerEm */
PUSHB[ ]	/* 1 value pushed */
40 
LT[ ]	/* LessThan */
IF[ ]	/* If */
NPUSHB[ ]	/* 36 values pushed */
0 4 5 2 5 4 2 128 0 2 1 5 2 1 126 0 5 5 3 97 0 3 3 39 77 0 1 1 0 97 0 0 0 46 0 78 
ELSE[ ]	/* Else */
NPUSHB[ ]	/* 34 values pushed */
0 4 5 2 5 4 2 128 0 2 1 5 2 1 126 0 3 0 5 4 3 5 105 0 1 1 0 97 0 0 0 46 0 78 
EIF[ ]	/* EndIf */
NPUSHB[ ]	/* 9 values pushed */
35 22 43 51 36 34 6 9 28 
CALL[ ]	/* CallFunction */";
};
width = 416;
}
);
note = question;
unicode = 63;
},
{
glyphname = at;
layers = (
{
layerId = m01;
shapes = (
{
closed = 1;
nodes = (
(366,33,qs),
(303,33,o),
(262,75,qs),
(212,125,o),
(212,218,qs),
(212,293,o),
(257,347,qs),
(310,409,o),
(391,409,qs),
(454,409,o),
(489,366,q),
(511,399,o),
(567,399,qs),
(586,399,ls),
(598,399,o),
(596,386,qs),
(576,175,l),
(573,160,o),
(573,151,qs),
(573,133,o),
(592,133,qs),
(615,133,o),
(633,162,qs),
(656,200,o),
(656,264,qs),
(656,361,o),
(594,413,qs),
(530,467,o),
(408,467,qs),
(307,467,o),
(236,407,qs),
(153,336,o),
(153,218,qs),
(153,104,o),
(215,36,qs),
(286,-42,o),
(427,-42,qs),
(492,-42,o),
(578,-19,o),
(643,15,q),
(646,16,o),
(648,18,qs),
(655,23,o),
(660,23,qs),
(669,23,o),
(669,11,qs),
(669,-33,o),
(618,-76,qs),
(541,-142,o),
(404,-142,qs),
(252,-142,o),
(153,-59,qs),
(35,39,o),
(35,215,qs),
(35,362,o),
(132,460,qs),
(241,571,o),
(411,571,qs),
(551,571,o),
(647,507,qs),
(770,426,o),
(770,269,qs),
(770,180,o),
(722,112,qs),
(665,33,o),
(577,33,qs),
(504,33,o),
(476,85,q),
(436,33,o)
);
},
{
closed = 1;
nodes = (
(461,195,o),
(461,239,qs),
(461,298,o),
(407,298,qs),
(377,298,o),
(339,251,o),
(339,213,qs),
(339,182,o),
(371,143,o),
(396,143,qs),
(425,143,o)
);
}
);
userData = {
assembly = "PUSHB[ ]	/* 6 values pushed */
57 1 11 7 1 76 
MPPEM[ ]	/* MeasurePixelPerEm */
PUSHB[ ]	/* 1 value pushed */
19 
LT[ ]	/* LessThan */
IF[ ]	/* If */
NPUSHB[ ]	/* 51 values pushed */
0 3 0 4 0 3 4 128 12 10 2 6 9 1 0 3 6 0 106 0 5 5 1 97 0 1 1 39 77 0 11 11 7 97 8 1 7 7 48 77 0 4 4 2 97 0 2 2 44 2 78 
ELSE[ ]	/* Else */
MPPEM[ ]	/* MeasurePixelPerEm */
PUSHB[ ]	/* 1 value pushed */
21 
LT[ ]	/* LessThan */
IF[ ]	/* If */
NPUSHB[ ]	/* 60 values pushed */
0 3 0 4 0 3 4 128 12 1 10 6 0 10 89 0 6 9 1 0 3 6 0 106 0 5 5 1 97 0 1 1 39 77 0 7 7 48 77 0 11 11 8 97 0 8 8 48 77 0 4 4 2 97 0 2 2 44 2 78 
ELSE[ ]	/* Else */
MPPEM[ ]	/* MeasurePixelPerEm */
PUSHB[ ]	/* 1 value pushed */
27 
LT[ ]	/* LessThan */
IF[ ]	/* If */
NPUSHB[ ]	/* 57 values pushed */
0 3 0 4 0 3 4 128 12 1 10 6 0 10 89 0 6 9 1 0 3 6 0 106 0 4 0 2 4 2 101 0 5 5 1 97 0 1 1 39 77 0 7 7 48 77 0 11 11 8 97 0 8 8 48 11 78 
ELSE[ ]	/* Else */
MPPEM[ ]	/* MeasurePixelPerEm */
PUSHB[ ]	/* 1 value pushed */
33 
LT[ ]	/* LessThan */
IF[ ]	/* If */
NPUSHB[ ]	/* 55 values pushed */
0 3 0 4 0 3 4 128 0 1 0 5 8 1 5 105 12 1 10 6 0 10 89 0 6 9 1 0 3 6 0 106 0 4 0 2 4 2 101 0 7 7 48 77 0 11 11 8 97 0 8 8 48 11 78 
ELSE[ ]	/* Else */
NPUSHB[ ]	/* 53 values pushed */
0 3 0 4 0 3 4 128 0 1 0 5 8 1 5 105 0 8 0 11 10 8 11 105 12 1 10 6 0 10 89 0 6 9 1 0 3 6 0 106 0 4 0 2 4 2 101 0 7 7 48 7 78 
EIF[ ]	/* EndIf */
EIF[ ]	/* EndIf */
EIF[ ]	/* EndIf */
EIF[ ]	/* EndIf */
NPUSHB[ ]	/* 22 values pushed */
70 69 76 74 69 79 70 79 68 66 34 53 38 38 38 20 38 38 33 13 9 31 
CALL[ ]	/* CallFunction */";
};
width = 805;
}
);
note = at;
unicode = 64;
},
{
glyphname = A;
kernLeft = A;
kernRight = A;
layers = (
{
layerId = m01;
shapes = (
{
closed = 1;
nodes = (
(268,384,l),
(221,241,l),
(317,241,l)
);
},
{
closed = 1;
nodes = (
(140,0,o),
(129,0,qs),
(16,0,ls),
(3,0,o),
(7,13,qs),
(193,544,ls),
(197,556,o),
(208,556,qs),
(267,556,ls),
(310,556,o),
(356,518,o),
(374,466,qs),
(537,13,l),
(540,0,o),
(527,0,qs),
(412,0,ls),
(398,0,o),
(392,13,q),
(354,125,l),
(182,125,l),
(144,13,ls)
);
}
);
userData = {
assembly = "NPUSHB[ ]	/* 44 values pushed */
1 1 0 3 1 76 5 1 0 0 1 2 0 1 104 0 3 3 39 77 4 1 2 2 40 2 78 0 0 22 19 16 13 9 6 4 3 0 2 0 2 6 9 22 
CALL[ ]	/* CallFunction */";
};
width = 538;
}
);
note = A;
unicode = 65;
},
{
glyphname = B;
layers = (
{
layerId = m01;
shapes = (
{
closed = 1;
nodes = (
(465,162,qs),
(465,0,o),
(274,0,qs),
(59,0,ls),
(46,0,o),
(46,13,qs),
(46,542,ls),
(46,556,o),
(59,556,qs),
(257,556,ls),
(343,556,o),
(391,522,qs),
(448,484,o),
(448,406,qs),
(448,332,o),
(380,289,q),
(465,253,o)
);
},
{
closed = 1;
nodes = (
(328,118,o),
(328,176,qs),
(328,202,o),
(292,235,o),
(262,235,qs),
(180,235,l),
(180,118,l),
(262,118,ls)
);
},
{
closed = 1;
nodes = (
(312,342,o),
(312,392,qs),
(312,438,o),
(260,438,qs),
(180,438,l),
(180,342,l),
(264,342,ls)
);
}
);
userData = {
assembly = "NPUSHB[ ]	/* 51 values pushed */
7 1 5 0 2 3 5 2 103 0 4 4 0 95 0 0 0 39 77 6 1 3 3 1 95 0 1 1 40 1 78 25 25 17 17 25 31 25 30 28 26 17 24 17 23 36 51 53 8 9 25 
CALL[ ]	/* CallFunction */";
};
width = 484;
}
);
note = B;
unicode = 66;
},
{
glyphname = C;
kernLeft = C;
kernRight = C;
layers = (
{
layerId = m01;
shapes = (
{
closed = 1;
nodes = (
(472,186,o),
(478,186,qs),
(497,186,o),
(497,159,qs),
(497,106,o),
(459,60,qs),
(403,-9,o),
(291,-9,qs),
(184,-9,o),
(115,58,qs),
(34,136,o),
(34,276,qs),
(34,401,o),
(101,479,qs),
(176,566,o),
(305,566,qs),
(387,566,o),
(440,543,qs),
(498,518,o),
(482,457,qs),
(471,413,ls),
(467,401,o),
(458,401,qs),
(453,401,o),
(436,408,q),
(375,439,o),
(309,439,qs),
(251,439,o),
(216,405,qs),
(173,363,o),
(173,276,qs),
(173,204,o),
(209,162,qs),
(248,118,o),
(318,118,qs),
(397,118,o),
(461,177,qs),
(462,178,ls)
);
}
);
userData = {
assembly = "MPPEM[ ]	/* MeasurePixelPerEm */
PUSHB[ ]	/* 1 value pushed */
40 
LT[ ]	/* LessThan */
IF[ ]	/* If */
NPUSHB[ ]	/* 36 values pushed */
0 2 1 5 1 2 5 128 0 5 0 1 5 0 126 0 1 1 3 97 0 3 3 39 77 0 0 0 4 97 0 4 4 46 4 78 
ELSE[ ]	/* Else */
NPUSHB[ ]	/* 34 values pushed */
0 2 1 5 1 2 5 128 0 5 0 1 5 0 126 0 3 0 1 2 3 1 105 0 0 0 4 97 0 4 4 46 4 78 
EIF[ ]	/* EndIf */
NPUSHB[ ]	/* 9 values pushed */
20 38 37 34 38 33 6 9 28 
CALL[ ]	/* CallFunction */";
};
width = 507;
}
);
note = C;
unicode = 67;
},
{
glyphname = D;
layers = (
{
layerId = m01;
shapes = (
{
closed = 1;
nodes = (
(301,125,o),
(339,160,qs),
(383,201,o),
(383,284,qs),
(383,358,o),
(348,394,qs),
(312,431,o),
(230,431,qs),
(180,431,l),
(180,125,l),
(235,125,ls)
);
},
{
closed = 1;
nodes = (
(46,556,o),
(59,556,qs),
(230,556,ls),
(349,556,o),
(421,509,qs),
(523,443,o),
(523,288,qs),
(523,153,o),
(452,80,qs),
(375,0,o),
(224,0,qs),
(59,0,ls),
(46,0,o),
(46,13,qs),
(46,542,ls)
);
}
);
userData = {
assembly = "NPUSHB[ ]	/* 36 values pushed */
0 0 0 3 95 0 3 3 39 77 4 1 1 1 2 95 0 2 2 40 2 78 0 0 24 21 15 12 0 10 0 9 33 5 9 23 
CALL[ ]	/* CallFunction */";
};
width = 557;
}
);
note = D;
unicode = 68;
},
{
glyphname = E;
kernRight = E;
layers = (
{
layerId = m01;
shapes = (
{
closed = 1;
nodes = (
(407,125,o),
(407,59,qs),
(407,17,ls),
(407,0,o),
(391,0,qs),
(59,0,ls),
(46,0,o),
(46,13,qs),
(46,542,ls),
(46,556,o),
(59,556,qs),
(329,556,ls),
(399,556,o),
(399,489,qs),
(399,447,ls),
(399,430,o),
(383,430,qs),
(182,430,l),
(182,344,l),
(310,344,ls),
(380,344,o),
(380,277,qs),
(380,237,ls),
(380,221,o),
(364,221,qs),
(182,221,l),
(182,125,l),
(337,125,ls)
);
}
);
userData = {
assembly = "NPUSHB[ ]	/* 44 values pushed */
0 1 0 0 5 1 0 103 0 2 2 3 95 0 3 3 39 77 6 1 5 5 4 95 0 4 4 40 4 78 0 0 0 27 0 26 51 51 33 35 33 7 9 27 
CALL[ ]	/* CallFunction */";
};
width = 424;
}
);
note = E;
unicode = 69;
},
{
glyphname = F;
layers = (
{
layerId = m01;
shapes = (
{
closed = 1;
nodes = (
(180,0,o),
(168,0,qs),
(59,0,ls),
(46,0,o),
(46,13,qs),
(46,542,ls),
(46,556,o),
(59,556,qs),
(329,556,ls),
(398,556,o),
(398,488,qs),
(398,448,ls),
(398,431,o),
(383,431,qs),
(180,431,l),
(180,338,l),
(305,338,ls),
(375,338,o),
(375,272,qs),
(375,232,ls),
(375,215,o),
(359,215,qs),
(180,215,l),
(180,13,ls)
);
}
);
userData = {
assembly = "NPUSHB[ ]	/* 32 values pushed */
0 1 0 0 4 1 0 103 0 2 2 3 95 0 3 3 39 77 0 4 4 40 4 78 51 51 33 35 32 5 9 27 
CALL[ ]	/* CallFunction */";
};
width = 412;
}
);
note = F;
unicode = 70;
},
{
glyphname = G;
layers = (
{
layerId = m01;
shapes = (
{
closed = 1;
nodes = (
(344,199,ls),
(275,199,o),
(275,266,qs),
(275,307,ls),
(275,324,o),
(290,324,qs),
(508,324,ls),
(525,324,o),
(525,307,qs),
(525,95,ls),
(525,68,o),
(502,52,qs),
(457,18,o),
(372,-9,o),
(313,-9,qs),
(199,-9,o),
(128,47,qs),
(34,121,o),
(34,282,qs),
(34,406,o),
(101,481,qs),
(177,566,o),
(318,566,qs),
(404,566,o),
(457,543,qs),
(515,518,o),
(498,457,qs),
(487,413,ls),
(484,401,o),
(475,401,qs),
(469,401,o),
(456,406,qs),
(452,408,ls),
(392,439,o),
(328,439,qs),
(176,439,o),
(176,274,qs),
(176,205,o),
(207,164,qs),
(242,117,o),
(311,117,qs),
(355,117,o),
(395,138,q),
(395,199,l)
);
}
);
userData = {
assembly = "PUSHB[ ]	/* 6 values pushed */
0 1 0 6 1 76 
MPPEM[ ]	/* MeasurePixelPerEm */
PUSHB[ ]	/* 1 value pushed */
40 
LT[ ]	/* LessThan */
IF[ ]	/* If */
NPUSHB[ ]	/* 37 values pushed */
0 2 1 5 1 2 5 128 0 5 0 6 0 5 6 105 0 1 1 3 97 0 3 3 39 77 0 0 0 4 97 0 4 4 46 4 78 
ELSE[ ]	/* Else */
NPUSHB[ ]	/* 35 values pushed */
0 2 1 5 1 2 5 128 0 3 0 1 2 3 1 105 0 5 0 6 0 5 6 105 0 0 0 4 97 0 4 4 46 4 78 
EIF[ ]	/* EndIf */
NPUSHB[ ]	/* 10 values pushed */
35 54 38 37 35 36 33 7 9 29 
CALL[ ]	/* CallFunction */";
};
width = 557;
}
);
note = G;
unicode = 71;
},
{
glyphname = H;
layers = (
{
layerId = m01;
shapes = (
{
closed = 1;
nodes = (
(180,0,o),
(168,0,qs),
(59,0,ls),
(46,0,o),
(46,13,qs),
(46,542,ls),
(46,556,o),
(59,556,qs),
(87,556,ls),
(136,556,o),
(180,508,o),
(180,456,qs),
(180,339,l),
(350,339,l),
(350,542,ls),
(350,556,o),
(363,556,qs),
(392,556,ls),
(441,556,o),
(485,508,o),
(485,456,qs),
(485,13,ls),
(485,0,o),
(472,0,qs),
(363,0,ls),
(350,0,o),
(350,13,qs),
(350,215,l),
(180,215,l),
(180,13,ls)
);
}
);
userData = {
assembly = "NPUSHB[ ]	/* 30 values pushed */
0 3 0 0 1 3 0 103 4 1 2 2 39 77 5 1 1 1 40 1 78 51 51 18 52 50 16 6 9 28 
CALL[ ]	/* CallFunction */";
};
width = 532;
}
);
note = H;
unicode = 72;
},
{
glyphname = I;
kernRight = I;
layers = (
{
layerId = m01;
shapes = (
{
closed = 1;
nodes = (
(46,556,o),
(59,556,qs),
(87,556,ls),
(137,556,o),
(182,508,o),
(182,455,qs),
(182,13,ls),
(182,0,o),
(168,0,qs),
(59,0,ls),
(46,0,o),
(46,13,qs),
(46,542,ls)
);
}
);
userData = {
assembly = "NPUSHB[ ]	/* 16 values pushed */
0 1 1 39 77 0 0 0 40 0 78 52 49 2 9 24 
CALL[ ]	/* CallFunction */";
};
width = 227;
}
);
note = I;
unicode = 73;
},
{
glyphname = J;
layers = (
{
layerId = m01;
shapes = (
{
closed = 1;
nodes = (
(19,129,qs),
(28,129,o),
(36,121,q),
(39,119,o),
(40,118,qs),
(60,99,o),
(92,99,qs),
(143,99,o),
(143,157,qs),
(143,542,ls),
(143,556,o),
(156,556,qs),
(184,556,ls),
(234,556,o),
(278,508,o),
(278,456,qs),
(278,153,ls),
(278,-10,o),
(135,-10,qs),
(76,-10,o),
(38,23,qs),
(0,57,o),
(0,104,qs),
(0,129,o)
);
}
);
userData = {
assembly = "NPUSHB[ ]	/* 31 values pushed */
0 3 1 2 1 3 2 128 0 1 1 39 77 0 2 2 0 98 0 0 0 46 0 78 36 35 52 35 4 9 26 
CALL[ ]	/* CallFunction */";
};
width = 322;
}
);
note = J;
unicode = 74;
},
{
glyphname = K;
layers = (
{
layerId = m01;
shapes = (
{
closed = 1;
nodes = (
(180,0,o),
(168,0,qs),
(59,0,ls),
(46,0,o),
(46,13,qs),
(46,542,ls),
(46,556,o),
(59,556,qs),
(87,556,ls),
(136,556,o),
(180,508,o),
(180,456,qs),
(180,359,l),
(330,539,ls),
(344,556,o),
(362,556,qs),
(477,556,ls),
(484,556,o),
(489,547,o),
(484,542,qs),
(318,343,l),
(512,14,ls),
(515,9,o),
(509,0,o),
(503,0,qs),
(385,0,ls),
(365,0,o),
(354,16,q),
(225,233,l),
(180,181,l),
(180,13,ls)
);
}
);
userData = {
assembly = "NPUSHB[ ]	/* 29 values pushed */
17 9 1 0 4 0 1 1 76 2 1 1 1 39 77 3 1 0 0 40 0 78 51 53 55 35 4 9 26 
CALL[ ]	/* CallFunction */";
};
width = 517;
}
);
note = K;
unicode = 75;
},
{
glyphname = L;
layers = (
{
layerId = m01;
shapes = (
{
closed = 1;
nodes = (
(377,125,o),
(377,59,qs),
(377,17,ls),
(377,0,o),
(360,0,qs),
(59,0,ls),
(46,0,o),
(46,13,qs),
(46,542,ls),
(46,556,o),
(59,556,qs),
(87,556,ls),
(136,556,o),
(180,508,o),
(180,456,qs),
(180,125,l),
(307,125,ls)
);
}
);
userData = {
assembly = "NPUSHB[ ]	/* 28 values pushed */
0 0 0 39 77 3 1 2 2 1 96 0 1 1 40 1 78 0 0 0 16 0 15 51 51 4 9 24 
CALL[ ]	/* CallFunction */";
};
width = 386;
}
);
note = L;
unicode = 76;
},
{
glyphname = M;
layers = (
{
layerId = m01;
shapes = (
{
closed = 1;
nodes = (
(164,0,o),
(153,0,qs),
(40,0,ls),
(29,0,o),
(29,13,qs),
(60,542,ls),
(60,556,o),
(72,556,qs),
(168,556,ls),
(243,556,o),
(257,503,qs),
(329,227,l),
(412,542,ls),
(416,556,o),
(428,556,qs),
(522,556,ls),
(556,556,o),
(600,518,o),
(601,487,qs),
(627,13,ls),
(627,0,o),
(617,0,qs),
(505,0,ls),
(492,0,o),
(492,13,qs),
(477,319,l),
(393,13,ls),
(390,0,o),
(378,0,qs),
(276,0,ls),
(265,0,o),
(261,13,qs),
(180,318,l),
(164,13,ls)
);
}
);
userData = {
assembly = "NPUSHB[ ]	/* 30 values pushed */
21 7 0 3 0 2 1 76 3 1 2 2 39 77 4 1 2 0 0 40 0 78 51 52 52 52 50 5 9 27 
CALL[ ]	/* CallFunction */";
};
width = 655;
}
);
note = M;
unicode = 77;
},
{
glyphname = N;
kernRight = N;
layers = (
{
layerId = m01;
shapes = (
{
closed = 1;
nodes = (
(182,0,o),
(168,0,qs),
(59,0,ls),
(46,0,o),
(46,13,qs),
(46,542,ls),
(46,556,o),
(59,556,qs),
(111,556,ls),
(147,556,o),
(190,531,o),
(209,500,qs),
(357,261,l),
(357,542,ls),
(357,556,o),
(370,556,qs),
(398,556,ls),
(447,556,o),
(492,508,o),
(492,455,qs),
(492,13,ls),
(492,0,o),
(479,0,qs),
(385,0,ls),
(364,0,o),
(354,18,qs),
(182,297,l),
(182,13,ls)
);
}
);
userData = {
assembly = "NPUSHB[ ]	/* 27 values pushed */
14 0 2 0 1 1 76 2 1 1 1 39 77 3 1 0 0 40 0 78 51 53 52 50 4 9 26 
CALL[ ]	/* CallFunction */";
};
width = 537;
}
);
note = N;
unicode = 78;
},
{
glyphname = O;
kernLeft = O;
kernRight = O;
layers = (
{
layerId = m01;
shapes = (
{
closed = 1;
nodes = (
(434,277,qs),
(434,439,o),
(303,439,qs),
(172,439,o),
(172,277,qs),
(172,118,o),
(303,118,qs),
(434,118,o)
);
},
{
closed = 1;
nodes = (
(113,58,qs),
(34,134,o),
(34,277,qs),
(34,402,o),
(96,478,qs),
(168,566,o),
(303,566,qs),
(421,566,o),
(492,498,qs),
(572,420,o),
(572,277,qs),
(572,153,o),
(511,78,qs),
(440,-9,o),
(303,-9,qs),
(184,-9,o)
);
}
);
userData = {
assembly = "MPPEM[ ]	/* MeasurePixelPerEm */
PUSHB[ ]	/* 1 value pushed */
40 
LT[ ]	/* LessThan */
IF[ ]	/* If */
NPUSHB[ ]	/* 23 values pushed */
0 1 1 3 97 0 3 3 39 77 4 1 0 0 2 97 5 1 2 2 46 2 78 
ELSE[ ]	/* Else */
NPUSHB[ ]	/* 21 values pushed */
0 3 0 1 0 3 1 105 4 1 0 0 2 97 5 1 2 2 46 2 78 
EIF[ ]	/* EndIf */
NPUSHB[ ]	/* 19 values pushed */
9 8 1 0 17 15 8 23 9 23 5 3 0 7 1 7 6 9 22 
CALL[ ]	/* CallFunction */";
};
width = 606;
}
);
note = O;
unicode = 79;
},
{
glyphname = P;
layers = (
{
layerId = m01;
shapes = (
{
closed = 1;
nodes = (
(338,303,o),
(338,368,qs),
(338,431,o),
(267,431,qs),
(180,431,l),
(180,303,l),
(267,303,ls)
);
},
{
closed = 1;
nodes = (
(180,0,o),
(168,0,qs),
(59,0,ls),
(46,0,o),
(46,13,qs),
(46,542,ls),
(46,556,o),
(59,556,qs),
(258,556,ls),
(472,556,o),
(472,372,qs),
(472,294,o),
(425,241,qs),
(369,178,o),
(273,178,qs),
(180,178,l),
(180,13,ls)
);
}
);
userData = {
assembly = "NPUSHB[ ]	/* 41 values pushed */
5 1 1 0 2 4 1 2 103 0 0 0 3 95 0 3 3 39 77 0 4 4 40 4 78 0 0 22 19 16 13 9 7 0 6 0 5 33 6 9 23 
CALL[ ]	/* CallFunction */";
};
width = 494;
}
);
note = P;
unicode = 80;
},
{
glyphname = Q;
layers = (
{
layerId = m01;
shapes = (
{
closed = 1;
nodes = (
(100,72,qs),
(34,147,o),
(34,277,qs),
(34,402,o),
(96,478,qs),
(168,566,o),
(303,566,qs),
(421,566,o),
(492,498,qs),
(572,420,o),
(572,277,qs),
(572,187,o),
(540,122,qs),
(503,48,o),
(428,15,q),
(448,0,o),
(468,0,qs),
(496,0,o),
(522,18,qs),
(529,22,o),
(537,22,qs),
(561,22,o),
(561,-8,qs),
(561,-44,o),
(531,-74,qs),
(494,-113,o),
(433,-113,qs),
(373,-113,o),
(292,-63,o),
(260,-6,q),
(159,6,o)
);
},
{
closed = 1;
nodes = (
(435,277,qs),
(435,439,o),
(303,439,qs),
(172,439,o),
(172,277,qs),
(172,118,o),
(303,118,qs),
(435,118,o)
);
}
);
userData = {
assembly = "MPPEM[ ]	/* MeasurePixelPerEm */
PUSHB[ ]	/* 1 value pushed */
9 
LT[ ]	/* LessThan */
IF[ ]	/* If */
PUSHB[ ]	/* 6 values pushed */
15 1 0 1 1 76 
ELSE[ ]	/* Else */
PUSHB[ ]	/* 6 values pushed */
15 1 2 1 1 76 
EIF[ ]	/* EndIf */
MPPEM[ ]	/* MeasurePixelPerEm */
PUSHB[ ]	/* 1 value pushed */
9 
LT[ ]	/* LessThan */
IF[ ]	/* If */
NPUSHB[ ]	/* 27 values pushed */
6 1 4 5 1 1 4 114 2 1 1 0 0 1 0 102 0 5 5 3 97 0 3 3 39 5 78 
ELSE[ ]	/* Else */
MPPEM[ ]	/* MeasurePixelPerEm */
PUSHB[ ]	/* 1 value pushed */
40 
LT[ ]	/* LessThan */
IF[ ]	/* If */
NPUSHB[ ]	/* 34 values pushed */
6 1 4 5 1 5 4 1 128 0 1 2 5 1 2 126 0 2 0 0 2 0 102 0 5 5 3 97 0 3 3 39 5 78 
ELSE[ ]	/* Else */
NPUSHB[ ]	/* 40 values pushed */
6 1 4 5 1 5 4 1 128 0 1 2 5 1 2 126 0 3 0 5 4 3 5 105 0 2 0 0 2 89 0 2 2 0 98 0 0 2 0 82 
EIF[ ]	/* EndIf */
EIF[ ]	/* EndIf */
NPUSHB[ ]	/* 15 values pushed */
32 31 36 34 31 38 32 38 40 34 36 34 7 9 26 
CALL[ ]	/* CallFunction */";
};
width = 606;
}
);
note = Q;
unicode = 81;
},
{
glyphname = R;
layers = (
{
layerId = m01;
shapes = (
{
closed = 1;
nodes = (
(338,299,o),
(338,367,qs),
(338,397,o),
(300,431,o),
(267,431,qs),
(180,431,l),
(180,299,l),
(267,299,ls)
);
},
{
closed = 1;
nodes = (
(180,0,o),
(168,0,qs),
(59,0,ls),
(46,0,o),
(46,13,qs),
(46,542,ls),
(46,556,o),
(59,556,qs),
(257,556,ls),
(360,556,o),
(414,510,qs),
(472,463,o),
(472,369,qs),
(472,251,o),
(370,200,q),
(482,15,ls),
(485,9,o),
(480,0,o),
(473,0,qs),
(355,0,ls),
(335,0,o),
(327,15,qs),
(237,179,l),
(180,179,l),
(180,13,ls)
);
}
);
userData = {
assembly = "NPUSHB[ ]	/* 50 values pushed */
17 1 2 1 1 76 6 1 1 0 2 3 1 2 103 0 0 0 4 95 0 4 4 39 77 5 1 3 3 40 3 78 0 0 31 28 25 22 14 11 9 8 0 7 0 6 33 7 9 23 
CALL[ ]	/* CallFunction */";
};
width = 504;
}
);
note = R;
unicode = 82;
},
{
glyphname = S;
kernLeft = S;
kernRight = S;
layers = (
{
layerId = m01;
shapes = (
{
closed = 1;
nodes = (
(28,187,qs),
(38,187,o),
(48,177,qs),
(109,115,o),
(218,115,qs),
(301,115,o),
(301,162,qs),
(301,190,o),
(230,214,qs),
(129,247,o),
(98,268,qs),
(27,315,o),
(27,401,qs),
(27,475,o),
(81,519,qs),
(138,566,o),
(233,566,qs),
(310,566,o),
(373,546,qs),
(406,534,o),
(426,494,o),
(416,460,qs),
(406,424,l),
(404,411,o),
(394,411,qs),
(388,411,o),
(377,416,qs),
(301,448,o),
(237,448,qs),
(166,448,o),
(166,408,qs),
(166,378,o),
(237,355,qs),
(290,338,ls),
(340,322,o),
(370,303,qs),
(441,257,o),
(441,170,qs),
(441,95,o),
(391,47,qs),
(333,-10,o),
(227,-10,qs),
(132,-10,o),
(71,41,qs),
(10,92,o),
(10,162,qs),
(10,187,o)
);
}
);
userData = {
assembly = "MPPEM[ ]	/* MeasurePixelPerEm */
PUSHB[ ]	/* 1 value pushed */
40 
LT[ ]	/* LessThan */
IF[ ]	/* If */
NPUSHB[ ]	/* 36 values pushed */
0 2 1 5 1 2 5 128 0 5 4 1 5 4 126 0 1 1 3 97 0 3 3 39 77 0 4 4 0 97 0 0 0 46 0 78 
ELSE[ ]	/* Else */
NPUSHB[ ]	/* 34 values pushed */
0 2 1 5 1 2 5 128 0 5 4 1 5 4 126 0 3 0 1 2 3 1 105 0 4 4 0 97 0 0 0 46 0 78 
EIF[ ]	/* EndIf */
NPUSHB[ ]	/* 9 values pushed */
34 42 38 34 43 35 6 9 28 
CALL[ ]	/* CallFunction */";
};
width = 457;
}
);
note = S;
unicode = 83;
},
{
glyphname = T;
layers = (
{
layerId = m01;
shapes = (
{
closed = 1;
nodes = (
(5,431,o),
(5,443,qs),
(5,542,ls),
(5,556,o),
(18,556,qs),
(388,556,ls),
(457,556,o),
(457,488,qs),
(457,448,ls),
(457,431,o),
(442,431,qs),
(296,431,l),
(296,13,ls),
(296,0,o),
(283,0,qs),
(174,0,ls),
(161,0,o),
(161,13,qs),
(161,431,l),
(18,431,ls)
);
}
);
userData = {
assembly = "NPUSHB[ ]	/* 30 values pushed */
4 3 2 1 1 2 95 0 2 2 39 77 0 0 0 40 0 78 0 0 0 19 0 18 51 34 50 5 9 25 
CALL[ ]	/* CallFunction */";
};
width = 462;
}
);
note = T;
unicode = 84;
},
{
glyphname = U;
kernLeft = U;
kernRight = U;
layers = (
{
layerId = m01;
shapes = (
{
closed = 1;
nodes = (
(43,556,o),
(56,556,qs),
(84,556,ls),
(133,556,o),
(178,508,o),
(178,455,qs),
(178,233,ls),
(178,117,o),
(262,117,qs),
(351,117,o),
(351,232,qs),
(351,542,ls),
(351,556,o),
(364,556,qs),
(392,556,ls),
(441,556,o),
(486,508,o),
(486,455,qs),
(486,211,ls),
(486,137,o),
(454,83,qs),
(399,-9,o),
(262,-9,qs),
(142,-9,o),
(86,65,qs),
(43,122,o),
(43,211,qs),
(43,542,ls)
);
}
);
userData = {
assembly = "NPUSHB[ ]	/* 24 values pushed */
3 1 1 1 39 77 0 2 2 0 98 0 0 0 46 0 78 52 35 54 35 4 9 26 
CALL[ ]	/* CallFunction */";
};
width = 528;
}
);
note = U;
unicode = 85;
},
{
glyphname = V;
layers = (
{
layerId = m01;
shapes = (
{
closed = 1;
nodes = (
(388,556,o),
(403,556,qs),
(510,556,ls),
(524,556,o),
(520,542,qs),
(343,13,ls),
(339,0,o),
(328,0,qs),
(205,0,ls),
(191,0,o),
(187,13,qs),
(11,542,ls),
(6,556,o),
(19,556,qs),
(77,556,ls),
(123,556,o),
(168,517,o),
(184,466,qs),
(271,182,l),
(383,542,ls)
);
}
);
userData = {
assembly = "NPUSHB[ ]	/* 18 values pushed */
2 1 0 0 39 77 0 1 1 40 1 78 51 51 51 3 9 25 
CALL[ ]	/* CallFunction */";
};
width = 522;
}
);
note = V;
unicode = 86;
},
{
glyphname = W;
layers = (
{
layerId = m01;
shapes = (
{
closed = 1;
nodes = (
(303,556,o),
(314,556,qs),
(367,556,ls),
(417,556,o),
(463,516,o),
(474,466,qs),
(531,196,l),
(602,542,l),
(606,556,o),
(619,556,qs),
(734,556,ls),
(746,556,o),
(742,542,qs),
(612,13,ls),
(609,0,o),
(597,0,qs),
(476,0,ls),
(463,0,o),
(461,13,q),
(376,358,l),
(291,13,ls),
(287,0,o),
(276,0,qs),
(154,0,ls),
(141,0,o),
(137,13,q),
(14,542,l),
(12,556,o),
(24,556,qs),
(65,556,ls),
(115,556,o),
(163,515,o),
(172,466,qs),
(223,197,l),
(299,542,ls)
);
}
);
userData = {
assembly = "NPUSHB[ ]	/* 29 values pushed */
27 14 2 1 0 1 76 4 3 2 0 0 39 77 2 1 1 1 40 1 78 53 51 52 51 51 5 9 27 
CALL[ ]	/* CallFunction */";
};
width = 754;
}
);
note = W;
unicode = 87;
},
{
glyphname = X;
layers = (
{
layerId = m01;
shapes = (
{
closed = 1;
nodes = (
(147,0,o),
(135,0,qs),
(13,0,ls),
(7,0,o),
(2,8,o),
(5,13,qs),
(166,291,l),
(18,542,l),
(16,547,o),
(20,556,o),
(25,556,qs),
(92,556,ls),
(138,556,o),
(176,531,o),
(204,483,qs),
(258,393,l),
(345,542,ls),
(353,556,o),
(365,556,qs),
(485,556,ls),
(500,556,o),
(493,542,qs),
(351,299,l),
(520,13,ls),
(523,8,o),
(519,0,o),
(513,0,qs),
(391,0,ls),
(376,0,o),
(369,13,qs),
(260,199,l),
(154,13,ls)
);
}
);
userData = {
assembly = "NPUSHB[ ]	/* 28 values pushed */
24 15 8 3 0 1 1 76 2 1 1 1 39 77 3 1 0 0 40 0 78 55 37 54 34 4 9 26 
CALL[ ]	/* CallFunction */";
};
width = 522;
}
);
note = X;
unicode = 88;
},
{
glyphname = Y;
kernLeft = Y;
kernRight = Y;
layers = (
{
layerId = m01;
shapes = (
{
closed = 1;
nodes = (
(0,556,o),
(14,556,qs),
(84,556,ls),
(152,556,o),
(183,495,qs),
(259,346,l),
(357,542,ls),
(364,556,o),
(377,556,qs),
(495,556,ls),
(509,556,o),
(503,542,q),
(321,199,l),
(321,13,ls),
(321,0,o),
(308,0,qs),
(199,0,ls),
(186,0,o),
(186,13,qs),
(186,203,l),
(6,542,l)
);
}
);
userData = {
assembly = "NPUSHB[ ]	/* 26 values pushed */
14 7 0 3 0 1 1 76 2 1 1 1 39 77 0 0 0 40 0 78 52 52 50 3 9 25 
CALL[ ]	/* CallFunction */";
};
width = 501;
}
);
note = Y;
unicode = 89;
},
{
glyphname = Z;
kernLeft = Z;
kernRight = Z;
layers = (
{
layerId = m01;
shapes = (
{
closed = 1;
nodes = (
(436,125,o),
(436,59,qs),
(436,17,ls),
(436,0,o),
(420,0,qs),
(40,0,ls),
(27,0,o),
(27,13,qs),
(27,94,ls),
(27,116,o),
(42,136,qs),
(258,430,l),
(46,430,ls),
(33,430,o),
(33,443,qs),
(33,542,ls),
(33,556,o),
(46,556,qs),
(366,556,ls),
(436,556,o),
(436,489,qs),
(436,467,ls),
(436,448,o),
(421,429,qs),
(199,125,l),
(366,125,ls)
);
}
);
userData = {
assembly = "NPUSHB[ ]	/* 34 values pushed */
0 1 1 0 95 0 0 0 39 77 4 1 3 3 2 95 0 2 2 40 2 78 0 0 0 25 0 24 53 35 53 5 9 25 
CALL[ ]	/* CallFunction */";
};
width = 459;
}
);
note = Z;
unicode = 90;
},
{
glyphname = bracketleft;
layers = (
{
layerId = m01;
shapes = (
{
closed = 1;
nodes = (
(44,-144,o),
(44,-68,qs),
(44,620,ls),
(44,696,o),
(123,696,qs),
(242,696,ls),
(268,696,o),
(268,670,qs),
(268,661,ls),
(268,585,o),
(188,585,qs),
(167,585,ls),
(162,585,o),
(162,581,qs),
(162,-29,ls),
(162,-33,o),
(167,-33,qs),
(188,-33,ls),
(268,-33,o),
(268,-109,qs),
(268,-118,ls),
(268,-144,o),
(242,-144,qs),
(123,-144,ls)
);
}
);
userData = {
assembly = "PUSHB[ ]	/* 7 values pushed */
9 8 2 1 2 1 76 
MPPEM[ ]	/* MeasurePixelPerEm */
PUSHB[ ]	/* 1 value pushed */
25 
LT[ ]	/* LessThan */
IF[ ]	/* If */
NPUSHB[ ]	/* 20 values pushed */
0 3 0 2 1 3 2 105 0 1 1 0 95 4 1 0 0 44 0 78 
ELSE[ ]	/* Else */
NPUSHB[ ]	/* 25 values pushed */
0 3 0 2 1 3 2 105 0 1 0 0 1 89 0 1 1 0 95 4 1 0 1 0 79 
EIF[ ]	/* EndIf */
NPUSHB[ ]	/* 15 values pushed */
1 0 19 16 13 11 6 4 0 23 1 22 5 9 22 
CALL[ ]	/* CallFunction */";
};
width = 313;
}
);
note = bracketleft;
unicode = 91;
},
{
glyphname = backslash;
layers = (
{
layerId = m01;
shapes = (
{
closed = 1;
nodes = (
(3,556,o),
(17,556,qs),
(58,556,ls),
(100,556,o),
(142,526,o),
(159,484,qs),
(359,13,l),
(363,0,o),
(351,0,qs),
(252,0,ls),
(238,0,o),
(232,13,qs),
(8,542,ls)
);
}
);
userData = {
assembly = "NPUSHB[ ]	/* 16 values pushed */
0 1 1 39 77 0 0 0 40 0 78 52 49 2 9 24 
CALL[ ]	/* CallFunction */";
};
width = 358;
}
);
note = backslash;
unicode = 92;
},
{
glyphname = bracketright;
layers = (
{
layerId = m01;
shapes = (
{
closed = 1;
nodes = (
(44,-144,o),
(44,-118,qs),
(44,-109,ls),
(44,-33,o),
(123,-33,qs),
(145,-33,ls),
(150,-33,o),
(150,-29,qs),
(150,581,ls),
(150,585,o),
(145,585,qs),
(123,585,ls),
(44,585,o),
(44,661,qs),
(44,670,ls),
(44,696,o),
(70,696,qs),
(189,696,ls),
(268,696,o),
(268,620,qs),
(268,-68,ls),
(268,-144,o),
(189,-144,qs),
(70,-144,ls)
);
}
);
userData = {
assembly = "PUSHB[ ]	/* 7 values pushed */
15 14 2 3 2 1 76 
MPPEM[ ]	/* MeasurePixelPerEm */
PUSHB[ ]	/* 1 value pushed */
25 
LT[ ]	/* LessThan */
IF[ ]	/* If */
NPUSHB[ ]	/* 20 values pushed */
0 1 0 2 3 1 2 105 0 3 3 0 95 4 1 0 0 44 0 78 
ELSE[ ]	/* Else */
NPUSHB[ ]	/* 25 values pushed */
0 1 0 2 3 1 2 105 0 3 0 0 3 89 0 3 3 0 95 4 1 0 3 0 79 
EIF[ ]	/* EndIf */
NPUSHB[ ]	/* 15 values pushed */
1 0 19 17 12 10 7 4 0 23 1 22 5 9 22 
CALL[ ]	/* CallFunction */";
};
width = 313;
}
);
note = bracketright;
unicode = 93;
},
{
glyphname = asciicircum;
layers = (
{
layerId = m01;
shapes = (
{
closed = 1;
nodes = (
(144,259,o),
(131,259,qs),
(32,259,ls),
(26,259,o),
(21,268,o),
(23,273,q),
(171,542,ls),
(179,556,o),
(194,556,qs),
(209,556,ls),
(242,556,o),
(281,533,o),
(296,504,qs),
(428,273,ls),
(431,268,o),
(424,259,o),
(419,259,qs),
(319,259,ls),
(306,259,o),
(298,274,qs),
(226,417,l),
(151,274,ls)
);
}
);
userData = {
assembly = "PUSHB[ ]	/* 2 values pushed */
6 100 
WCVTP[ ]	/* WriteCVTInPixels */
NPUSHB[ ]	/* 16 values pushed */
0 1 0 1 133 2 1 0 0 118 52 54 34 3 9 25 
CALL[ ]	/* CallFunction */
PUSHB[ ]	/* 2 values pushed */
6 0 
WCVTP[ ]	/* WriteCVTInPixels */";
};
width = 449;
}
);
note = asciicircum;
unicode = 94;
},
{
glyphname = underscore;
layers = (
{
layerId = m01;
shapes = (
{
closed = 1;
nodes = (
(-6,-186,qs),
(-6,-94,ls),
(-6,-82,o),
(7,-82,qs),
(467,-82,ls),
(481,-82,o),
(481,-94,qs),
(481,-186,ls),
(481,-199,o),
(467,-199,qs),
(7,-199,ls),
(-6,-199,o)
);
}
);
userData = {
assembly = "PUSHB[ ]	/* 2 values pushed */
6 100 
WCVTP[ ]	/* WriteCVTInPixels */
NPUSHB[ ]	/* 28 values pushed */
0 1 0 0 1 87 0 1 1 0 95 2 1 0 1 0 79 2 0 8 5 0 11 2 11 3 9 22 
CALL[ ]	/* CallFunction */
PUSHB[ ]	/* 2 values pushed */
6 0 
WCVTP[ ]	/* WriteCVTInPixels */";
};
width = 474;
}
);
note = underscore;
unicode = 95;
},
{
glyphname = grave;
layers = (
{
layerId = m01;
shapes = (
{
closed = 1;
nodes = (
(3,543,o),
(10,543,qs),
(125,543,ls),
(142,543,o),
(155,532,qs),
(255,441,ls),
(260,437,o),
(256,426,o),
(249,426,qs),
(147,426,ls),
(125,426,o),
(111,438,qs),
(5,528,ls),
(0,532,o)
);
}
);
userData = {
assembly = "PUSHB[ ]	/* 2 values pushed */
6 100 
WCVTP[ ]	/* WriteCVTInPixels */
NPUSHB[ ]	/* 21 values pushed */
0 1 0 0 1 87 0 1 1 0 95 0 0 1 0 79 52 50 2 9 24 
CALL[ ]	/* CallFunction */
PUSHB[ ]	/* 2 values pushed */
6 0 
WCVTP[ ]	/* WriteCVTInPixels */";
};
width = 259;
}
);
note = grave;
unicode = 96;
},
{
glyphname = a;
kernLeft = a;
layers = (
{
layerId = m01;
shapes = (
{
closed = 1;
nodes = (
(201,-8,qs),
(122,-8,o),
(75,45,qs),
(24,101,o),
(24,196,qs),
(24,276,o),
(66,331,qs),
(116,397,o),
(203,397,qs),
(277,397,o),
(318,353,q),
(338,386,o),
(400,386,qs),
(417,386,ls),
(430,386,o),
(430,373,qs),
(430,13,ls),
(430,0,o),
(417,0,qs),
(310,0,ls),
(297,0,o),
(297,13,qs),
(297,28,l),
(258,-8,o)
);
},
{
closed = 1;
nodes = (
(297,158,o),
(297,195,qs),
(297,272,o),
(231,272,qs),
(198,272,o),
(161,231,o),
(161,195,qs),
(161,158,o),
(199,114,o),
(231,114,qs),
(262,114,o)
);
}
);
userData = {
assembly = "NPUSHB[ ]	/* 10 values pushed */
12 1 5 1 0 1 0 4 2 76 
MPPEM[ ]	/* MeasurePixelPerEm */
PUSHB[ ]	/* 1 value pushed */
17 
LT[ ]	/* LessThan */
IF[ ]	/* If */
NPUSHB[ ]	/* 24 values pushed */
0 5 5 1 97 2 1 1 1 42 77 6 1 4 4 0 97 3 1 0 0 40 0 78 
ELSE[ ]	/* Else */
MPPEM[ ]	/* MeasurePixelPerEm */
PUSHB[ ]	/* 1 value pushed */
23 
LT[ ]	/* LessThan */
IF[ ]	/* If */
NPUSHB[ ]	/* 28 values pushed */
0 1 1 42 77 0 5 5 2 97 0 2 2 48 77 6 1 4 4 0 97 3 1 0 0 40 0 78 
ELSE[ ]	/* Else */
NPUSHB[ ]	/* 32 values pushed */
0 1 1 42 77 0 5 5 2 97 0 2 2 48 77 0 0 0 40 77 6 1 4 4 3 97 0 3 3 46 3 78 
EIF[ ]	/* EndIf */
EIF[ ]	/* EndIf */
NPUSHB[ ]	/* 15 values pushed */
25 24 31 29 24 34 25 34 38 34 51 50 7 9 26 
CALL[ ]	/* CallFunction */";
};
width = 464;
}
);
note = a;
unicode = 97;
},
{
glyphname = b;
layers = (
{
layerId = m01;
shapes = (
{
closed = 1;
nodes = (
(304,157,o),
(304,195,qs),
(304,273,o),
(235,273,qs),
(168,273,o),
(168,195,qs),
(168,157,o),
(204,114,o),
(235,114,qs),
(267,114,o)
);
},
{
closed = 1;
nodes = (
(168,0,o),
(155,0,qs),
(49,0,ls),
(36,0,o),
(36,13,qs),
(36,542,ls),
(36,556,o),
(49,556,qs),
(72,556,ls),
(168,556,o),
(168,458,qs),
(168,357,l),
(207,398,o),
(268,398,qs),
(341,398,o),
(388,350,qs),
(442,295,o),
(442,196,qs),
(442,115,o),
(403,60,qs),
(355,-8,o),
(269,-8,qs),
(204,-8,o),
(168,33,q),
(168,13,ls)
);
}
);
userData = {
assembly = "MPPEM[ ]	/* MeasurePixelPerEm */
PUSHB[ ]	/* 1 value pushed */
23 
LT[ ]	/* LessThan */
IF[ ]	/* If */
NPUSHB[ ]	/* 10 values pushed */
22 1 1 3 10 1 2 0 2 76 
ELSE[ ]	/* Else */
NPUSHB[ ]	/* 10 values pushed */
22 1 1 3 10 1 5 0 2 76 
EIF[ ]	/* EndIf */
MPPEM[ ]	/* MeasurePixelPerEm */
PUSHB[ ]	/* 1 value pushed */
23 
LT[ ]	/* LessThan */
IF[ ]	/* If */
NPUSHB[ ]	/* 28 values pushed */
0 4 4 39 77 0 1 1 3 97 0 3 3 48 77 6 1 0 0 2 97 5 1 2 2 46 2 78 
ELSE[ ]	/* Else */
NPUSHB[ ]	/* 32 values pushed */
0 4 4 39 77 0 1 1 3 97 0 3 3 48 77 0 5 5 40 77 6 1 0 0 2 97 0 2 2 46 2 78 
EIF[ ]	/* EndIf */
NPUSHB[ ]	/* 19 values pushed */
1 0 33 30 27 24 21 19 13 11 6 4 0 9 1 9 7 9 22 
CALL[ ]	/* CallFunction */";
};
width = 464;
}
);
note = b;
unicode = 98;
},
{
glyphname = c;
kernLeft = c;
kernRight = c;
layers = (
{
layerId = m01;
shapes = (
{
closed = 1;
nodes = (
(82,38,qs),
(24,93,o),
(24,194,qs),
(24,281,o),
(73,336,qs),
(127,397,o),
(224,397,qs),
(270,397,o),
(306,384,qs),
(335,374,o),
(353,335,o),
(345,299,qs),
(335,261,ls),
(332,251,o),
(326,251,qs),
(322,251,o),
(315,254,qs),
(273,274,o),
(233,274,qs),
(200,274,o),
(161,229,o),
(161,191,qs),
(161,149,o),
(204,104,o),
(244,104,qs),
(291,104,o),
(325,129,qs),
(335,136,o),
(342,136,qs),
(357,136,o),
(357,117,qs),
(357,66,o),
(321,31,qs),
(280,-9,o),
(212,-9,qs),
(132,-9,o)
);
}
);
userData = {
assembly = "NPUSHB[ ]	/* 56 values pushed */
0 4 3 1 3 4 1 128 0 1 2 3 1 2 126 0 3 3 5 97 0 5 5 48 77 0 2 2 0 97 6 1 0 0 46 0 78 1 0 29 27 21 19 17 15 11 9 7 5 0 35 1 35 7 9 22 
CALL[ ]	/* CallFunction */";
};
width = 364;
}
);
note = c;
unicode = 99;
},
{
glyphname = d;
layers = (
{
layerId = m01;
shapes = (
{
closed = 1;
nodes = (
(297,157,o),
(297,195,qs),
(297,273,o),
(231,273,qs),
(161,273,o),
(161,195,qs),
(161,158,o),
(198,114,o),
(231,114,qs),
(261,114,o)
);
},
{
closed = 1;
nodes = (
(297,556,o),
(310,556,qs),
(333,556,ls),
(383,556,o),
(430,509,o),
(430,458,qs),
(430,13,ls),
(430,0,o),
(417,0,qs),
(310,0,ls),
(297,0,o),
(297,13,qs),
(297,31,l),
(258,-8,o),
(194,-8,qs),
(122,-8,o),
(75,46,qs),
(24,104,o),
(24,196,qs),
(24,275,o),
(66,330,qs),
(116,398,o),
(203,398,qs),
(264,398,o),
(297,363,q),
(297,542,ls)
);
}
);
userData = {
assembly = "MPPEM[ ]	/* MeasurePixelPerEm */
PUSHB[ ]	/* 1 value pushed */
23 
LT[ ]	/* LessThan */
IF[ ]	/* If */
NPUSHB[ ]	/* 10 values pushed */
10 1 1 2 22 1 3 0 2 76 
ELSE[ ]	/* Else */
NPUSHB[ ]	/* 10 values pushed */
10 1 1 2 22 1 4 0 2 76 
EIF[ ]	/* EndIf */
MPPEM[ ]	/* MeasurePixelPerEm */
PUSHB[ ]	/* 1 value pushed */
23 
LT[ ]	/* LessThan */
IF[ ]	/* If */
NPUSHB[ ]	/* 28 values pushed */
0 5 5 39 77 0 1 1 2 97 0 2 2 48 77 6 1 0 0 3 97 4 1 3 3 46 3 78 
ELSE[ ]	/* Else */
NPUSHB[ ]	/* 32 values pushed */
0 5 5 39 77 0 1 1 2 97 0 2 2 48 77 0 4 4 40 77 6 1 0 0 3 97 0 3 3 46 3 78 
EIF[ ]	/* EndIf */
NPUSHB[ ]	/* 19 values pushed */
1 0 34 31 27 24 21 19 13 11 6 4 0 9 1 9 7 9 22 
CALL[ ]	/* CallFunction */";
};
width = 464;
}
);
note = d;
unicode = 100;
},
{
glyphname = e;
kernLeft = e;
kernRight = e;
layers = (
{
layerId = m01;
shapes = (
{
closed = 1;
nodes = (
(273,260,o),
(243,291,o),
(216,291,qs),
(191,291,o),
(159,260,o),
(158,237,q),
(270,237,l)
);
},
{
closed = 1;
nodes = (
(211,94,o),
(246,94,qs),
(297,94,o),
(363,123,qs),
(374,128,o),
(380,128,qs),
(392,128,o),
(392,113,qs),
(392,73,o),
(361,39,qs),
(315,-10,o),
(224,-10,qs),
(139,-10,o),
(86,38,qs),
(24,93,o),
(24,193,qs),
(24,275,o),
(69,331,qs),
(124,397,o),
(220,397,qs),
(303,397,o),
(351,349,qs),
(400,300,o),
(400,222,qs),
(400,200,o),
(398,172,qs),
(398,167,ls),
(396,152,o),
(379,152,qs),
(159,152,l),
(164,126,o)
);
}
);
userData = {
assembly = "NPUSHB[ ]	/* 64 values pushed */
10 1 2 1 1 76 0 5 2 6 2 5 6 128 7 1 1 0 2 5 1 2 103 0 0 0 3 97 0 3 3 48 77 0 6 6 4 97 0 4 4 46 4 78 0 0 36 34 31 30 26 24 18 16 9 7 0 6 0 6 34 8 9 23 
CALL[ ]	/* CallFunction */";
};
width = 422;
}
);
note = e;
unicode = 101;
},
{
glyphname = f;
kernLeft = f;
layers = (
{
layerId = m01;
shapes = (
{
closed = 1;
nodes = (
(5,269,o),
(5,282,qs),
(5,373,ls),
(5,386,o),
(18,386,qs),
(69,386,l),
(69,402,ls),
(69,476,o),
(99,517,qs),
(132,561,o),
(196,561,qs),
(246,561,o),
(280,529,qs),
(316,496,o),
(316,452,qs),
(316,431,o),
(301,431,qs),
(298,431,o),
(294,433,qs),
(291,434,o),
(290,434,q),
(257,449,o),
(238,449,qs),
(217,449,o),
(202,425,o),
(202,392,qs),
(202,386,l),
(292,386,ls),
(305,386,o),
(305,373,qs),
(305,282,ls),
(305,269,o),
(292,269,qs),
(202,269,l),
(202,13,ls),
(202,0,o),
(189,0,qs),
(82,0,ls),
(69,0,o),
(69,13,qs),
(69,269,l),
(18,269,ls)
);
}
);
userData = {
assembly = "MPPEM[ ]	/* MeasurePixelPerEm */
PUSHB[ ]	/* 1 value pushed */
11 
LT[ ]	/* LessThan */
IF[ ]	/* If */
NPUSHB[ ]	/* 30 values pushed */
4 1 3 3 5 97 0 5 5 39 77 8 7 2 1 1 2 97 6 1 2 2 42 77 0 0 0 40 0 78 
ELSE[ ]	/* Else */
NPUSHB[ ]	/* 37 values pushed */
0 4 3 2 3 4 2 128 0 3 3 5 97 0 5 5 39 77 8 7 2 1 1 2 97 6 1 2 2 42 77 0 0 0 40 0 78 
EIF[ ]	/* EndIf */
NPUSHB[ ]	/* 16 values pushed */
0 0 0 41 0 40 36 36 36 35 35 34 50 9 9 29 
CALL[ ]	/* CallFunction */";
};
width = 326;
}
);
note = f;
unicode = 102;
},
{
glyphname = g;
layers = (
{
layerId = m01;
shapes = (
{
closed = 1;
nodes = (
(193,-53,qs),
(297,-53,o),
(297,20,qs),
(297,36,l),
(258,0,o),
(201,0,qs),
(122,0,o),
(75,49,qs),
(24,102,o),
(24,196,qs),
(24,276,o),
(66,331,qs),
(116,398,o),
(203,398,qs),
(274,398,o),
(318,356,q),
(341,386,o),
(397,386,qs),
(417,386,ls),
(430,386,o),
(430,373,qs),
(430,21,ls),
(430,-62,o),
(386,-111,qs),
(334,-171,o),
(229,-171,qs),
(154,-171,o),
(101,-130,qs),
(43,-85,o),
(43,-26,qs),
(43,-3,o),
(57,-3,qs),
(60,-3,o),
(66,-7,qs),
(70,-9,o),
(71,-10,qs),
(126,-53,o)
);
},
{
closed = 1;
nodes = (
(297,157,o),
(297,195,qs),
(297,273,o),
(231,273,qs),
(161,273,o),
(161,195,qs),
(161,158,o),
(198,114,o),
(231,114,qs),
(261,114,o)
);
}
);
userData = {
assembly = "NPUSHB[ ]	/* 10 values pushed */
20 1 7 2 32 1 4 6 2 76 
MPPEM[ ]	/* MeasurePixelPerEm */
PUSHB[ ]	/* 1 value pushed */
15 
LT[ ]	/* LessThan */
IF[ ]	/* If */
NPUSHB[ ]	/* 41 values pushed */
0 0 4 5 4 0 5 128 0 7 7 2 97 3 1 2 2 42 77 8 1 6 6 4 97 0 4 4 40 77 0 5 5 1 97 0 1 1 50 1 78 
ELSE[ ]	/* Else */
NPUSHB[ ]	/* 45 values pushed */
0 0 4 5 4 0 5 128 0 2 2 42 77 0 7 7 3 97 0 3 3 48 77 8 1 6 6 4 97 0 4 4 40 77 0 5 5 1 97 0 1 1 50 1 78 
EIF[ ]	/* EndIf */
NPUSHB[ ]	/* 17 values pushed */
38 37 43 41 37 46 38 46 35 38 34 53 36 35 9 9 28 
CALL[ ]	/* CallFunction */";
};
width = 464;
}
);
note = g;
unicode = 103;
},
{
glyphname = h;
layers = (
{
layerId = m01;
shapes = (
{
closed = 1;
nodes = (
(258,396,qs),
(322,396,o),
(362,359,qs),
(412,313,o),
(412,222,qs),
(412,13,ls),
(412,0,o),
(398,0,qs),
(292,0,ls),
(279,0,o),
(279,13,qs),
(279,201,ls),
(279,276,o),
(224,276,qs),
(168,276,o),
(168,207,qs),
(168,13,ls),
(168,0,o),
(155,0,qs),
(49,0,ls),
(36,0,o),
(36,13,qs),
(36,542,ls),
(36,556,o),
(49,556,qs),
(72,556,ls),
(122,556,o),
(168,509,o),
(168,458,qs),
(168,363,l),
(200,396,o)
);
}
);
userData = {
assembly = "NPUSHB[ ]	/* 36 values pushed */
0 1 2 4 1 76 0 0 0 39 77 0 2 2 4 97 0 4 4 48 77 3 1 1 1 40 1 78 37 51 35 51 51 5 9 27 
CALL[ ]	/* CallFunction */";
};
width = 446;
}
);
note = h;
unicode = 104;
},
{
glyphname = i;
kernLeft = i;
kernRight = i;
layers = (
{
layerId = m01;
shapes = (
{
closed = 1;
nodes = (
(35,386,o),
(48,386,qs),
(71,386,ls),
(121,386,o),
(168,339,o),
(168,288,qs),
(168,13,ls),
(168,0,o),
(154,0,qs),
(48,0,ls),
(35,0,o),
(35,13,qs),
(35,373,ls)
);
},
{
closed = 1;
nodes = (
(69,556,o),
(99,556,qs),
(128,556,o),
(170,514,o),
(170,484,qs),
(170,454,o),
(129,412,o),
(99,412,qs),
(69,412,o),
(27,454,o),
(27,484,qs),
(27,513,o)
);
}
);
userData = {
assembly = "NPUSHB[ ]	/* 28 values pushed */
0 2 2 3 97 0 3 3 39 77 0 1 1 42 77 0 0 0 40 0 78 36 36 52 49 4 9 26 
CALL[ ]	/* CallFunction */";
};
width = 204;
}
);
note = i;
unicode = 105;
},
{
glyphname = j;
layers = (
{
layerId = m01;
shapes = (
{
closed = 1;
nodes = (
(-68,-36,qs),
(-63,-36,o),
(-56,-40,qs),
(-29,-56,o),
(-5,-56,qs),
(18,-56,o),
(35,-30,o),
(35,3,qs),
(35,373,ls),
(35,386,o),
(48,386,qs),
(71,386,ls),
(121,386,o),
(167,339,o),
(167,288,qs),
(167,-17,ls),
(167,-89,o),
(135,-128,qs),
(101,-171,o),
(39,-171,qs),
(-13,-171,o),
(-47,-138,qs),
(-81,-106,o),
(-81,-61,qs),
(-81,-36,o)
);
},
{
closed = 1;
nodes = (
(69,556,o),
(98,556,qs),
(128,556,o),
(170,513,o),
(170,483,qs),
(170,454,o),
(128,413,o),
(98,413,qs),
(69,413,o),
(27,454,o),
(27,483,qs),
(27,513,o)
);
}
);
userData = {
assembly = "MPPEM[ ]	/* MeasurePixelPerEm */
PUSHB[ ]	/* 1 value pushed */
9 
LT[ ]	/* LessThan */
IF[ ]	/* If */
NPUSHB[ ]	/* 27 values pushed */
0 4 4 5 97 0 5 5 39 77 0 1 1 42 77 3 1 2 2 0 98 0 0 0 50 0 78 
ELSE[ ]	/* Else */
NPUSHB[ ]	/* 34 values pushed */
0 3 1 2 1 3 2 128 0 4 4 5 97 0 5 5 39 77 0 1 1 42 77 0 2 2 0 98 0 0 0 50 0 78 
EIF[ ]	/* EndIf */
NPUSHB[ ]	/* 9 values pushed */
36 35 34 36 54 35 6 9 28 
CALL[ ]	/* CallFunction */";
};
width = 204;
}
);
note = j;
unicode = 106;
},
{
glyphname = k;
layers = (
{
layerId = m01;
shapes = (
{
closed = 1;
nodes = (
(168,0,o),
(155,0,qs),
(49,0,ls),
(36,0,o),
(36,13,qs),
(36,542,ls),
(36,556,o),
(49,556,qs),
(72,556,ls),
(122,556,o),
(168,509,o),
(168,458,qs),
(168,283,l),
(247,373,ls),
(258,386,o),
(270,386,qs),
(394,386,ls),
(400,386,o),
(403,377,o),
(399,373,qs),
(282,243,l),
(410,13,l),
(416,0,o),
(403,0,qs),
(283,0,ls),
(266,0,o),
(259,13,qs),
(192,142,l),
(168,116,l),
(168,13,ls)
);
}
);
userData = {
assembly = "NPUSHB[ ]	/* 33 values pushed */
16 8 1 0 4 0 1 1 76 0 2 2 39 77 0 1 1 42 77 3 1 0 0 40 0 78 51 53 53 51 4 9 26 
CALL[ ]	/* CallFunction */";
};
width = 416;
}
);
note = k;
unicode = 107;
},
{
glyphname = l;
kernRight = l;
layers = (
{
layerId = m01;
shapes = (
{
closed = 1;
nodes = (
(73,21,qs),
(36,56,o),
(36,129,qs),
(36,542,ls),
(36,556,o),
(49,556,qs),
(72,556,ls),
(122,556,o),
(168,509,o),
(168,458,qs),
(168,144,ls),
(168,103,o),
(200,103,qs),
(218,103,o),
(240,120,qs),
(247,125,o),
(253,125,qs),
(265,125,o),
(265,106,qs),
(265,65,o),
(243,34,qs),
(212,-8,o),
(153,-8,qs),
(103,-8,o)
);
}
);
userData = {
assembly = "MPPEM[ ]	/* MeasurePixelPerEm */
PUSHB[ ]	/* 1 value pushed */
9 
LT[ ]	/* LessThan */
IF[ ]	/* If */
NPUSHB[ ]	/* 18 values pushed */
0 3 3 39 77 2 1 1 1 0 98 4 1 0 0 46 0 78 
ELSE[ ]	/* Else */
NPUSHB[ ]	/* 25 values pushed */
0 1 3 2 3 1 2 128 0 3 3 39 77 0 2 2 0 98 4 1 0 0 46 0 78 
EIF[ ]	/* EndIf */
NPUSHB[ ]	/* 15 values pushed */
1 0 18 15 11 9 6 5 0 23 1 23 5 9 22 
CALL[ ]	/* CallFunction */";
};
width = 261;
}
);
note = l;
unicode = 108;
},
{
glyphname = m;
layers = (
{
layerId = m01;
shapes = (
{
closed = 1;
nodes = (
(253,396,qs),
(339,396,o),
(372,331,q),
(421,396,o),
(494,396,qs),
(641,396,o),
(641,222,qs),
(641,13,ls),
(641,0,o),
(628,0,qs),
(523,0,ls),
(509,0,o),
(509,13,qs),
(509,205,ls),
(509,276,o),
(457,276,qs),
(404,276,o),
(404,203,qs),
(404,13,ls),
(404,0,o),
(392,0,qs),
(284,0,ls),
(273,0,o),
(273,13,qs),
(273,205,ls),
(273,276,o),
(220,276,qs),
(168,276,o),
(168,203,qs),
(168,13,ls),
(168,0,o),
(155,0,qs),
(49,0,ls),
(36,0,o),
(36,13,qs),
(36,373,ls),
(36,386,o),
(49,386,qs),
(67,386,ls),
(130,386,o),
(150,349,q),
(193,396,o)
);
}
);
userData = {
assembly = "PUSHB[ ]	/* 6 values pushed */
38 1 2 0 1 76 
MPPEM[ ]	/* MeasurePixelPerEm */
PUSHB[ ]	/* 1 value pushed */
19 
LT[ ]	/* LessThan */
IF[ ]	/* If */
NPUSHB[ ]	/* 21 values pushed */
4 1 2 2 0 97 7 6 2 0 0 42 77 5 3 2 1 1 40 1 78 
ELSE[ ]	/* Else */
NPUSHB[ ]	/* 25 values pushed */
0 0 0 42 77 4 1 2 2 6 97 7 1 6 6 48 77 5 3 2 1 1 40 1 78 
EIF[ ]	/* EndIf */
NPUSHB[ ]	/* 11 values pushed */
34 35 51 35 51 35 51 49 8 9 30 
CALL[ ]	/* CallFunction */";
};
width = 674;
}
);
note = m;
unicode = 109;
},
{
glyphname = n;
kernLeft = n;
kernRight = n;
layers = (
{
layerId = m01;
shapes = (
{
closed = 1;
nodes = (
(253,396,qs),
(322,396,o),
(363,359,qs),
(412,314,o),
(412,222,qs),
(412,13,ls),
(412,0,o),
(398,0,qs),
(292,0,ls),
(279,0,o),
(279,13,qs),
(279,202,ls),
(279,275,o),
(224,275,qs),
(168,275,o),
(168,207,qs),
(168,13,ls),
(168,0,o),
(155,0,qs),
(49,0,ls),
(36,0,o),
(36,13,qs),
(36,373,ls),
(36,386,o),
(49,386,qs),
(69,386,ls),
(131,386,o),
(152,349,q),
(196,396,o)
);
}
);
userData = {
assembly = "MPPEM[ ]	/* MeasurePixelPerEm */
PUSHB[ ]	/* 1 value pushed */
19 
LT[ ]	/* LessThan */
IF[ ]	/* If */
NPUSHB[ ]	/* 18 values pushed */
0 2 2 0 97 4 1 0 0 42 77 3 1 1 1 40 1 78 
ELSE[ ]	/* Else */
NPUSHB[ ]	/* 22 values pushed */
0 0 0 42 77 0 2 2 4 97 0 4 4 48 77 3 1 1 1 40 1 78 
EIF[ ]	/* EndIf */
PUSHB[ ]	/* 8 values pushed */
37 51 35 51 49 5 9 27 
CALL[ ]	/* CallFunction */";
};
width = 446;
}
);
note = n;
unicode = 110;
},
{
glyphname = o;
kernLeft = o;
kernRight = o;
layers = (
{
layerId = m01;
shapes = (
{
closed = 1;
nodes = (
(292,193,qs),
(292,278,o),
(226,278,qs),
(159,278,o),
(159,193,qs),
(159,109,o),
(225,109,qs),
(292,109,o)
);
},
{
closed = 1;
nodes = (
(86,40,qs),
(24,96,o),
(24,195,qs),
(24,280,o),
(71,334,qs),
(126,397,o),
(225,397,qs),
(311,397,o),
(365,348,qs),
(427,292,o),
(427,194,qs),
(427,108,o),
(380,54,qs),
(326,-9,o),
(227,-9,qs),
(140,-9,o)
);
}
);
userData = {
assembly = "NPUSHB[ ]	/* 42 values pushed */
0 1 1 3 97 0 3 3 48 77 4 1 0 0 2 97 5 1 2 2 46 2 78 9 8 1 0 17 15 8 23 9 23 5 3 0 7 1 7 6 9 22 
CALL[ ]	/* CallFunction */";
};
width = 452;
}
);
note = o;
unicode = 111;
},
{
glyphname = p;
layers = (
{
layerId = m01;
shapes = (
{
closed = 1;
nodes = (
(168,-160,o),
(155,-160,qs),
(49,-160,ls),
(36,-160,o),
(36,-147,qs),
(36,373,ls),
(36,386,o),
(49,386,qs),
(67,386,ls),
(126,386,o),
(149,352,q),
(196,397,o),
(260,397,qs),
(343,397,o),
(391,345,qs),
(442,291,o),
(442,196,qs),
(442,114,o),
(402,60,qs),
(354,-8,o),
(264,-8,qs),
(201,-8,o),
(168,27,q),
(168,-147,ls)
);
},
{
closed = 1;
nodes = (
(304,157,o),
(304,195,qs),
(304,273,o),
(235,273,qs),
(168,273,o),
(168,195,qs),
(168,157,o),
(204,114,o),
(235,114,qs),
(267,114,o)
);
}
);
userData = {
assembly = "MPPEM[ ]	/* MeasurePixelPerEm */
PUSHB[ ]	/* 1 value pushed */
17 
LT[ ]	/* LessThan */
IF[ ]	/* If */
NPUSHB[ ]	/* 10 values pushed */
12 1 5 1 0 1 0 4 2 76 
ELSE[ ]	/* Else */
NPUSHB[ ]	/* 10 values pushed */
12 1 5 2 0 1 0 4 2 76 
EIF[ ]	/* EndIf */
MPPEM[ ]	/* MeasurePixelPerEm */
PUSHB[ ]	/* 1 value pushed */
17 
LT[ ]	/* LessThan */
IF[ ]	/* If */
NPUSHB[ ]	/* 28 values pushed */
0 5 5 1 97 2 1 1 1 48 77 6 1 4 4 0 97 0 0 0 46 77 0 3 3 44 3 78 
ELSE[ ]	/* Else */
NPUSHB[ ]	/* 32 values pushed */
0 2 2 42 77 0 5 5 1 97 0 1 1 48 77 6 1 4 4 0 97 0 0 0 46 77 0 3 3 44 3 78 
EIF[ ]	/* EndIf */
NPUSHB[ ]	/* 15 values pushed */
25 24 30 28 24 33 25 33 51 50 38 33 7 9 26 
CALL[ ]	/* CallFunction */";
};
width = 464;
}
);
note = p;
unicode = 112;
},
{
glyphname = q;
layers = (
{
layerId = m01;
shapes = (
{
closed = 1;
nodes = (
(201,-8,qs),
(122,-8,o),
(75,45,qs),
(24,101,o),
(24,196,qs),
(24,276,o),
(66,331,qs),
(116,398,o),
(203,398,qs),
(271,398,o),
(319,354,q),
(340,386,o),
(398,386,qs),
(417,386,ls),
(430,386,o),
(430,373,qs),
(430,-147,ls),
(430,-160,o),
(417,-160,qs),
(310,-160,ls),
(297,-160,o),
(297,-147,qs),
(297,25,l),
(258,-8,o)
);
},
{
closed = 1;
nodes = (
(297,157,o),
(297,195,qs),
(297,273,o),
(231,273,qs),
(161,273,o),
(161,195,qs),
(161,158,o),
(198,114,o),
(231,114,qs),
(261,114,o)
);
}
);
userData = {
assembly = "NPUSHB[ ]	/* 10 values pushed */
12 1 5 1 0 1 3 4 2 76 
MPPEM[ ]	/* MeasurePixelPerEm */
PUSHB[ ]	/* 1 value pushed */
15 
LT[ ]	/* LessThan */
IF[ ]	/* If */
NPUSHB[ ]	/* 28 values pushed */
0 5 5 1 97 2 1 1 1 42 77 6 1 4 4 3 97 0 3 3 46 77 0 0 0 44 0 78 
ELSE[ ]	/* Else */
NPUSHB[ ]	/* 32 values pushed */
0 1 1 42 77 0 5 5 2 97 0 2 2 48 77 6 1 4 4 3 97 0 3 3 46 77 0 0 0 44 0 78 
EIF[ ]	/* EndIf */
NPUSHB[ ]	/* 15 values pushed */
25 24 30 28 24 33 25 33 38 34 51 50 7 9 26 
CALL[ ]	/* CallFunction */";
};
width = 464;
}
);
note = q;
unicode = 113;
},
{
glyphname = r;
kernLeft = r;
layers = (
{
layerId = m01;
shapes = (
{
closed = 1;
nodes = (
(208,386,o),
(247,386,qs),
(274,386,ls),
(285,386,o),
(285,373,qs),
(285,277,ls),
(285,264,o),
(274,264,qs),
(250,264,ls),
(201,264,o),
(183,245,qs),
(168,227,o),
(168,170,qs),
(168,13,ls),
(168,0,o),
(155,0,qs),
(49,0,ls),
(36,0,o),
(36,13,qs),
(36,373,ls),
(36,386,o),
(49,386,qs),
(67,386,ls),
(130,386,o),
(152,346,q),
(167,368,o)
);
}
);
userData = {
assembly = "NPUSHB[ ]	/* 24 values pushed */
0 2 2 0 97 3 1 0 0 42 77 0 1 1 40 1 78 51 53 51 49 4 9 26 
CALL[ ]	/* CallFunction */";
};
width = 301;
}
);
note = r;
unicode = 114;
},
{
glyphname = s;
kernLeft = s;
kernRight = s;
layers = (
{
layerId = m01;
shapes = (
{
closed = 1;
nodes = (
(26,138,qs),
(30,138,o),
(41,131,qs),
(45,129,o),
(46,128,qs),
(96,96,o),
(150,96,qs),
(188,96,o),
(188,117,qs),
(188,130,o),
(145,145,qs),
(75,169,o),
(23,223,o),
(23,270,qs),
(23,329,o),
(65,363,qs),
(106,397,o),
(172,397,qs),
(228,397,o),
(267,381,qs),
(297,367,o),
(315,329,o),
(305,296,qs),
(298,273,ls),
(295,265,o),
(289,265,qs),
(285,265,o),
(278,268,qs),
(276,269,o),
(275,269,q),
(225,290,o),
(183,290,qs),
(157,290,o),
(157,274,qs),
(157,260,o),
(200,245,qs),
(272,219,o),
(322,170,o),
(322,125,qs),
(322,69,o),
(286,33,qs),
(244,-10,o),
(172,-10,qs),
(110,-10,o),
(64,23,qs),
(11,61,o),
(11,116,qs),
(11,138,o)
);
}
);
userData = {
assembly = "NPUSHB[ ]	/* 45 values pushed */
0 2 1 5 1 2 5 128 0 5 4 1 5 4 126 0 1 1 3 97 0 3 3 48 77 0 4 4 0 97 0 0 0 46 0 78 36 41 38 36 41 35 6 9 28 
CALL[ ]	/* CallFunction */";
};
width = 333;
}
);
note = s;
unicode = 115;
},
{
glyphname = t;
layers = (
{
layerId = m01;
shapes = (
{
closed = 1;
nodes = (
(7,269,o),
(7,282,qs),
(7,373,ls),
(7,386,o),
(20,386,qs),
(83,386,l),
(83,506,ls),
(83,518,o),
(95,518,qs),
(118,518,ls),
(168,518,o),
(215,472,o),
(215,422,qs),
(215,386,l),
(293,386,ls),
(305,386,o),
(305,373,qs),
(305,282,ls),
(305,269,o),
(293,269,qs),
(215,269,l),
(215,13,ls),
(215,0,o),
(201,0,qs),
(95,0,ls),
(83,0,o),
(83,13,qs),
(83,269,l),
(20,269,ls)
);
}
);
userData = {
assembly = "NPUSHB[ ]	/* 38 values pushed */
6 5 2 1 1 2 95 4 1 2 2 42 77 0 3 3 0 95 0 0 0 40 0 78 0 0 0 28 0 27 34 51 35 34 50 7 9 27 
CALL[ ]	/* CallFunction */";
};
width = 319;
}
);
note = t;
unicode = 116;
},
{
glyphname = u;
kernLeft = u;
kernRight = u;
layers = (
{
layerId = m01;
shapes = (
{
closed = 1;
nodes = (
(35,194,qs),
(35,373,ls),
(35,386,o),
(48,386,qs),
(71,386,ls),
(121,386,o),
(167,339,o),
(167,288,qs),
(167,175,ls),
(167,108,o),
(222,108,qs),
(278,108,o),
(278,174,qs),
(278,373,ls),
(278,386,o),
(291,386,qs),
(314,386,ls),
(364,386,o),
(411,339,o),
(411,288,qs),
(411,188,ls),
(411,-9,o),
(222,-9,qs),
(35,-9,o)
);
}
);
userData = {
assembly = "NPUSHB[ ]	/* 33 values pushed */
3 1 1 1 42 77 0 2 2 0 98 4 1 0 0 46 0 78 1 0 20 17 13 11 8 5 0 23 1 23 5 9 22 
CALL[ ]	/* CallFunction */";
};
width = 446;
}
);
note = u;
unicode = 117;
},
{
glyphname = v;
layers = (
{
layerId = m01;
shapes = (
{
closed = 1;
nodes = (
(280,386,o),
(292,386,qs),
(402,386,ls),
(415,386,o),
(411,373,qs),
(287,13,ls),
(283,0,o),
(271,0,qs),
(147,0,ls),
(133,0,o),
(129,13,qs),
(7,373,ls),
(2,386,o),
(14,386,qs),
(52,386,ls),
(104,386,o),
(152,346,o),
(169,288,qs),
(210,148,l),
(277,373,ls)
);
}
);
userData = {
assembly = "NPUSHB[ ]	/* 18 values pushed */
2 1 0 0 42 77 0 1 1 40 1 78 51 51 51 3 9 25 
CALL[ ]	/* CallFunction */";
};
width = 409;
}
);
note = v;
unicode = 118;
},
{
glyphname = w;
layers = (
{
layerId = m01;
shapes = (
{
closed = 1;
nodes = (
(248,386,o),
(263,386,qs),
(281,386,ls),
(333,386,o),
(358,369,qs),
(391,349,o),
(405,288,qs),
(431,174,l),
(483,373,ls),
(486,386,o),
(500,386,qs),
(597,386,ls),
(609,386,o),
(605,373,qs),
(500,13,ls),
(496,0,o),
(483,0,qs),
(379,0,ls),
(365,0,o),
(362,13,qs),
(310,204,l),
(261,13,ls),
(258,0,o),
(245,0,qs),
(138,0,ls),
(124,0,o),
(120,13,qs),
(8,373,ls),
(4,386,o),
(17,386,qs),
(53,386,ls),
(107,386,o),
(154,346,o),
(168,288,qs),
(195,179,l),
(245,373,ls)
);
}
);
userData = {
assembly = "NPUSHB[ ]	/* 29 values pushed */
27 14 2 1 0 1 76 4 3 2 0 0 42 77 2 1 1 1 40 1 78 54 51 52 51 51 5 9 27 
CALL[ ]	/* CallFunction */";
};
width = 607;
}
);
note = w;
unicode = 119;
},
{
glyphname = x;
layers = (
{
layerId = m01;
shapes = (
{
closed = 1;
nodes = (
(136,0,o),
(123,0,qs),
(13,0,ls),
(8,0,o),
(5,8,o),
(8,13,qs),
(125,202,l),
(18,373,ls),
(15,378,o),
(19,386,o),
(25,386,qs),
(85,386,ls),
(127,386,o),
(165,361,o),
(195,314,qs),
(207,294,l),
(257,373,ls),
(266,386,o),
(280,386,qs),
(383,386,ls),
(397,386,o),
(390,373,qs),
(290,209,l),
(411,13,ls),
(414,8,o),
(409,0,o),
(404,0,qs),
(293,0,ls),
(278,0,o),
(270,13,qs),
(207,118,l),
(145,13,l)
);
}
);
userData = {
assembly = "NPUSHB[ ]	/* 28 values pushed */
24 15 8 3 0 1 1 76 2 1 1 1 42 77 3 1 0 0 40 0 78 55 37 54 34 4 9 26 
CALL[ ]	/* CallFunction */";
};
width = 418;
}
);
note = x;
unicode = 120;
},
{
glyphname = y;
kernLeft = y;
kernRight = y;
layers = (
{
layerId = m01;
shapes = (
{
closed = 1;
nodes = (
(1,377,o),
(5,386,o),
(10,386,qs),
(51,386,ls),
(102,386,o),
(148,347,o),
(168,288,qs),
(212,162,l),
(283,373,ls),
(288,386,o),
(299,386,qs),
(405,386,ls),
(416,386,o),
(413,373,q),
(277,-9,ls),
(242,-103,o),
(174,-171,o),
(114,-171,qs),
(63,-171,o),
(30,-140,qs),
(-4,-107,o),
(-4,-59,qs),
(-4,-37,o),
(12,-37,qs),
(17,-37,o),
(21,-40,qs),
(51,-59,o),
(74,-59,qs),
(119,-59,o),
(142,-5,q),
(3,373,ls)
);
}
);
userData = {
assembly = "MPPEM[ ]	/* MeasurePixelPerEm */
PUSHB[ ]	/* 1 value pushed */
9 
LT[ ]	/* LessThan */
IF[ ]	/* If */
PUSHB[ ]	/* 6 values pushed */
22 1 0 3 1 76 
ELSE[ ]	/* Else */
PUSHB[ ]	/* 6 values pushed */
22 1 1 3 1 76 
EIF[ ]	/* EndIf */
MPPEM[ ]	/* MeasurePixelPerEm */
PUSHB[ ]	/* 1 value pushed */
9 
LT[ ]	/* LessThan */
IF[ ]	/* If */
NPUSHB[ ]	/* 18 values pushed */
4 1 3 3 42 77 1 1 0 0 2 98 0 2 2 50 2 78 
ELSE[ ]	/* Else */
NPUSHB[ ]	/* 25 values pushed */
0 1 3 0 3 1 0 128 4 1 3 3 42 77 0 0 0 2 98 0 2 2 50 2 78 
EIF[ ]	/* EndIf */
PUSHB[ ]	/* 8 values pushed */
37 52 36 34 33 5 9 27 
CALL[ ]	/* CallFunction */";
};
width = 416;
}
);
note = y;
unicode = 121;
},
{
glyphname = z;
kernLeft = z;
kernRight = z;
layers = (
{
layerId = m01;
shapes = (
{
closed = 1;
nodes = (
(342,116,o),
(342,103,qs),
(342,13,ls),
(342,0,o),
(329,0,qs),
(32,0,ls),
(19,0,o),
(19,13,qs),
(19,71,ls),
(19,91,o),
(32,106,qs),
(168,269,l),
(39,269,ls),
(26,269,o),
(26,282,qs),
(26,373,ls),
(26,386,o),
(39,386,qs),
(266,386,ls),
(305,386,o),
(336,353,o),
(336,313,qs),
(336,286,o),
(320,267,qs),
(195,116,l),
(329,116,ls)
);
}
);
userData = {
assembly = "NPUSHB[ ]	/* 34 values pushed */
0 1 1 0 95 0 0 0 42 77 4 1 3 3 2 95 0 2 2 40 2 78 0 0 0 25 0 24 53 35 53 5 9 25 
CALL[ ]	/* CallFunction */";
};
width = 361;
}
);
note = z;
unicode = 122;
},
{
glyphname = braceleft;
layers = (
{
layerId = m01;
shapes = (
{
closed = 1;
nodes = (
(98,-144,o),
(98,-68,qs),
(98,151,ls),
(98,215,o),
(57,223,qs),
(39,227,o),
(39,245,qs),
(39,308,ls),
(39,326,o),
(57,328,qs),
(98,336,o),
(98,402,qs),
(98,620,ls),
(98,696,o),
(177,696,qs),
(296,696,ls),
(322,696,o),
(322,670,qs),
(322,661,ls),
(322,585,o),
(242,585,qs),
(221,585,ls),
(216,585,o),
(216,581,qs),
(216,394,ls),
(216,311,o),
(176,276,q),
(216,243,o),
(216,157,qs),
(216,-29,ls),
(216,-33,o),
(221,-33,qs),
(242,-33,ls),
(322,-33,o),
(322,-109,qs),
(322,-118,ls),
(322,-144,o),
(296,-144,qs),
(177,-144,ls)
);
}
);
userData = {
assembly = "PUSHB[ ]	/* 8 values pushed */
14 11 8 3 1 2 1 76 
MPPEM[ ]	/* MeasurePixelPerEm */
PUSHB[ ]	/* 1 value pushed */
25 
LT[ ]	/* LessThan */
IF[ ]	/* If */
NPUSHB[ ]	/* 20 values pushed */
0 3 0 2 1 3 2 105 0 1 1 0 95 4 1 0 0 44 0 78 
ELSE[ ]	/* Else */
NPUSHB[ ]	/* 25 values pushed */
0 3 0 2 1 3 2 105 0 1 0 0 1 89 0 1 1 0 95 4 1 0 1 0 79 
EIF[ ]	/* EndIf */
NPUSHB[ ]	/* 15 values pushed */
1 0 24 21 18 16 6 4 0 38 1 37 5 9 22 
CALL[ ]	/* CallFunction */";
};
width = 366;
}
);
note = braceleft;
unicode = 123;
},
{
glyphname = bar;
layers = (
{
layerId = m01;
shapes = (
{
closed = 1;
nodes = (
(45,566,o),
(58,566,qs),
(76,566,ls),
(163,566,o),
(163,468,qs),
(163,-136,ls),
(163,-149,o),
(150,-149,qs),
(58,-149,ls),
(45,-149,o),
(45,-136,qs),
(45,553,ls)
);
}
);
userData = {
assembly = "MPPEM[ ]	/* MeasurePixelPerEm */
PUSHB[ ]	/* 1 value pushed */
35 
LT[ ]	/* LessThan */
IF[ ]	/* If */
NPUSHB[ ]	/* 11 values pushed */
0 1 1 39 77 0 0 0 44 0 78 
ELSE[ ]	/* Else */
MPPEM[ ]	/* MeasurePixelPerEm */
PUSHB[ ]	/* 1 value pushed */
40 
LT[ ]	/* LessThan */
IF[ ]	/* If */
NPUSHB[ ]	/* 11 values pushed */
0 0 0 1 97 0 1 1 39 0 78 
ELSE[ ]	/* Else */
NPUSHB[ ]	/* 16 values pushed */
0 1 0 0 1 89 0 1 1 0 95 0 0 1 0 79 
EIF[ ]	/* EndIf */
EIF[ ]	/* EndIf */
PUSHB[ ]	/* 5 values pushed */
51 49 2 9 24 
CALL[ ]	/* CallFunction */";
};
width = 208;
}
);
note = bar;
unicode = 124;
},
{
glyphname = braceright;
layers = (
{
layerId = m01;
shapes = (
{
closed = 1;
nodes = (
(44,-144,o),
(44,-118,qs),
(44,-109,ls),
(44,-33,o),
(123,-33,qs),
(145,-33,ls),
(150,-33,o),
(150,-29,qs),
(150,157,ls),
(150,243,o),
(190,276,q),
(150,311,o),
(150,394,qs),
(150,581,ls),
(150,585,o),
(145,585,qs),
(123,585,ls),
(44,585,o),
(44,661,qs),
(44,670,ls),
(44,696,o),
(70,696,qs),
(189,696,ls),
(268,696,o),
(268,620,qs),
(268,402,ls),
(268,336,o),
(309,328,qs),
(327,326,o),
(327,308,qs),
(327,245,ls),
(327,227,o),
(309,223,qs),
(268,215,o),
(268,151,qs),
(268,-68,ls),
(268,-144,o),
(189,-144,qs),
(70,-144,ls)
);
}
);
userData = {
assembly = "PUSHB[ ]	/* 8 values pushed */
30 27 24 3 3 2 1 76 
MPPEM[ ]	/* MeasurePixelPerEm */
PUSHB[ ]	/* 1 value pushed */
25 
LT[ ]	/* LessThan */
IF[ ]	/* If */
NPUSHB[ ]	/* 20 values pushed */
0 1 0 2 3 1 2 105 0 3 3 0 95 4 1 0 0 44 0 78 
ELSE[ ]	/* Else */
NPUSHB[ ]	/* 25 values pushed */
0 1 0 2 3 1 2 105 0 3 0 0 3 89 0 3 3 0 95 4 1 0 3 0 79 
EIF[ ]	/* EndIf */
NPUSHB[ ]	/* 15 values pushed */
1 0 34 32 22 20 17 14 0 38 1 37 5 9 22 
CALL[ ]	/* CallFunction */";
};
width = 366;
}
);
note = braceright;
unicode = 125;
},
{
glyphname = asciitilde;
layers = (
{
layerId = m01;
shapes = (
{
closed = 1;
nodes = (
(35,216,o),
(35,222,qs),
(35,307,ls),
(35,326,o),
(45,336,qs),
(82,369,o),
(136,369,qs),
(174,369,o),
(230,348,qs),
(298,323,o),
(326,323,qs),
(378,323,o),
(412,359,qs),
(416,363,o),
(423,361,o),
(423,356,qs),
(423,271,ls),
(423,250,o),
(413,242,qs),
(376,208,o),
(326,208,qs),
(286,208,o),
(231,229,qs),
(164,254,o),
(136,254,qs),
(81,254,o),
(46,218,q),
(43,214,o)
);
}
);
userData = {
assembly = "PUSHB[ ]	/* 2 values pushed */
6 100 
WCVTP[ ]	/* WriteCVTInPixels */
NPUSHB[ ]	/* 41 values pushed */
11 1 2 3 25 1 1 0 2 76 0 2 0 1 2 89 0 3 0 0 1 3 0 105 0 2 2 1 97 0 1 2 1 81 34 40 34 33 4 9 26 
CALL[ ]	/* CallFunction */
PUSHB[ ]	/* 2 values pushed */
6 0 
WCVTP[ ]	/* WriteCVTInPixels */";
};
width = 457;
}
);
note = asciitilde;
unicode = 126;
},
{
glyphname = exclamdown;
layers = (
{
layerId = m01;
shapes = (
{
closed = 1;
nodes = (
(28,286,o),
(28,319,qs),
(28,353,o),
(71,397,o),
(103,397,qs),
(137,397,o),
(182,352,o),
(182,319,qs),
(182,286,o),
(137,242,o),
(103,242,qs),
(71,242,o)
);
},
{
closed = 1;
nodes = (
(50,221,o),
(63,221,qs),
(81,221,ls),
(162,221,o),
(166,120,qs),
(176,-159,ls),
(176,-172,o),
(163,-172,qs),
(51,-172,ls),
(38,-172,o),
(38,-159,qs),
(50,208,ls)
);
}
);
userData = {
assembly = "MPPEM[ ]	/* MeasurePixelPerEm */
PUSHB[ ]	/* 1 value pushed */
33 
LT[ ]	/* LessThan */
IF[ ]	/* If */
NPUSHB[ ]	/* 22 values pushed */
4 1 0 0 1 97 0 1 1 48 77 0 3 3 2 95 0 2 2 44 2 78 
ELSE[ ]	/* Else */
NPUSHB[ ]	/* 19 values pushed */
0 3 0 2 3 2 99 4 1 0 0 1 97 0 1 1 48 0 78 
EIF[ ]	/* EndIf */
NPUSHB[ ]	/* 15 values pushed */
1 0 22 19 16 13 7 5 0 11 1 11 5 9 22 
CALL[ ]	/* CallFunction */";
};
width = 217;
}
);
note = exclamdown;
unicode = 161;
},
{
glyphname = cent;
layers = (
{
layerId = m01;
shapes = (
{
closed = 1;
nodes = (
(276,-65,o),
(264,-65,qs),
(215,-65,ls),
(202,-65,o),
(202,-52,qs),
(202,-8,l),
(128,-3,o),
(80,44,qs),
(24,99,o),
(24,194,qs),
(24,276,o),
(67,329,qs),
(115,388,o),
(202,396,q),
(202,452,ls),
(202,463,o),
(215,463,qs),
(264,463,ls),
(276,463,o),
(276,452,qs),
(276,393,l),
(285,391,o),
(300,386,qs),
(306,384,ls),
(363,365,o),
(345,299,qs),
(336,268,ls),
(333,258,o),
(327,258,qs),
(322,258,o),
(316,261,qs),
(292,272,o),
(276,276,q),
(276,103,l),
(304,109,o),
(325,124,qs),
(335,131,o),
(342,131,qs),
(357,131,o),
(357,112,qs),
(357,72,o),
(314,13,o),
(276,0,q),
(276,-52,ls)
);
},
{
closed = 1;
nodes = (
(153,257,o),
(153,191,qs),
(153,126,o),
(202,106,q),
(202,276,l)
);
}
);
userData = {
assembly = "NPUSHB[ ]	/* 51 values pushed */
48 29 22 10 4 1 2 44 9 0 3 3 0 2 76 0 1 2 0 2 1 0 128 0 0 3 2 0 3 126 0 2 0 4 2 4 101 0 3 3 46 3 78 50 25 57 39 36 5 9 27 
CALL[ ]	/* CallFunction */";
};
width = 368;
}
);
note = cent;
unicode = 162;
},
{
glyphname = sterling;
layers = (
{
layerId = m01;
shapes = (
{
closed = 1;
nodes = (
(32,223,o),
(32,236,qs),
(32,333,ls),
(32,346,o),
(45,346,qs),
(91,346,l),
(81,373,o),
(81,404,qs),
(81,481,o),
(129,522,qs),
(179,566,o),
(275,566,qs),
(326,566,o),
(368,553,qs),
(438,532,o),
(438,484,qs),
(438,474,o),
(431,452,qs),
(423,423,l),
(419,414,o),
(413,414,qs),
(408,414,o),
(398,419,qs),
(332,451,o),
(276,451,qs),
(218,451,o),
(218,398,qs),
(218,381,o),
(230,346,q),
(323,346,ls),
(393,346,o),
(393,279,qs),
(393,240,ls),
(393,223,o),
(376,223,qs),
(274,223,l),
(275,216,o),
(274,203,qs),
(274,198,o),
(274,196,qs),
(274,160,o),
(261,123,q),
(369,123,ls),
(439,123,o),
(439,57,qs),
(439,17,ls),
(439,0,o),
(423,0,qs),
(45,0,ls),
(32,0,o),
(32,13,qs),
(32,110,ls),
(32,123,o),
(45,123,qs),
(129,123,l),
(144,169,o),
(144,196,qs),
(144,212,o),
(141,223,q),
(45,223,ls)
);
}
);
userData = {
assembly = "PUSHB[ ]	/* 6 values pushed */
21 1 0 3 1 76 
MPPEM[ ]	/* MeasurePixelPerEm */
PUSHB[ ]	/* 1 value pushed */
40 
LT[ ]	/* LessThan */
IF[ ]	/* If */
NPUSHB[ ]	/* 41 values pushed */
0 6 5 4 5 6 4 128 8 1 4 10 9 2 3 0 4 3 103 0 5 5 7 97 0 7 7 39 77 2 1 0 0 1 95 0 1 1 40 1 78 
ELSE[ ]	/* Else */
NPUSHB[ ]	/* 39 values pushed */
0 6 5 4 5 6 4 128 0 7 0 5 6 7 5 105 8 1 4 10 9 2 3 0 4 3 103 2 1 0 0 1 95 0 1 1 40 1 78 
EIF[ ]	/* EndIf */
NPUSHB[ ]	/* 18 values pushed */
0 0 0 59 0 58 37 39 34 35 35 38 35 51 36 11 9 31 
CALL[ ]	/* CallFunction */";
};
width = 467;
}
);
note = sterling;
unicode = 163;
},
{
glyphname = yen;
layers = (
{
layerId = m01;
shapes = (
{
closed = 1;
nodes = (
(46,114,o),
(46,127,qs),
(46,200,ls),
(46,213,o),
(58,213,qs),
(181,213,l),
(160,252,l),
(58,252,ls),
(46,252,o),
(46,264,qs),
(46,337,ls),
(46,349,o),
(58,349,qs),
(108,349,l),
(7,542,l),
(1,556,o),
(15,556,qs),
(85,556,ls),
(153,556,o),
(183,494,qs),
(257,349,l),
(261,349,l),
(358,542,ls),
(364,556,o),
(378,556,qs),
(495,556,ls),
(501,556,o),
(506,547,o),
(503,542,qs),
(401,349,l),
(450,349,ls),
(463,349,o),
(463,337,qs),
(463,264,ls),
(463,252,o),
(450,252,qs),
(349,252,l),
(328,213,l),
(450,213,ls),
(463,213,o),
(463,200,qs),
(463,127,ls),
(463,114,o),
(450,114,qs),
(321,114,l),
(321,13,ls),
(321,0,o),
(308,0,qs),
(200,0,ls),
(186,0,o),
(186,13,qs),
(186,114,l),
(58,114,ls)
);
}
);
userData = {
assembly = "NPUSHB[ ]	/* 58 values pushed */
30 1 4 1 75 7 1 4 8 1 3 2 4 3 104 9 1 2 11 10 2 1 0 2 1 103 6 1 5 5 39 77 0 0 0 40 0 78 0 0 0 52 0 51 48 46 35 34 53 51 35 33 35 34 50 12 9 31 
CALL[ ]	/* CallFunction */";
};
width = 501;
}
);
note = yen;
unicode = 165;
},
{
glyphname = brokenbar;
layers = (
{
layerId = m01;
shapes = (
{
closed = 1;
nodes = (
(45,566,o),
(58,566,qs),
(76,566,ls),
(163,566,o),
(163,468,qs),
(163,258,ls),
(163,245,o),
(150,245,qs),
(58,245,ls),
(45,245,o),
(45,258,qs),
(45,553,ls)
);
},
{
closed = 1;
nodes = (
(45,173,o),
(58,173,qs),
(150,173,ls),
(163,173,o),
(163,160,qs),
(163,-136,ls),
(163,-149,o),
(150,-149,qs),
(58,-149,ls),
(45,-149,o),
(45,-136,qs),
(45,160,ls)
);
}
);
userData = {
assembly = "MPPEM[ ]	/* MeasurePixelPerEm */
PUSHB[ ]	/* 1 value pushed */
35 
LT[ ]	/* LessThan */
IF[ ]	/* If */
NPUSHB[ ]	/* 21 values pushed */
0 0 0 1 97 0 1 1 39 77 0 3 3 2 95 0 2 2 44 2 78 
ELSE[ ]	/* Else */
MPPEM[ ]	/* MeasurePixelPerEm */
PUSHB[ ]	/* 1 value pushed */
40 
LT[ ]	/* LessThan */
IF[ ]	/* If */
NPUSHB[ ]	/* 18 values pushed */
0 3 0 2 3 2 99 0 0 0 1 97 0 1 1 39 0 78 
ELSE[ ]	/* Else */
NPUSHB[ ]	/* 24 values pushed */
0 1 0 0 3 1 0 103 0 3 2 2 3 87 0 3 3 2 95 0 2 3 2 79 
EIF[ ]	/* EndIf */
EIF[ ]	/* EndIf */
PUSHB[ ]	/* 7 values pushed */
51 51 51 49 4 9 26 
CALL[ ]	/* CallFunction */";
};
width = 208;
}
);
note = brokenbar;
unicode = 166;
},
{
glyphname = section;
layers = (
{
layerId = m01;
shapes = (
{
closed = 1;
nodes = (
(185,1,o),
(217,1,qs),
(268,1,o),
(268,36,qs),
(268,51,o),
(238,76,o),
(193,97,qs),
(114,135,o),
(54,199,o),
(54,246,qs),
(54,306,o),
(117,353,q),
(84,391,o),
(84,439,qs),
(84,493,o),
(126,527,qs),
(172,566,o),
(247,566,qs),
(311,566,o),
(348,547,qs),
(401,523,o),
(380,462,qs),
(372,443,ls),
(369,434,o),
(363,434,qs),
(360,434,o),
(356,438,qs),
(352,441,o),
(351,442,qs),
(309,469,o),
(262,469,qs),
(219,469,o),
(219,442,qs),
(219,419,o),
(273,393,qs),
(353,354,o),
(373,339,qs),
(427,298,o),
(427,241,qs),
(427,172,o),
(372,128,q),
(405,93,o),
(405,44,qs),
(405,-12,o),
(366,-51,qs),
(318,-99,o),
(229,-99,qs),
(144,-99,o),
(90,-58,qs),
(38,-19,o),
(60,34,qs),
(72,63,ls),
(74,67,o),
(83,68,o),
(86,65,qs),
(112,36,o)
);
},
{
closed = 1;
nodes = (
(295,223,qs),
(295,240,o),
(265,266,o),
(225,284,qs),
(204,293,o),
(197,297,q),
(182,278,o),
(182,259,qs),
(182,244,o),
(211,218,o),
(250,200,qs),
(275,189,o),
(278,187,q),
(295,205,o)
);
}
);
userData = {
assembly = "PUSHB[ ]	/* 8 values pushed */
63 43 14 3 4 2 1 76 
MPPEM[ ]	/* MeasurePixelPerEm */
PUSHB[ ]	/* 1 value pushed */
40 
LT[ ]	/* LessThan */
IF[ ]	/* If */
NPUSHB[ ]	/* 26 values pushed */
0 2 1 4 1 2 4 128 0 4 0 0 4 0 101 0 1 1 3 97 0 3 3 39 1 78 
ELSE[ ]	/* Else */
NPUSHB[ ]	/* 32 values pushed */
0 2 1 4 1 2 4 128 0 3 0 1 2 3 1 105 0 4 0 0 4 89 0 4 4 0 97 0 0 4 0 81 
EIF[ ]	/* EndIf */
PUSHB[ ]	/* 8 values pushed */
46 37 36 46 39 5 9 27 
CALL[ ]	/* CallFunction */";
};
width = 451;
}
);
note = section;
unicode = 167;
},
{
glyphname = dieresis;
layers = (
{
layerId = m01;
shapes = (
{
closed = 1;
nodes = (
(42,556,o),
(72,556,qs),
(101,556,o),
(143,513,o),
(143,484,qs),
(143,454,o),
(101,412,o),
(72,412,qs),
(42,412,o),
(0,454,o),
(0,484,qs),
(0,514,o)
);
},
{
closed = 1;
nodes = (
(213,556,o),
(242,556,qs),
(272,556,o),
(314,514,o),
(314,484,qs),
(314,454,o),
(272,412,o),
(242,412,qs),
(213,412,o),
(171,454,o),
(171,484,qs),
(171,514,o)
);
}
);
userData = {
assembly = "PUSHB[ ]	/* 2 values pushed */
6 100 
WCVTP[ ]	/* WriteCVTInPixels */
NPUSHB[ ]	/* 26 values pushed */
3 1 1 0 0 1 89 3 1 1 1 0 97 2 1 0 1 0 81 36 36 36 34 4 9 26 
CALL[ ]	/* CallFunction */
PUSHB[ ]	/* 2 values pushed */
6 0 
WCVTP[ ]	/* WriteCVTInPixels */";
};
width = 314;
}
);
note = dieresis;
unicode = 168;
},
{
glyphname = copyright;
layers = (
{
layerId = m01;
shapes = (
{
closed = 1;
nodes = (
(79,496,qs),
(142,567,o),
(252,567,qs),
(347,567,o),
(408,512,qs),
(478,449,o),
(478,339,qs),
(478,244,o),
(424,183,qs),
(361,113,o),
(252,113,qs),
(156,113,o),
(94,167,qs),
(24,230,o),
(24,339,qs),
(24,435,o)
);
},
{
closed = 1;
nodes = (
(359,220,qs),
(408,263,o),
(408,339,qs),
(408,406,o),
(370,449,qs),
(327,498,o),
(252,498,qs),
(186,498,o),
(144,460,qs),
(95,416,o),
(95,339,qs),
(95,273,o),
(133,231,qs),
(176,182,o),
(252,182,qs),
(317,182,o)
);
},
{
closed = 1;
nodes = (
(330,307,q),
(336,311,o),
(338,311,qs),
(346,311,o),
(346,299,qs),
(346,275,o),
(331,253,qs),
(306,216,o),
(254,216,qs),
(204,216,o),
(172,245,qs),
(135,279,o),
(135,338,qs),
(135,390,o),
(170,425,qs),
(207,463,o),
(264,463,qs),
(298,463,o),
(325,452,qs),
(348,443,o),
(342,417,qs),
(335,387,ls),
(333,377,o),
(322,383,qs),
(292,398,o),
(266,398,qs),
(214,398,o),
(214,338,qs),
(214,282,o),
(268,282,qs),
(302,282,o),
(329,306,q),
(330,306,o)
);
}
);
userData = {
assembly = "PUSHB[ ]	/* 2 values pushed */
6 100 
WCVTP[ ]	/* WriteCVTInPixels */
NPUSHB[ ]	/* 73 values pushed */
0 8 5 4 5 8 4 128 0 1 0 3 6 1 3 105 0 6 0 5 8 6 5 105 0 4 0 7 2 4 7 105 9 1 2 0 0 2 89 9 1 2 2 0 98 0 0 2 0 82 17 16 61 60 56 54 48 46 39 37 35 33 25 23 16 31 17 31 38 35 10 9 24 
CALL[ ]	/* CallFunction */
PUSHB[ ]	/* 2 values pushed */
6 0 
WCVTP[ ]	/* WriteCVTInPixels */";
};
width = 502;
}
);
note = copyright;
unicode = 169;
},
{
glyphname = ordfeminine;
layers = (
{
layerId = m01;
shapes = (
{
closed = 1;
nodes = (
(167,241,qs),
(101,241,o),
(60,282,qs),
(15,328,o),
(15,403,qs),
(15,467,o),
(53,512,qs),
(97,564,o),
(169,564,qs),
(226,564,o),
(266,529,q),
(289,556,o),
(334,556,qs),
(349,556,ls),
(359,556,o),
(359,546,qs),
(359,258,ls),
(359,248,o),
(351,248,qs),
(254,248,ls),
(246,248,o),
(246,258,qs),
(246,266,l),
(213,241,o)
);
},
{
closed = 1;
nodes = (
(246,377,o),
(246,404,qs),
(246,463,o),
(190,463,qs),
(164,463,o),
(133,431,o),
(133,404,qs),
(133,377,o),
(164,343,o),
(190,343,qs),
(215,343,o)
);
}
);
userData = {
assembly = "NPUSHB[ ]	/* 10 values pushed */
12 1 5 1 0 1 0 4 2 76 
MPPEM[ ]	/* MeasurePixelPerEm */
PUSHB[ ]	/* 1 value pushed */
40 
LT[ ]	/* LessThan */
IF[ ]	/* If */
NPUSHB[ ]	/* 32 values pushed */
0 0 4 3 4 0 3 128 6 1 4 0 3 4 3 101 0 1 1 55 77 0 5 5 2 97 0 2 2 55 5 78 
ELSE[ ]	/* Else */
NPUSHB[ ]	/* 35 values pushed */
0 1 2 5 2 1 5 128 0 0 4 3 4 0 3 128 6 1 4 0 3 4 3 101 0 5 5 2 97 0 2 2 55 5 78 
EIF[ ]	/* EndIf */
NPUSHB[ ]	/* 15 values pushed */
25 24 31 29 24 34 25 34 38 34 51 50 7 10 26 
CALL[ ]	/* CallFunction */";
};
width = 379;
}
);
note = ordfeminine;
unicode = 170;
},
{
glyphname = guillemotleft;
layers = (
{
layerId = m01;
shapes = (
{
closed = 1;
nodes = (
(266,46,o),
(262,38,o),
(257,38,qs),
(160,38,ls),
(143,38,o),
(133,51,qs),
(28,186,ls),
(21,194,o),
(21,200,qs),
(21,205,o),
(28,214,qs),
(132,349,ls),
(141,362,o),
(160,362,qs),
(255,362,ls),
(261,362,o),
(265,354,o),
(262,349,q),
(148,200,l),
(263,51,l)
);
},
{
closed = 1;
nodes = (
(453,46,o),
(450,38,o),
(444,38,qs),
(349,38,ls),
(331,38,o),
(320,51,qs),
(215,186,ls),
(209,194,o),
(209,200,qs),
(209,205,o),
(215,214,qs),
(319,349,ls),
(329,362,o),
(348,362,qs),
(443,362,ls),
(448,362,o),
(452,354,o),
(449,349,q),
(335,200,l),
(450,51,l)
);
}
);
userData = {
assembly = "NPUSHB[ ]	/* 26 values pushed */
2 1 0 1 1 0 87 2 1 0 0 1 95 3 1 1 0 1 79 40 55 40 51 4 9 26 
CALL[ ]	/* CallFunction */";
};
width = 472;
}
);
note = guillemotleft;
unicode = 171;
},
{
glyphname = uni00AD;
layers = (
{
layerId = m01;
shapes = (
{
closed = 1;
nodes = (
(30,158,qs),
(30,257,ls),
(30,269,o),
(43,269,qs),
(267,269,ls),
(279,269,o),
(279,257,qs),
(279,158,ls),
(279,145,o),
(267,145,qs),
(43,145,ls),
(30,145,o)
);
}
);
userData = {
assembly = "NPUSHB[ ]	/* 28 values pushed */
0 1 0 0 1 87 0 1 1 0 95 2 1 0 1 0 79 2 0 8 5 0 11 2 11 3 9 22 
CALL[ ]	/* CallFunction */";
};
width = 309;
}
);
note = uni00AD;
unicode = 173;
},
{
glyphname = registered;
layers = (
{
layerId = m01;
shapes = (
{
closed = 1;
nodes = (
(79,496,qs),
(142,567,o),
(252,567,qs),
(347,567,o),
(408,512,qs),
(478,449,o),
(478,339,qs),
(478,244,o),
(424,183,qs),
(361,113,o),
(252,113,qs),
(156,113,o),
(94,167,qs),
(24,230,o),
(24,339,qs),
(24,435,o)
);
},
{
closed = 1;
nodes = (
(225,222,o),
(218,222,qs),
(163,222,ls),
(156,222,o),
(156,230,qs),
(156,454,ls),
(156,462,o),
(163,462,qs),
(259,462,ls),
(304,462,o),
(355,419,o),
(355,381,qs),
(355,328,o),
(312,309,q),
(362,231,ls),
(364,228,o),
(361,222,o),
(358,222,qs),
(299,222,ls),
(288,222,o),
(285,230,q),
(246,297,l),
(225,297,l),
(225,230,ls)
);
},
{
closed = 1;
nodes = (
(359,220,qs),
(408,263,o),
(408,339,qs),
(408,406,o),
(370,449,qs),
(327,498,o),
(252,498,qs),
(186,498,o),
(144,460,qs),
(95,416,o),
(95,339,qs),
(95,273,o),
(133,231,qs),
(176,182,o),
(252,182,qs),
(317,182,o)
);
},
{
closed = 1;
nodes = (
(288,348,o),
(288,381,qs),
(288,412,o),
(250,412,qs),
(225,412,l),
(225,348,l),
(250,348,ls)
);
}
);
userData = {
assembly = "PUSHB[ ]	/* 2 values pushed */
6 100 
WCVTP[ ]	/* WriteCVTInPixels */
NPUSHB[ ]	/* 83 values pushed */
25 1 2 9 1 76 5 1 3 2 6 2 3 6 128 0 1 0 7 4 1 7 105 0 4 0 8 9 4 8 105 11 1 9 0 2 3 9 2 103 10 1 6 0 0 6 89 10 1 6 6 0 97 0 0 6 0 81 56 56 41 40 56 62 56 61 59 57 49 47 40 55 41 55 51 56 34 19 38 35 12 9 28 
CALL[ ]	/* CallFunction */
PUSHB[ ]	/* 2 values pushed */
6 0 
WCVTP[ ]	/* WriteCVTInPixels */";
};
width = 502;
}
);
note = registered;
unicode = 174;
},
{
glyphname = macron;
layers = (
{
layerId = m01;
shapes = (
{
closed = 1;
nodes = (
(0,439,qs),
(0,512,ls),
(0,526,o),
(13,526,qs),
(277,526,ls),
(289,526,o),
(289,512,qs),
(289,439,ls),
(289,427,o),
(277,427,qs),
(13,427,ls),
(0,427,o)
);
}
);
userData = {
assembly = "PUSHB[ ]	/* 2 values pushed */
6 100 
WCVTP[ ]	/* WriteCVTInPixels */
NPUSHB[ ]	/* 28 values pushed */
0 1 0 0 1 87 0 1 1 0 95 2 1 0 1 0 79 2 0 8 5 0 11 2 11 3 9 22 
CALL[ ]	/* CallFunction */
PUSHB[ ]	/* 2 values pushed */
6 0 
WCVTP[ ]	/* WriteCVTInPixels */";
};
width = 289;
}
);
note = macron;
unicode = 175;
},
{
glyphname = degree;
layers = (
{
layerId = m01;
shapes = (
{
closed = 1;
nodes = (
(44,548,qs),
(76,584,o),
(130,584,qs),
(178,584,o),
(209,556,qs),
(245,524,o),
(245,471,qs),
(245,425,o),
(217,395,qs),
(184,358,o),
(130,358,qs),
(83,358,o),
(52,387,qs),
(17,418,o),
(17,471,qs),
(17,517,o)
);
},
{
closed = 1;
nodes = (
(170,452,o),
(170,472,qs),
(170,492,o),
(147,517,o),
(130,517,qs),
(113,517,o),
(91,492,o),
(91,472,qs),
(91,452,o),
(113,426,o),
(130,426,qs),
(147,426,o)
);
}
);
userData = {
assembly = "PUSHB[ ]	/* 2 values pushed */
6 100 
WCVTP[ ]	/* WriteCVTInPixels */
NPUSHB[ ]	/* 39 values pushed */
0 1 0 3 2 1 3 105 4 1 2 0 0 2 89 4 1 2 2 0 97 0 0 2 0 81 17 16 23 21 16 27 17 27 38 35 5 9 24 
CALL[ ]	/* CallFunction */
PUSHB[ ]	/* 2 values pushed */
6 0 
WCVTP[ ]	/* WriteCVTInPixels */";
};
width = 262;
}
);
note = degree;
unicode = 176;
},
{
glyphname = plusminus;
layers = (
{
layerId = m01;
shapes = (
{
closed = 1;
nodes = (
(25,291,o),
(25,304,qs),
(25,391,ls),
(25,403,o),
(38,403,qs),
(156,403,l),
(156,531,ls),
(156,543,o),
(169,543,qs),
(187,543,ls),
(235,543,o),
(276,505,o),
(276,459,qs),
(276,403,l),
(393,403,ls),
(407,403,o),
(407,391,qs),
(407,304,ls),
(407,291,o),
(393,291,qs),
(276,291,l),
(276,164,ls),
(276,151,o),
(263,151,qs),
(169,151,ls),
(156,151,o),
(156,164,qs),
(156,291,l),
(38,291,ls)
);
},
{
closed = 1;
nodes = (
(25,112,o),
(38,112,qs),
(337,112,ls),
(407,112,o),
(407,46,qs),
(407,13,ls),
(407,0,o),
(393,0,qs),
(38,0,ls),
(25,0,o),
(25,13,qs),
(25,99,ls)
);
}
);
userData = {
assembly = "MPPEM[ ]	/* MeasurePixelPerEm */
PUSHB[ ]	/* 1 value pushed */
23 
LT[ ]	/* LessThan */
IF[ ]	/* If */
NPUSHB[ ]	/* 34 values pushed */
8 5 2 1 1 2 95 4 1 2 2 42 77 0 0 0 3 97 0 3 3 39 77 0 7 7 6 95 0 6 6 40 6 78 
ELSE[ ]	/* Else */
MPPEM[ ]	/* MeasurePixelPerEm */
PUSHB[ ]	/* 1 value pushed */
31 
LT[ ]	/* LessThan */
IF[ ]	/* If */
NPUSHB[ ]	/* 32 values pushed */
4 1 2 8 5 2 1 0 2 1 103 0 0 0 3 97 0 3 3 39 77 0 7 7 6 95 0 6 6 40 6 78 
ELSE[ ]	/* Else */
NPUSHB[ ]	/* 30 values pushed */
4 1 2 8 5 2 1 0 2 1 103 0 3 0 0 7 3 0 103 0 7 7 6 95 0 6 6 40 6 78 
EIF[ ]	/* EndIf */
EIF[ ]	/* EndIf */
NPUSHB[ ]	/* 18 values pushed */
0 0 39 36 33 30 0 28 0 27 34 51 35 34 50 9 9 27 
CALL[ ]	/* CallFunction */";
};
width = 432;
}
);
note = plusminus;
unicode = 177;
},
{
glyphname = twosuperior;
layers = (
{
layerId = m01;
shapes = (
{
closed = 1;
nodes = (
(313,308,o),
(313,269,qs),
(313,228,ls),
(313,217,o),
(302,217,qs),
(43,217,ls),
(32,217,o),
(32,228,qs),
(32,286,o),
(60,327,qs),
(83,361,o),
(136,394,qs),
(174,418,o),
(193,435,o),
(193,448,qs),
(193,473,o),
(158,473,qs),
(125,473,o),
(78,447,q),
(65,438,o),
(60,451,qs),
(40,494,ls),
(25,528,o),
(68,547,qs),
(113,566,o),
(169,566,qs),
(304,566,o),
(304,466,qs),
(304,419,o),
(273,385,qs),
(255,365,o),
(214,339,qs),
(179,318,o),
(176,308,q),
(270,308,ls)
);
}
);
userData = {
assembly = "NPUSHB[ ]	/* 34 values pushed */
0 1 1 0 97 0 0 0 55 77 4 1 3 3 2 95 0 2 2 56 2 78 0 0 0 34 0 33 57 39 39 5 10 25 
CALL[ ]	/* CallFunction */";
};
width = 331;
}
);
note = twosuperior;
unicode = 178;
},
{
glyphname = threesuperior;
layers = (
{
layerId = m01;
shapes = (
{
closed = 1;
nodes = (
(306,318,qs),
(306,274,o),
(275,244,qs),
(238,209,o),
(172,209,qs),
(112,209,o),
(73,241,qs),
(33,274,o),
(33,322,qs),
(33,338,o),
(46,338,qs),
(53,338,o),
(60,331,qs),
(74,316,o),
(128,297,o),
(153,297,qs),
(204,297,o),
(204,327,qs),
(204,348,o),
(165,348,qs),
(133,348,ls),
(93,348,o),
(93,382,qs),
(93,421,ls),
(93,433,o),
(102,433,qs),
(143,433,ls),
(192,433,o),
(192,457,qs),
(192,479,o),
(152,479,qs),
(122,479,o),
(75,458,q),
(61,450,o),
(56,461,qs),
(41,497,ls),
(26,533,o),
(69,549,qs),
(111,566,o),
(164,566,qs),
(224,566,o),
(294,517,o),
(294,474,qs),
(294,425,o),
(259,398,q),
(306,375,o)
);
}
);
userData = {
assembly = "NPUSHB[ ]	/* 47 values pushed */
0 5 3 4 3 5 4 128 0 2 0 3 5 2 3 105 0 1 1 0 97 0 0 0 55 77 0 4 4 6 97 0 6 6 58 6 78 36 35 34 51 50 39 36 7 10 29 
CALL[ ]	/* CallFunction */";
};
width = 324;
}
);
note = threesuperior;
unicode = 179;
},
{
glyphname = acute;
layers = (
{
layerId = m01;
shapes = (
{
closed = 1;
nodes = (
(1,437,o),
(6,441,qs),
(106,532,ls),
(119,543,o),
(136,543,qs),
(251,543,ls),
(258,543,o),
(262,532,o),
(256,528,q),
(150,438,ls),
(136,426,o),
(114,426,qs),
(12,426,ls),
(5,426,o)
);
}
);
userData = {
assembly = "PUSHB[ ]	/* 2 values pushed */
6 100 
WCVTP[ ]	/* WriteCVTInPixels */
NPUSHB[ ]	/* 28 values pushed */
0 1 0 0 1 87 0 1 1 0 95 2 1 0 1 0 79 2 0 9 6 0 13 2 13 3 9 22 
CALL[ ]	/* CallFunction */
PUSHB[ ]	/* 2 values pushed */
6 0 
WCVTP[ ]	/* WriteCVTInPixels */";
};
width = 259;
}
);
note = acute;
unicode = 180;
},
{
glyphname = paragraph;
layers = (
{
layerId = m01;
shapes = (
{
closed = 1;
nodes = (
(270,0,o),
(258,0,qs),
(195,0,ls),
(183,0,o),
(183,12,qs),
(183,222,l),
(115,227,o),
(72,268,qs),
(24,315,o),
(24,391,qs),
(24,461,o),
(63,503,qs),
(112,556,o),
(215,556,qs),
(307,556,ls),
(357,556,o),
(403,509,o),
(403,458,qs),
(403,12,ls),
(403,0,o),
(392,0,qs),
(329,0,ls),
(317,0,o),
(317,12,qs),
(317,484,l),
(270,484,l),
(270,12,ls)
);
}
);
userData = {
assembly = "NPUSHB[ ]	/* 30 values pushed */
20 1 1 0 1 76 0 0 0 2 95 0 2 2 39 77 3 1 1 1 40 1 78 57 52 50 16 4 9 26 
CALL[ ]	/* CallFunction */";
};
width = 449;
}
);
note = paragraph;
unicode = 182;
},
{
glyphname = periodcentered;
layers = (
{
layerId = m01;
shapes = (
{
closed = 1;
nodes = (
(64,359,o),
(97,359,qs),
(130,359,o),
(174,315,o),
(174,281,qs),
(174,248,o),
(130,205,o),
(97,205,qs),
(64,205,o),
(20,248,o),
(20,281,qs),
(20,314,o)
);
}
);
userData = {
assembly = "NPUSHB[ ]	/* 21 values pushed */
0 1 0 0 1 89 0 1 1 0 97 0 0 1 0 81 36 34 2 9 24 
CALL[ ]	/* CallFunction */";
};
width = 194;
}
);
note = periodcentered;
unicode = 183;
},
{
glyphname = cedilla;
layers = (
{
layerId = m01;
shapes = (
{
closed = 1;
nodes = (
(9,-112,q),
(76,-7,ls),
(84,5,o),
(105,5,qs),
(177,5,ls),
(189,5,o),
(184,-7,qs),
(139,-110,ls),
(131,-127,o),
(108,-127,qs),
(15,-127,ls),
(1,-127,o)
);
}
);
userData = {
assembly = "PUSHB[ ]	/* 2 values pushed */
6 100 
WCVTP[ ]	/* WriteCVTInPixels */
NPUSHB[ ]	/* 28 values pushed */
0 1 0 0 1 87 0 1 1 0 95 2 1 0 1 0 79 2 0 8 5 0 11 2 11 3 9 22 
CALL[ ]	/* CallFunction */
PUSHB[ ]	/* 2 values pushed */
6 0 
WCVTP[ ]	/* WriteCVTInPixels */";
};
width = 180;
}
);
note = cedilla;
unicode = 184;
},
{
glyphname = onesuperior;
layers = (
{
layerId = m01;
shapes = (
{
closed = 1;
nodes = (
(35,428,o),
(35,439,qs),
(35,519,ls),
(35,534,o),
(50,539,qs),
(80,549,ls),
(97,556,o),
(112,556,qs),
(167,556,ls),
(211,556,o),
(211,516,qs),
(211,228,ls),
(211,217,o),
(200,217,qs),
(110,217,ls),
(99,217,o),
(99,228,qs),
(99,449,l),
(48,432,ls)
);
}
);
userData = {
assembly = "PUSHB[ ]	/* 6 values pushed */
0 1 0 1 1 76 
MPPEM[ ]	/* MeasurePixelPerEm */
PUSHB[ ]	/* 1 value pushed */
40 
LT[ ]	/* LessThan */
IF[ ]	/* If */
NPUSHB[ ]	/* 11 values pushed */
0 1 1 55 77 0 0 0 56 0 78 
ELSE[ ]	/* Else */
NPUSHB[ ]	/* 11 values pushed */
0 1 0 1 133 0 0 0 56 0 78 
EIF[ ]	/* EndIf */
PUSHB[ ]	/* 5 values pushed */
51 50 2 10 24 
CALL[ ]	/* CallFunction */";
};
width = 256;
}
);
note = onesuperior;
unicode = 185;
},
{
glyphname = ordmasculine;
layers = (
{
layerId = m01;
shapes = (
{
closed = 1;
nodes = (
(241,402,qs),
(241,462,o),
(187,462,qs),
(133,462,o),
(133,402,qs),
(133,341,o),
(186,341,qs),
(241,341,o)
);
},
{
closed = 1;
nodes = (
(55,514,qs),
(102,564,o),
(186,564,qs),
(259,564,o),
(305,526,qs),
(358,481,o),
(358,403,qs),
(358,334,o),
(318,291,qs),
(271,240,o),
(188,240,qs),
(115,240,o),
(68,279,qs),
(15,324,o),
(15,403,qs),
(15,471,o)
);
}
);
userData = {
assembly = "NPUSHB[ ]	/* 34 values pushed */
4 1 0 0 2 0 2 101 0 1 1 3 97 0 3 3 55 1 78 1 0 21 19 13 11 5 3 0 7 1 7 5 10 22 
CALL[ ]	/* CallFunction */";
};
width = 373;
}
);
note = ordmasculine;
unicode = 186;
},
{
glyphname = guillemotright;
layers = (
{
layerId = m01;
shapes = (
{
closed = 1;
nodes = (
(209,353,o),
(213,362,o),
(219,362,qs),
(314,362,ls),
(332,362,o),
(342,349,qs),
(447,214,ls),
(453,205,o),
(453,200,qs),
(453,194,o),
(447,186,qs),
(341,51,ls),
(330,38,o),
(313,38,qs),
(218,38,ls),
(212,38,o),
(208,47,o),
(212,51,q),
(326,200,l),
(213,349,l)
);
},
{
closed = 1;
nodes = (
(22,353,o),
(26,362,o),
(31,362,qs),
(126,362,ls),
(144,362,o),
(154,349,qs),
(259,214,ls),
(266,205,o),
(266,200,qs),
(266,194,o),
(259,186,qs),
(153,51,ls),
(143,38,o),
(125,38,qs),
(30,38,ls),
(24,38,o),
(20,47,o),
(24,51,q),
(138,200,l),
(25,349,ls)
);
}
);
userData = {
assembly = "NPUSHB[ ]	/* 26 values pushed */
3 1 1 0 0 1 87 3 1 1 1 0 95 2 1 0 1 0 79 40 55 40 51 4 9 26 
CALL[ ]	/* CallFunction */";
};
width = 472;
}
);
note = guillemotright;
unicode = 187;
},
{
glyphname = onequarter;
layers = (
{
layerId = m01;
shapes = (
{
closed = 1;
nodes = (
(35,428,o),
(35,439,qs),
(35,519,ls),
(35,534,o),
(50,539,qs),
(80,549,ls),
(97,556,o),
(112,556,qs),
(167,556,ls),
(211,556,o),
(211,516,qs),
(211,228,ls),
(211,217,o),
(200,217,qs),
(110,217,ls),
(99,217,o),
(99,228,qs),
(99,449,l),
(48,432,ls)
);
},
{
closed = 1;
nodes = (
(135,13,q),
(426,542,ls),
(433,556,o),
(447,556,qs),
(477,556,ls),
(510,556,o),
(533,513,o),
(516,482,qs),
(259,13,ls),
(252,0,o),
(240,0,qs),
(143,0,ls),
(129,0,o)
);
},
{
closed = 1;
nodes = (
(389,64,o),
(389,75,qs),
(389,127,ls),
(389,138,o),
(396,146,q),
(517,324,ls),
(526,339,o),
(544,339,qs),
(616,339,ls),
(659,339,o),
(659,299,qs),
(659,148,l),
(675,148,ls),
(719,148,o),
(719,108,qs),
(719,74,ls),
(719,64,o),
(709,64,qs),
(659,64,l),
(659,11,ls),
(659,0,o),
(648,0,qs),
(569,0,ls),
(558,0,o),
(558,11,qs),
(558,64,l),
(401,64,ls)
);
},
{
closed = 1;
nodes = (
(558,244,l),
(494,148,l),
(558,148,l)
);
}
);
userData = {
assembly = "PUSHB[ ]	/* 2 values pushed */
6 100 
WCVTP[ ]	/* WriteCVTInPixels */
NPUSHB[ ]	/* 10 values pushed */
0 1 7 1 60 1 0 7 2 76 
MPPEM[ ]	/* MeasurePixelPerEm */
PUSHB[ ]	/* 1 value pushed */
15 
LT[ ]	/* LessThan */
IF[ ]	/* If */
NPUSHB[ ]	/* 47 values pushed */
0 7 1 0 1 7 0 128 4 10 2 2 5 5 2 113 3 1 1 0 0 6 1 0 103 12 9 2 6 5 5 6 89 12 9 2 6 6 5 98 11 8 2 5 6 5 82 
ELSE[ ]	/* Else */
NPUSHB[ ]	/* 46 values pushed */
0 7 1 0 1 7 0 128 4 10 2 2 5 2 134 3 1 1 0 0 6 1 0 103 12 9 2 6 5 5 6 89 12 9 2 6 6 5 98 11 8 2 5 6 5 82 
EIF[ ]	/* EndIf */
NPUSHB[ ]	/* 33 values pushed */
59 59 32 32 21 19 59 61 59 61 32 58 32 57 51 48 46 44 41 39 37 34 28 25 19 31 21 31 51 50 13 9 24 
CALL[ ]	/* CallFunction */
PUSHB[ ]	/* 2 values pushed */
6 0 
WCVTP[ ]	/* WriteCVTInPixels */";
};
width = 752;
}
);
note = onequarter;
unicode = 188;
},
{
glyphname = onehalf;
layers = (
{
layerId = m01;
shapes = (
{
closed = 1;
nodes = (
(733,92,o),
(733,53,qs),
(733,11,ls),
(733,0,o),
(722,0,qs),
(462,0,ls),
(452,0,o),
(452,11,qs),
(452,69,o),
(480,111,qs),
(503,144,o),
(557,177,qs),
(595,201,o),
(613,218,o),
(613,231,qs),
(613,258,o),
(578,258,qs),
(543,258,o),
(497,230,qs),
(484,222,o),
(479,234,qs),
(459,278,ls),
(446,311,o),
(487,329,qs),
(533,349,o),
(589,349,qs),
(654,349,o),
(724,298,o),
(724,250,qs),
(724,203,o),
(693,168,qs),
(675,148,o),
(634,122,qs),
(599,101,o),
(596,92,q),
(689,92,ls)
);
},
{
closed = 1;
nodes = (
(35,428,o),
(35,439,qs),
(35,519,ls),
(35,534,o),
(50,539,qs),
(80,549,ls),
(97,556,o),
(112,556,qs),
(167,556,ls),
(211,556,o),
(211,516,qs),
(211,228,ls),
(211,217,o),
(200,217,qs),
(110,217,ls),
(99,217,o),
(99,228,qs),
(99,449,l),
(48,432,ls)
);
},
{
closed = 1;
nodes = (
(135,13,q),
(426,542,ls),
(433,556,o),
(447,556,qs),
(477,556,ls),
(510,556,o),
(533,513,o),
(516,482,qs),
(259,13,ls),
(252,0,o),
(240,0,qs),
(143,0,ls),
(129,0,o)
);
}
);
userData = {
assembly = "PUSHB[ ]	/* 2 values pushed */
6 100 
WCVTP[ ]	/* WriteCVTInPixels */
NPUSHB[ ]	/* 67 values pushed */
36 1 0 5 1 76 0 0 0 1 4 0 1 105 7 1 5 0 4 3 5 4 103 8 1 3 2 2 3 87 8 1 3 3 2 96 9 6 2 2 3 2 80 57 55 0 0 64 61 55 67 57 67 47 44 41 38 0 35 0 34 57 39 40 10 9 25 
CALL[ ]	/* CallFunction */
PUSHB[ ]	/* 2 values pushed */
6 0 
WCVTP[ ]	/* WriteCVTInPixels */";
};
width = 785;
}
);
note = onehalf;
unicode = 189;
},
{
glyphname = threequarters;
layers = (
{
layerId = m01;
shapes = (
{
closed = 1;
nodes = (
(306,318,qs),
(306,274,o),
(275,244,qs),
(238,209,o),
(172,209,qs),
(112,209,o),
(73,241,qs),
(33,274,o),
(33,322,qs),
(33,338,o),
(46,338,qs),
(53,338,o),
(60,331,qs),
(74,316,o),
(128,297,o),
(153,297,qs),
(204,297,o),
(204,327,qs),
(204,348,o),
(165,348,qs),
(133,348,ls),
(93,348,o),
(93,382,qs),
(93,421,ls),
(93,433,o),
(102,433,qs),
(143,433,ls),
(192,433,o),
(192,457,qs),
(192,479,o),
(152,479,qs),
(122,479,o),
(75,458,q),
(61,450,o),
(56,461,qs),
(41,497,ls),
(26,533,o),
(69,549,qs),
(112,566,o),
(164,566,qs),
(224,566,o),
(294,517,o),
(294,474,qs),
(294,425,o),
(259,398,q),
(306,375,o)
);
},
{
closed = 1;
nodes = (
(194,13,q),
(484,542,ls),
(491,556,o),
(504,556,qs),
(537,556,ls),
(570,556,o),
(591,513,o),
(574,482,qs),
(318,13,ls),
(311,0,o),
(298,0,qs),
(202,0,ls),
(188,0,o)
);
},
{
closed = 1;
nodes = (
(449,64,o),
(449,75,qs),
(449,127,ls),
(449,137,o),
(455,146,qs),
(575,324,l),
(587,339,o),
(603,339,qs),
(674,339,ls),
(718,339,o),
(718,299,qs),
(718,148,l),
(734,148,ls),
(778,148,o),
(778,108,qs),
(778,74,ls),
(778,64,o),
(768,64,qs),
(718,64,l),
(718,11,ls),
(718,0,o),
(707,0,qs),
(628,0,ls),
(618,0,o),
(618,11,qs),
(618,64,l),
(459,64,ls)
);
},
{
closed = 1;
nodes = (
(618,244,l),
(554,148,l),
(618,148,l)
);
}
);
userData = {
assembly = "PUSHB[ ]	/* 2 values pushed */
6 100 
WCVTP[ ]	/* WriteCVTInPixels */
PUSHB[ ]	/* 6 values pushed */
87 1 6 4 1 76 
MPPEM[ ]	/* MeasurePixelPerEm */
PUSHB[ ]	/* 1 value pushed */
15 
LT[ ]	/* LessThan */
IF[ ]	/* If */
NPUSHB[ ]	/* 64 values pushed */
12 1 5 3 4 3 5 4 128 9 15 2 7 10 10 7 113 8 1 0 0 1 2 0 1 105 0 2 0 3 5 2 3 105 0 4 0 6 11 4 6 105 17 14 2 11 10 10 11 89 17 14 2 11 11 10 98 16 13 2 10 11 10 82 
ELSE[ ]	/* Else */
MPPEM[ ]	/* MeasurePixelPerEm */
PUSHB[ ]	/* 1 value pushed */
19 
LT[ ]	/* LessThan */
IF[ ]	/* If */
NPUSHB[ ]	/* 63 values pushed */
12 1 5 3 4 3 5 4 128 9 15 2 7 10 7 134 8 1 0 0 1 2 0 1 105 0 2 0 3 5 2 3 105 0 4 0 6 11 4 6 105 17 14 2 11 10 10 11 89 17 14 2 11 11 10 98 16 13 2 10 11 10 82 
ELSE[ ]	/* Else */
NPUSHB[ ]	/* 70 values pushed */
0 8 0 1 0 8 1 128 12 1 5 3 4 3 5 4 128 9 15 2 7 10 7 134 0 0 0 1 2 0 1 105 0 2 0 3 5 2 3 105 0 4 0 6 11 4 6 105 17 14 2 11 10 10 11 89 17 14 2 11 11 10 98 16 13 2 10 11 10 82 
EIF[ ]	/* EndIf */
EIF[ ]	/* EndIf */
NPUSHB[ ]	/* 38 values pushed */
86 86 59 59 48 46 86 88 86 88 59 85 59 84 78 75 73 71 68 66 64 61 55 52 46 58 48 58 36 35 34 51 50 39 36 18 9 29 
CALL[ ]	/* CallFunction */
PUSHB[ ]	/* 2 values pushed */
6 0 
WCVTP[ ]	/* WriteCVTInPixels */";
};
width = 804;
}
);
note = threequarters;
unicode = 190;
},
{
glyphname = questiondown;
layers = (
{
layerId = m01;
shapes = (
{
closed = 1;
nodes = (
(140,285,o),
(140,319,qs),
(140,353,o),
(183,397,o),
(217,397,qs),
(250,397,o),
(295,353,o),
(295,319,qs),
(295,286,o),
(250,242,o),
(217,242,qs),
(183,242,o)
);
},
{
closed = 1;
nodes = (
(42,66,qs),
(66,97,o),
(148,158,qs),
(162,167,o),
(162,181,qs),
(162,195,ls),
(162,217,o),
(185,217,qs),
(208,217,ls),
(236,217,o),
(276,181,o),
(276,156,qs),
(276,116,o),
(218,73,qs),
(173,39,o),
(148,8,o),
(148,-14,qs),
(148,-62,o),
(208,-62,qs),
(268,-62,o),
(340,-26,qs),
(348,-22,o),
(353,-22,qs),
(360,-22,o),
(363,-31,qs),
(391,-111,ls),
(396,-127,o),
(382,-135,qs),
(294,-183,o),
(205,-183,qs),
(124,-183,o),
(73,-150,qs),
(9,-110,o),
(9,-34,qs),
(9,24,o)
);
}
);
userData = {
assembly = "MPPEM[ ]	/* MeasurePixelPerEm */
PUSHB[ ]	/* 1 value pushed */
33 
LT[ ]	/* LessThan */
IF[ ]	/* If */
NPUSHB[ ]	/* 37 values pushed */
0 5 0 3 0 5 3 128 0 3 4 0 3 4 126 6 1 0 0 1 97 0 1 1 48 77 0 4 4 2 98 0 2 2 50 2 78 
ELSE[ ]	/* Else */
NPUSHB[ ]	/* 34 values pushed */
0 5 0 3 0 5 3 128 0 3 4 0 3 4 126 0 4 0 2 4 2 102 6 1 0 0 1 97 0 1 1 48 0 78 
EIF[ ]	/* EndIf */
NPUSHB[ ]	/* 19 values pushed */
1 0 39 36 28 26 23 22 17 15 7 5 0 11 1 11 7 9 22 
CALL[ ]	/* CallFunction */";
};
width = 363;
}
);
note = questiondown;
unicode = 191;
},
{
glyphname = Agrave;
kernLeft = A;
kernRight = A;
layers = (
{
layerId = m01;
shapes = (
{
closed = 1;
nodes = (
(268,384,l),
(221,241,l),
(317,241,l)
);
},
{
closed = 1;
nodes = (
(140,0,o),
(129,0,qs),
(16,0,ls),
(3,0,o),
(7,13,qs),
(193,544,ls),
(197,556,o),
(208,556,qs),
(267,556,ls),
(310,556,o),
(356,518,o),
(374,466,qs),
(537,13,l),
(540,0,o),
(527,0,qs),
(412,0,ls),
(398,0,o),
(392,13,q),
(354,125,l),
(182,125,l),
(144,13,ls)
);
},
{
closed = 1;
nodes = (
(124,702,o),
(131,702,qs),
(246,702,ls),
(263,702,o),
(276,691,qs),
(376,600,ls),
(381,596,o),
(376,585,o),
(370,585,qs),
(268,585,ls),
(246,585,o),
(232,597,qs),
(126,687,l),
(120,691,o)
);
}
);
userData = {
assembly = "NPUSHB[ ]	/* 56 values pushed */
1 1 0 3 1 76 0 6 0 5 3 6 5 103 7 1 0 0 1 2 0 1 104 0 3 3 39 77 4 1 2 2 40 2 78 0 0 36 33 28 26 22 19 16 13 9 6 4 3 0 2 0 2 8 9 22 
CALL[ ]	/* CallFunction */";
};
width = 538;
}
);
note = Agrave;
unicode = 192;
},
{
glyphname = Aacute;
kernLeft = A;
kernRight = A;
layers = (
{
layerId = m01;
shapes = (
{
closed = 1;
nodes = (
(268,384,l),
(221,241,l),
(317,241,l)
);
},
{
closed = 1;
nodes = (
(140,0,o),
(129,0,qs),
(16,0,ls),
(3,0,o),
(7,13,qs),
(193,544,ls),
(197,556,o),
(208,556,qs),
(267,556,ls),
(310,556,o),
(356,518,o),
(374,466,qs),
(537,13,l),
(540,0,o),
(527,0,qs),
(412,0,ls),
(398,0,o),
(392,13,q),
(354,125,l),
(182,125,l),
(144,13,ls)
);
},
{
closed = 1;
nodes = (
(153,596,o),
(158,600,qs),
(258,691,ls),
(271,702,o),
(288,702,qs),
(403,702,ls),
(410,702,o),
(413,691,o),
(408,687,qs),
(302,597,ls),
(288,585,o),
(266,585,qs),
(163,585,ls),
(157,585,o)
);
}
);
userData = {
assembly = "NPUSHB[ ]	/* 61 values pushed */
1 1 0 3 1 76 0 6 8 1 5 3 6 5 103 7 1 0 0 1 2 0 1 104 0 3 3 39 77 4 1 2 2 40 2 78 26 24 0 0 33 30 24 37 26 37 22 19 16 13 9 6 4 3 0 2 0 2 9 9 22 
CALL[ ]	/* CallFunction */";
};
width = 538;
}
);
note = Aacute;
unicode = 193;
},
{
glyphname = Acircumflex;
kernLeft = A;
kernRight = A;
layers = (
{
layerId = m01;
shapes = (
{
closed = 1;
nodes = (
(268,384,l),
(221,241,l),
(317,241,l)
);
},
{
closed = 1;
nodes = (
(140,0,o),
(129,0,qs),
(16,0,ls),
(3,0,o),
(7,13,qs),
(193,544,ls),
(197,556,o),
(208,556,qs),
(267,556,ls),
(310,556,o),
(356,518,o),
(374,466,qs),
(537,13,l),
(540,0,o),
(527,0,qs),
(412,0,ls),
(398,0,o),
(392,13,q),
(354,125,l),
(182,125,l),
(144,13,ls)
);
},
{
closed = 1;
nodes = (
(227,585,o),
(206,585,qs),
(116,585,ls),
(110,585,o),
(105,596,o),
(109,600,qs),
(196,691,ls),
(206,702,o),
(226,702,qs),
(327,702,ls),
(346,702,o),
(357,691,qs),
(443,600,l),
(448,596,o),
(443,585,o),
(437,585,qs),
(347,585,ls),
(326,585,o),
(313,599,qs),
(277,642,l),
(239,599,ls)
);
}
);
userData = {
assembly = "NPUSHB[ ]	/* 59 values pushed */
1 1 0 3 1 76 0 6 7 1 5 3 6 5 103 8 1 0 0 1 2 0 1 104 0 3 3 39 77 4 1 2 2 40 2 78 0 0 43 40 36 33 28 26 22 19 16 13 9 6 4 3 0 2 0 2 9 9 22 
CALL[ ]	/* CallFunction */";
};
width = 538;
}
);
note = Acircumflex;
unicode = 194;
},
{
glyphname = Atilde;
kernLeft = A;
kernRight = A;
layers = (
{
layerId = m01;
shapes = (
{
closed = 1;
nodes = (
(268,384,l),
(221,241,l),
(317,241,l)
);
},
{
closed = 1;
nodes = (
(140,0,o),
(129,0,qs),
(16,0,ls),
(3,0,o),
(7,13,qs),
(193,544,ls),
(197,556,o),
(208,556,qs),
(267,556,ls),
(310,556,o),
(356,518,o),
(374,466,qs),
(537,13,l),
(540,0,o),
(527,0,qs),
(412,0,ls),
(398,0,o),
(392,13,q),
(354,125,l),
(182,125,l),
(144,13,ls)
);
},
{
closed = 1;
nodes = (
(104,594,qs),
(106,645,o),
(153,706,o),
(191,706,qs),
(220,706,o),
(264,690,qs),
(300,677,o),
(311,677,qs),
(326,677,o),
(333,697,qs),
(336,709,o),
(346,709,qs),
(402,709,ls),
(415,709,o),
(413,696,qs),
(402,587,o),
(326,587,qs),
(302,587,o),
(256,601,qs),
(218,613,o),
(211,613,qs),
(194,613,o),
(191,593,qs),
(189,581,o),
(178,581,qs),
(116,581,ls),
(104,581,o)
);
}
);
userData = {
assembly = "PUSHB[ ]	/* 6 values pushed */
1 1 0 3 1 76 
MPPEM[ ]	/* MeasurePixelPerEm */
PUSHB[ ]	/* 1 value pushed */
31 
LT[ ]	/* LessThan */
IF[ ]	/* If */
NPUSHB[ ]	/* 45 values pushed */
0 9 8 6 8 9 114 0 6 5 5 6 112 10 1 8 7 12 2 5 3 8 5 105 11 1 0 0 1 2 0 1 104 0 3 3 39 77 4 1 2 2 40 2 78 
ELSE[ ]	/* Else */
NPUSHB[ ]	/* 52 values pushed */
0 9 8 6 8 9 6 128 0 6 7 8 6 7 126 0 7 5 8 7 89 10 1 8 12 1 5 3 8 5 103 11 1 0 0 1 2 0 1 104 0 3 3 39 77 4 1 2 2 40 2 78 
EIF[ ]	/* EndIf */
NPUSHB[ ]	/* 33 values pushed */
26 24 0 0 47 45 43 41 39 36 34 32 30 28 24 50 26 50 22 19 16 13 9 6 4 3 0 2 0 2 13 9 22 
CALL[ ]	/* CallFunction */";
};
width = 538;
}
);
note = Atilde;
unicode = 195;
},
{
glyphname = Adieresis;
kernLeft = A;
kernRight = A;
layers = (
{
layerId = m01;
shapes = (
{
closed = 1;
nodes = (
(268,384,l),
(221,241,l),
(317,241,l)
);
},
{
closed = 1;
nodes = (
(140,0,o),
(129,0,qs),
(16,0,ls),
(3,0,o),
(7,13,qs),
(193,544,ls),
(197,556,o),
(208,556,qs),
(267,556,ls),
(310,556,o),
(356,518,o),
(374,466,qs),
(537,13,l),
(540,0,o),
(527,0,qs),
(412,0,ls),
(398,0,o),
(392,13,q),
(354,125,l),
(182,125,l),
(144,13,ls)
);
},
{
closed = 1;
nodes = (
(152,714,o),
(182,714,qs),
(212,714,o),
(254,672,o),
(254,643,qs),
(254,613,o),
(212,571,o),
(182,571,qs),
(152,571,o),
(111,613,o),
(111,643,qs),
(111,673,o)
);
},
{
closed = 1;
nodes = (
(323,714,o),
(353,714,qs),
(383,714,o),
(424,673,o),
(424,643,qs),
(424,613,o),
(383,571,o),
(353,571,qs),
(323,571,o),
(282,613,o),
(282,643,qs),
(282,673,o)
);
}
);
userData = {
assembly = "NPUSHB[ ]	/* 62 values pushed */
1 1 0 3 1 76 8 1 6 7 1 5 3 6 5 105 9 1 0 0 1 2 0 1 104 0 3 3 39 77 4 1 2 2 40 2 78 0 0 46 44 40 38 34 32 28 26 22 19 16 13 9 6 4 3 0 2 0 2 10 9 22 
CALL[ ]	/* CallFunction */";
};
width = 538;
}
);
note = Adieresis;
unicode = 196;
},
{
glyphname = Aring;
kernLeft = A;
kernRight = A;
layers = (
{
layerId = m01;
shapes = (
{
closed = 1;
nodes = (
(268,384,l),
(221,241,l),
(317,241,l)
);
},
{
closed = 1;
nodes = (
(140,0,o),
(129,0,qs),
(16,0,ls),
(3,0,o),
(7,13,qs),
(193,544,ls),
(197,556,o),
(208,556,qs),
(267,556,ls),
(310,556,o),
(356,518,o),
(374,466,qs),
(537,13,l),
(540,0,o),
(527,0,qs),
(412,0,ls),
(398,0,o),
(392,13,q),
(354,125,l),
(182,125,l),
(144,13,ls)
);
},
{
closed = 1;
nodes = (
(229,753,o),
(268,753,qs),
(306,753,o),
(360,700,o),
(360,663,qs),
(360,625,o),
(306,571,o),
(268,571,qs),
(229,571,o),
(174,624,o),
(174,663,qs),
(174,700,o)
);
},
{
closed = 1;
nodes = (
(297,650,o),
(297,663,qs),
(297,674,o),
(279,692,o),
(268,692,qs),
(256,692,o),
(238,675,o),
(238,663,qs),
(238,650,o),
(255,632,o),
(268,632,qs),
(279,632,o)
);
}
);
userData = {
assembly = "NPUSHB[ ]	/* 73 values pushed */
1 1 0 3 1 76 0 6 0 8 7 6 8 105 10 1 7 0 5 3 7 5 105 9 1 0 0 1 2 0 1 104 0 3 3 39 77 4 1 2 2 40 2 78 37 36 0 0 43 41 36 47 37 47 34 32 28 26 22 19 16 13 9 6 4 3 0 2 0 2 11 9 22 
CALL[ ]	/* CallFunction */";
};
width = 538;
}
);
note = Aring;
unicode = 197;
},
{
glyphname = AE;
kernRight = E;
layers = (
{
layerId = m01;
shapes = (
{
closed = 1;
nodes = (
(151,0,o),
(136,0,qs),
(16,0,ls),
(1,0,o),
(8,13,qs),
(292,542,ls),
(300,556,o),
(315,556,qs),
(657,556,ls),
(727,556,o),
(727,488,qs),
(727,448,ls),
(727,431,o),
(711,431,qs),
(509,431,l),
(509,344,l),
(639,344,ls),
(708,344,o),
(708,277,qs),
(708,238,ls),
(708,221,o),
(692,221,qs),
(509,221,l),
(509,125,l),
(665,125,ls),
(735,125,o),
(735,59,qs),
(735,17,ls),
(735,0,o),
(719,0,qs),
(387,0,ls),
(374,0,o),
(374,13,qs),
(374,118,l),
(211,118,l),
(157,13,ls)
);
},
{
closed = 1;
nodes = (
(374,432,l),
(272,234,l),
(374,234,l)
);
}
);
userData = {
assembly = "NPUSHB[ ]	/* 62 values pushed */
37 1 5 6 1 76 0 4 0 3 2 4 3 103 9 1 8 0 0 1 8 0 103 0 5 5 6 95 0 6 6 39 77 0 2 2 1 95 7 1 1 1 40 1 78 36 36 36 38 36 38 51 51 33 35 33 35 50 16 10 9 30 
CALL[ ]	/* CallFunction */";
};
width = 747;
}
);
note = AE;
unicode = 198;
},
{
glyphname = Ccedilla;
kernLeft = C;
kernRight = C;
layers = (
{
layerId = m01;
shapes = (
{
closed = 1;
nodes = (
(287,-127,o),
(265,-127,qs),
(171,-127,ls),
(157,-127,o),
(165,-112,q),
(235,-3,l),
(149,14,o),
(96,78,qs),
(34,154,o),
(34,276,qs),
(34,401,o),
(101,479,qs),
(176,566,o),
(305,566,qs),
(387,566,o),
(440,543,qs),
(498,518,o),
(482,457,qs),
(471,413,ls),
(467,401,o),
(458,401,qs),
(453,401,o),
(436,408,q),
(375,439,o),
(309,439,qs),
(251,439,o),
(216,405,qs),
(173,363,o),
(173,276,qs),
(173,204,o),
(209,162,qs),
(248,118,o),
(318,118,qs),
(397,118,o),
(461,177,qs),
(462,178,ls),
(472,186,o),
(478,186,qs),
(497,186,o),
(497,159,qs),
(497,114,o),
(468,72,qs),
(425,9,o),
(341,-5,q),
(295,-110,ls)
);
}
);
userData = {
assembly = "PUSHB[ ]	/* 6 values pushed */
38 1 5 1 1 76 
MPPEM[ ]	/* MeasurePixelPerEm */
PUSHB[ ]	/* 1 value pushed */
40 
LT[ ]	/* LessThan */
IF[ ]	/* If */
NPUSHB[ ]	/* 33 values pushed */
0 3 2 0 2 3 0 128 0 0 1 2 0 1 126 0 1 0 5 1 5 99 0 2 2 4 97 0 4 4 39 2 78 
ELSE[ ]	/* Else */
NPUSHB[ ]	/* 39 values pushed */
0 3 2 0 2 3 0 128 0 0 1 2 0 1 126 0 4 0 2 3 4 2 105 0 1 5 5 1 89 0 1 1 5 95 0 5 1 5 79 
EIF[ ]	/* EndIf */
NPUSHB[ ]	/* 9 values pushed */
57 37 34 38 36 21 6 9 28 
CALL[ ]	/* CallFunction */";
};
width = 507;
}
);
note = Ccedilla;
unicode = 199;
},
{
glyphname = Egrave;
kernRight = E;
layers = (
{
layerId = m01;
shapes = (
{
closed = 1;
nodes = (
(407,125,o),
(407,59,qs),
(407,17,ls),
(407,0,o),
(391,0,qs),
(59,0,ls),
(46,0,o),
(46,13,qs),
(46,542,ls),
(46,556,o),
(59,556,qs),
(329,556,ls),
(399,556,o),
(399,489,qs),
(399,447,ls),
(399,430,o),
(383,430,qs),
(182,430,l),
(182,344,l),
(310,344,ls),
(380,344,o),
(380,277,qs),
(380,237,ls),
(380,221,o),
(364,221,qs),
(182,221,l),
(182,125,l),
(337,125,ls)
);
},
{
closed = 1;
nodes = (
(59,702,o),
(65,702,qs),
(181,702,ls),
(198,702,o),
(210,691,qs),
(311,600,ls),
(316,596,o),
(311,585,o),
(305,585,qs),
(203,585,ls),
(181,585,o),
(167,597,qs),
(60,687,ls),
(55,691,o)
);
}
);
userData = {
assembly = "NPUSHB[ ]	/* 56 values pushed */
0 7 0 6 3 7 6 103 0 1 0 0 5 1 0 103 0 2 2 3 95 0 3 3 39 77 8 1 5 5 4 95 0 4 4 40 4 78 0 0 39 37 32 30 0 27 0 26 51 51 33 35 33 9 9 27 
CALL[ ]	/* CallFunction */";
};
width = 424;
}
);
note = Egrave;
unicode = 200;
},
{
glyphname = Eacute;
kernRight = E;
layers = (
{
layerId = m01;
shapes = (
{
closed = 1;
nodes = (
(407,125,o),
(407,59,qs),
(407,17,ls),
(407,0,o),
(391,0,qs),
(59,0,ls),
(46,0,o),
(46,13,qs),
(46,542,ls),
(46,556,o),
(59,556,qs),
(329,556,ls),
(399,556,o),
(399,489,qs),
(399,447,ls),
(399,430,o),
(383,430,qs),
(182,430,l),
(182,344,l),
(310,344,ls),
(380,344,o),
(380,277,qs),
(380,237,ls),
(380,221,o),
(364,221,qs),
(182,221,l),
(182,125,l),
(337,125,ls)
);
},
{
closed = 1;
nodes = (
(107,596,o),
(112,600,qs),
(212,691,ls),
(225,702,o),
(242,702,qs),
(357,702,ls),
(363,702,o),
(367,691,o),
(362,687,qs),
(255,597,ls),
(242,585,o),
(220,585,qs),
(117,585,ls),
(111,585,o)
);
}
);
userData = {
assembly = "NPUSHB[ ]	/* 61 values pushed */
0 7 9 1 6 3 7 6 103 0 1 0 0 5 1 0 103 0 2 2 3 95 0 3 3 39 77 8 1 5 5 4 95 0 4 4 40 4 78 30 28 0 0 37 34 28 41 30 41 0 27 0 26 51 51 33 35 33 10 9 27 
CALL[ ]	/* CallFunction */";
};
width = 424;
}
);
note = Eacute;
unicode = 201;
},
{
glyphname = Ecircumflex;
kernRight = E;
layers = (
{
layerId = m01;
shapes = (
{
closed = 1;
nodes = (
(409,125,o),
(409,59,qs),
(409,17,ls),
(409,0,o),
(393,0,qs),
(61,0,ls),
(48,0,o),
(48,13,qs),
(48,542,ls),
(48,556,o),
(61,556,qs),
(331,556,ls),
(401,556,o),
(401,489,qs),
(401,447,ls),
(401,430,o),
(385,430,qs),
(183,430,l),
(183,344,l),
(312,344,ls),
(382,344,o),
(382,277,qs),
(382,237,ls),
(382,221,o),
(366,221,qs),
(183,221,l),
(183,125,l),
(339,125,ls)
);
},
{
closed = 1;
nodes = (
(168,585,o),
(147,585,qs),
(56,585,ls),
(50,585,o),
(46,596,o),
(50,600,qs),
(137,691,ls),
(147,702,o),
(166,702,qs),
(268,702,ls),
(286,702,o),
(297,691,qs),
(384,600,ls),
(388,596,o),
(384,585,o),
(378,585,qs),
(288,585,ls),
(266,585,o),
(254,599,qs),
(217,642,l),
(180,599,ls)
);
}
);
userData = {
assembly = "NPUSHB[ ]	/* 59 values pushed */
0 7 8 1 6 3 7 6 103 0 1 0 0 5 1 0 103 0 2 2 3 95 0 3 3 39 77 9 1 5 5 4 95 0 4 4 40 4 78 0 0 47 44 40 37 32 30 0 27 0 26 51 51 33 35 33 10 9 27 
CALL[ ]	/* CallFunction */";
};
width = 424;
}
);
note = Ecircumflex;
unicode = 202;
},
{
glyphname = Edieresis;
kernRight = E;
layers = (
{
layerId = m01;
shapes = (
{
closed = 1;
nodes = (
(407,125,o),
(407,59,qs),
(407,17,ls),
(407,0,o),
(391,0,qs),
(59,0,ls),
(46,0,o),
(46,13,qs),
(46,542,ls),
(46,556,o),
(59,556,qs),
(329,556,ls),
(399,556,o),
(399,489,qs),
(399,447,ls),
(399,430,o),
(383,430,qs),
(182,430,l),
(182,344,l),
(310,344,ls),
(380,344,o),
(380,277,qs),
(380,237,ls),
(380,221,o),
(364,221,qs),
(182,221,l),
(182,125,l),
(337,125,ls)
);
},
{
closed = 1;
nodes = (
(106,714,o),
(136,714,qs),
(166,714,o),
(208,672,o),
(208,643,qs),
(208,613,o),
(166,571,o),
(136,571,qs),
(106,571,o),
(64,613,o),
(64,643,qs),
(64,673,o)
);
},
{
closed = 1;
nodes = (
(277,714,o),
(307,714,qs),
(336,714,o),
(378,673,o),
(378,643,qs),
(378,613,o),
(337,571,o),
(307,571,qs),
(277,571,o),
(235,613,o),
(235,643,qs),
(235,673,o)
);
}
);
userData = {
assembly = "NPUSHB[ ]	/* 62 values pushed */
9 1 7 8 1 6 3 7 6 105 0 1 0 0 5 1 0 103 0 2 2 3 95 0 3 3 39 77 10 1 5 5 4 95 0 4 4 40 4 78 0 0 50 48 44 42 38 36 32 30 0 27 0 26 51 51 33 35 33 11 9 27 
CALL[ ]	/* CallFunction */";
};
width = 424;
}
);
note = Edieresis;
unicode = 203;
},
{
glyphname = Igrave;
kernRight = I;
layers = (
{
layerId = m01;
shapes = (
{
closed = 1;
nodes = (
(51,556,o),
(64,556,qs),
(92,556,ls),
(142,556,o),
(187,508,o),
(187,455,qs),
(187,13,ls),
(187,0,o),
(173,0,qs),
(64,0,ls),
(51,0,o),
(51,13,qs),
(51,542,ls)
);
},
{
closed = 1;
nodes = (
(-15,702,o),
(-8,702,qs),
(107,702,ls),
(124,702,o),
(137,691,qs),
(237,600,ls),
(242,596,o),
(238,585,o),
(231,585,qs),
(129,585,ls),
(107,585,o),
(93,597,qs),
(-13,687,ls),
(-18,691,o)
);
}
);
userData = {
assembly = "NPUSHB[ ]	/* 26 values pushed */
0 3 0 2 1 3 2 103 0 1 1 39 77 0 0 0 40 0 78 52 52 52 49 4 9 26 
CALL[ ]	/* CallFunction */";
};
width = 227;
}
);
note = Igrave;
unicode = 204;
},
{
glyphname = Iacute;
kernRight = I;
layers = (
{
layerId = m01;
shapes = (
{
closed = 1;
nodes = (
(39,556,o),
(53,556,qs),
(80,556,ls),
(130,556,o),
(175,508,o),
(175,455,qs),
(175,13,ls),
(175,0,o),
(162,0,qs),
(53,0,ls),
(39,0,o),
(39,13,qs),
(39,542,ls)
);
},
{
closed = 1;
nodes = (
(-18,596,o),
(-13,600,qs),
(87,691,ls),
(100,702,o),
(117,702,qs),
(232,702,ls),
(239,702,o),
(243,691,o),
(237,687,q),
(131,597,ls),
(117,585,o),
(95,585,qs),
(-7,585,ls),
(-14,585,o)
);
}
);
userData = {
assembly = "NPUSHB[ ]	/* 33 values pushed */
0 3 4 1 2 1 3 2 103 0 1 1 39 77 0 0 0 40 0 78 15 13 22 19 13 26 15 26 52 49 5 9 24 
CALL[ ]	/* CallFunction */";
};
width = 227;
}
);
note = Iacute;
unicode = 205;
},
{
glyphname = Icircumflex;
kernRight = I;
layers = (
{
layerId = m01;
shapes = (
{
closed = 1;
nodes = (
(42,556,o),
(55,556,qs),
(83,556,ls),
(132,556,o),
(177,508,o),
(177,455,qs),
(177,13,ls),
(177,0,o),
(164,0,qs),
(55,0,ls),
(42,0,o),
(42,13,qs),
(42,542,ls)
);
},
{
closed = 1;
nodes = (
(63,585,o),
(42,585,qs),
(-49,585,ls),
(-55,585,o),
(-59,596,o),
(-55,600,qs),
(32,691,ls),
(42,702,o),
(61,702,qs),
(163,702,ls),
(181,702,o),
(192,691,qs),
(279,600,ls),
(283,596,o),
(279,585,o),
(273,585,qs),
(183,585,ls),
(161,585,o),
(149,599,qs),
(112,642,l),
(75,599,ls)
);
}
);
userData = {
assembly = "NPUSHB[ ]	/* 28 values pushed */
0 3 4 1 2 1 3 2 103 0 1 1 39 77 0 0 0 40 0 78 52 53 36 52 49 5 9 27 
CALL[ ]	/* CallFunction */";
};
width = 227;
}
);
note = Icircumflex;
unicode = 206;
},
{
glyphname = Idieresis;
kernRight = I;
layers = (
{
layerId = m01;
shapes = (
{
closed = 1;
nodes = (
(45,556,o),
(59,556,qs),
(87,556,ls),
(136,556,o),
(181,508,o),
(181,455,qs),
(181,13,ls),
(181,0,o),
(168,0,qs),
(59,0,ls),
(45,0,o),
(45,13,qs),
(45,542,ls)
);
},
{
closed = 1;
nodes = (
(-2,714,o),
(28,714,qs),
(57,714,o),
(99,672,o),
(99,643,qs),
(99,613,o),
(57,571,o),
(28,571,qs),
(-2,571,o),
(-44,613,o),
(-44,643,qs),
(-44,673,o)
);
},
{
closed = 1;
nodes = (
(169,714,o),
(198,714,qs),
(228,714,o),
(270,673,o),
(270,643,qs),
(270,613,o),
(228,571,o),
(198,571,qs),
(169,571,o),
(127,613,o),
(127,643,qs),
(127,673,o)
);
}
);
userData = {
assembly = "NPUSHB[ ]	/* 30 values pushed */
5 1 3 4 1 2 1 3 2 105 0 1 1 39 77 0 0 0 40 0 78 36 36 36 36 52 49 6 9 28 
CALL[ ]	/* CallFunction */";
};
width = 227;
}
);
note = Idieresis;
unicode = 207;
},
{
glyphname = Eth;
layers = (
{
layerId = m01;
shapes = (
{
closed = 1;
nodes = (
(15,222,o),
(15,235,qs),
(15,332,ls),
(15,344,o),
(28,344,qs),
(80,344,l),
(80,542,ls),
(80,556,o),
(92,556,qs),
(264,556,ls),
(383,556,o),
(455,509,qs),
(557,443,o),
(557,288,qs),
(557,153,o),
(486,80,qs),
(409,0,o),
(258,0,qs),
(92,0,ls),
(80,0,o),
(80,13,qs),
(80,222,l),
(28,222,ls)
);
},
{
closed = 1;
nodes = (
(335,125,o),
(373,160,qs),
(418,201,o),
(418,284,qs),
(418,358,o),
(382,394,qs),
(346,431,o),
(264,431,qs),
(215,431,l),
(215,344,l),
(272,344,ls),
(341,344,o),
(341,278,qs),
(341,239,ls),
(341,222,o),
(324,222,qs),
(215,222,l),
(215,125,l),
(269,125,ls)
);
}
);
userData = {
assembly = "NPUSHB[ ]	/* 57 values pushed */
5 1 2 4 8 2 3 7 2 3 105 0 6 6 1 95 0 1 1 39 77 9 1 7 7 0 95 0 0 0 40 0 78 23 23 0 0 23 41 23 40 34 32 31 29 26 24 0 22 0 21 34 54 50 10 9 25 
CALL[ ]	/* CallFunction */";
};
width = 591;
}
);
note = Eth;
unicode = 208;
},
{
glyphname = Ntilde;
kernRight = N;
layers = (
{
layerId = m01;
shapes = (
{
closed = 1;
nodes = (
(182,0,o),
(168,0,qs),
(59,0,ls),
(46,0,o),
(46,13,qs),
(46,542,ls),
(46,556,o),
(59,556,qs),
(111,556,ls),
(147,556,o),
(190,531,o),
(209,500,qs),
(357,261,l),
(357,542,ls),
(357,556,o),
(370,556,qs),
(398,556,ls),
(447,556,o),
(492,508,o),
(492,455,qs),
(492,13,ls),
(492,0,o),
(479,0,qs),
(385,0,ls),
(364,0,o),
(354,18,qs),
(182,297,l),
(182,13,ls)
);
},
{
closed = 1;
nodes = (
(117,594,qs),
(119,645,o),
(166,706,o),
(203,706,qs),
(232,706,o),
(276,690,qs),
(312,677,o),
(323,677,qs),
(338,677,o),
(345,697,qs),
(348,709,o),
(358,709,qs),
(414,709,ls),
(427,709,o),
(425,696,qs),
(414,587,o),
(338,587,qs),
(314,587,o),
(268,601,qs),
(230,613,o),
(223,613,qs),
(206,613,o),
(203,593,qs),
(202,581,o),
(190,581,qs),
(128,581,ls),
(117,581,o)
);
}
);
userData = {
assembly = "PUSHB[ ]	/* 7 values pushed */
14 0 2 0 1 1 76 
MPPEM[ ]	/* MeasurePixelPerEm */
PUSHB[ ]	/* 1 value pushed */
31 
LT[ ]	/* LessThan */
IF[ ]	/* If */
NPUSHB[ ]	/* 37 values pushed */
0 8 7 5 7 8 114 0 5 4 4 5 112 9 1 7 6 10 2 4 1 7 4 105 2 1 1 1 39 77 3 1 0 0 40 0 78 
ELSE[ ]	/* Else */
NPUSHB[ ]	/* 44 values pushed */
0 8 7 5 7 8 5 128 0 5 6 7 5 6 126 0 6 4 7 6 89 9 1 7 10 1 4 1 7 4 103 2 1 1 1 39 77 3 1 0 0 40 0 78 
EIF[ ]	/* EndIf */
NPUSHB[ ]	/* 23 values pushed */
30 28 51 49 47 45 43 40 38 36 34 32 28 54 30 54 51 53 52 50 11 9 26 
CALL[ ]	/* CallFunction */";
};
width = 537;
}
);
note = Ntilde;
unicode = 209;
},
{
glyphname = Ograve;
kernLeft = O;
kernRight = O;
layers = (
{
layerId = m01;
shapes = (
{
closed = 1;
nodes = (
(434,277,qs),
(434,439,o),
(303,439,qs),
(172,439,o),
(172,277,qs),
(172,118,o),
(303,118,qs),
(434,118,o)
);
},
{
closed = 1;
nodes = (
(113,58,qs),
(34,134,o),
(34,277,qs),
(34,402,o),
(96,478,qs),
(168,566,o),
(303,566,qs),
(421,566,o),
(492,498,qs),
(572,420,o),
(572,277,qs),
(572,153,o),
(511,78,qs),
(440,-9,o),
(303,-9,qs),
(184,-9,o)
);
},
{
closed = 1;
nodes = (
(161,702,o),
(168,702,qs),
(283,702,ls),
(300,702,o),
(313,691,qs),
(413,600,ls),
(418,596,o),
(414,585,o),
(407,585,qs),
(305,585,ls),
(283,585,o),
(270,597,qs),
(163,687,ls),
(158,691,o)
);
}
);
userData = {
assembly = "MPPEM[ ]	/* MeasurePixelPerEm */
PUSHB[ ]	/* 1 value pushed */
40 
LT[ ]	/* LessThan */
IF[ ]	/* If */
NPUSHB[ ]	/* 31 values pushed */
0 5 0 4 3 5 4 103 0 1 1 3 97 0 3 3 39 77 6 1 0 0 2 97 7 1 2 2 46 2 78 
ELSE[ ]	/* Else */
NPUSHB[ ]	/* 29 values pushed */
0 5 0 4 3 5 4 103 0 3 0 1 0 3 1 105 6 1 0 0 2 97 7 1 2 2 46 2 78 
EIF[ ]	/* EndIf */
NPUSHB[ ]	/* 23 values pushed */
9 8 1 0 36 33 29 26 17 15 8 23 9 23 5 3 0 7 1 7 8 9 22 
CALL[ ]	/* CallFunction */";
};
width = 606;
}
);
note = Ograve;
unicode = 210;
},
{
glyphname = Oacute;
kernLeft = O;
kernRight = O;
layers = (
{
layerId = m01;
shapes = (
{
closed = 1;
nodes = (
(434,277,qs),
(434,439,o),
(303,439,qs),
(172,439,o),
(172,277,qs),
(172,118,o),
(303,118,qs),
(434,118,o)
);
},
{
closed = 1;
nodes = (
(113,58,qs),
(34,134,o),
(34,277,qs),
(34,402,o),
(96,478,qs),
(168,566,o),
(303,566,qs),
(421,566,o),
(492,498,qs),
(572,420,o),
(572,277,qs),
(572,153,o),
(511,78,qs),
(440,-9,o),
(303,-9,qs),
(184,-9,o)
);
},
{
closed = 1;
nodes = (
(190,596,o),
(195,600,qs),
(295,691,ls),
(308,702,o),
(325,702,qs),
(440,702,ls),
(447,702,o),
(451,691,o),
(445,687,q),
(339,597,ls),
(325,585,o),
(303,585,qs),
(201,585,ls),
(194,585,o)
);
}
);
userData = {
assembly = "MPPEM[ ]	/* MeasurePixelPerEm */
PUSHB[ ]	/* 1 value pushed */
40 
LT[ ]	/* LessThan */
IF[ ]	/* If */
NPUSHB[ ]	/* 32 values pushed */
0 5 8 1 4 3 5 4 103 0 1 1 3 97 0 3 3 39 77 6 1 0 0 2 97 7 1 2 2 46 2 78 
ELSE[ ]	/* Else */
NPUSHB[ ]	/* 30 values pushed */
0 5 8 1 4 3 5 4 103 0 3 0 1 0 3 1 105 6 1 0 0 2 97 7 1 2 2 46 2 78 
EIF[ ]	/* EndIf */
NPUSHB[ ]	/* 27 values pushed */
26 24 9 8 1 0 33 30 24 37 26 37 17 15 8 23 9 23 5 3 0 7 1 7 9 9 22 
CALL[ ]	/* CallFunction */";
};
width = 606;
}
);
note = Oacute;
unicode = 211;
},
{
glyphname = Ocircumflex;
kernLeft = O;
kernRight = O;
layers = (
{
layerId = m01;
shapes = (
{
closed = 1;
nodes = (
(434,277,qs),
(434,439,o),
(303,439,qs),
(172,439,o),
(172,277,qs),
(172,118,o),
(303,118,qs),
(434,118,o)
);
},
{
closed = 1;
nodes = (
(113,58,qs),
(34,134,o),
(34,277,qs),
(34,402,o),
(96,478,qs),
(168,566,o),
(303,566,qs),
(421,566,o),
(492,498,qs),
(572,420,o),
(572,277,qs),
(572,153,o),
(511,78,qs),
(440,-9,o),
(303,-9,qs),
(184,-9,o)
);
},
{
closed = 1;
nodes = (
(258,585,o),
(237,585,qs),
(147,585,ls),
(141,585,o),
(136,596,o),
(141,600,q),
(227,691,ls),
(238,702,o),
(257,702,qs),
(358,702,ls),
(377,702,o),
(388,691,qs),
(475,600,ls),
(479,596,o),
(474,585,o),
(468,585,qs),
(378,585,ls),
(357,585,o),
(345,599,qs),
(308,642,l),
(271,599,ls)
);
}
);
userData = {
assembly = "MPPEM[ ]	/* MeasurePixelPerEm */
PUSHB[ ]	/* 1 value pushed */
40 
LT[ ]	/* LessThan */
IF[ ]	/* If */
NPUSHB[ ]	/* 32 values pushed */
0 5 6 1 4 3 5 4 103 0 1 1 3 97 0 3 3 39 77 7 1 0 0 2 97 8 1 2 2 46 2 78 
ELSE[ ]	/* Else */
NPUSHB[ ]	/* 30 values pushed */
0 5 6 1 4 3 5 4 103 0 3 0 1 0 3 1 105 7 1 0 0 2 97 8 1 2 2 46 2 78 
EIF[ ]	/* EndIf */
NPUSHB[ ]	/* 25 values pushed */
9 8 1 0 43 40 36 33 28 26 17 15 8 23 9 23 5 3 0 7 1 7 9 9 22 
CALL[ ]	/* CallFunction */";
};
width = 606;
}
);
note = Ocircumflex;
unicode = 212;
},
{
glyphname = Otilde;
kernLeft = O;
kernRight = O;
layers = (
{
layerId = m01;
shapes = (
{
closed = 1;
nodes = (
(434,277,qs),
(434,439,o),
(303,439,qs),
(172,439,o),
(172,277,qs),
(172,118,o),
(303,118,qs),
(434,118,o)
);
},
{
closed = 1;
nodes = (
(113,58,qs),
(34,134,o),
(34,277,qs),
(34,402,o),
(96,478,qs),
(168,566,o),
(303,566,qs),
(421,566,o),
(492,498,qs),
(572,420,o),
(572,277,qs),
(572,153,o),
(511,78,qs),
(440,-9,o),
(303,-9,qs),
(184,-9,o)
);
},
{
closed = 1;
nodes = (
(146,594,qs),
(148,645,o),
(195,706,o),
(233,706,qs),
(262,706,o),
(306,690,qs),
(342,677,o),
(353,677,qs),
(368,677,o),
(375,697,qs),
(378,709,o),
(388,709,qs),
(444,709,ls),
(457,709,o),
(455,696,qs),
(444,587,o),
(368,587,qs),
(344,587,o),
(297,601,qs),
(260,613,o),
(252,613,qs),
(236,613,o),
(233,593,qs),
(231,581,o),
(220,581,qs),
(157,581,ls),
(146,581,o)
);
}
);
userData = {
assembly = "MPPEM[ ]	/* MeasurePixelPerEm */
PUSHB[ ]	/* 1 value pushed */
31 
LT[ ]	/* LessThan */
IF[ ]	/* If */
NPUSHB[ ]	/* 47 values pushed */
0 8 7 5 7 8 114 0 5 4 4 5 112 9 1 7 6 12 2 4 3 7 4 105 0 1 1 3 97 0 3 3 39 77 10 1 0 0 2 97 11 1 2 2 46 2 78 
ELSE[ ]	/* Else */
MPPEM[ ]	/* MeasurePixelPerEm */
PUSHB[ ]	/* 1 value pushed */
40 
LT[ ]	/* LessThan */
IF[ ]	/* If */
NPUSHB[ ]	/* 54 values pushed */
0 8 7 5 7 8 5 128 0 5 6 7 5 6 126 0 6 4 7 6 89 9 1 7 12 1 4 3 7 4 103 0 1 1 3 97 0 3 3 39 77 10 1 0 0 2 97 11 1 2 2 46 2 78 
ELSE[ ]	/* Else */
NPUSHB[ ]	/* 52 values pushed */
0 8 7 5 7 8 5 128 0 5 6 7 5 6 126 0 6 4 7 6 89 9 1 7 12 1 4 3 7 4 103 0 3 0 1 0 3 1 105 10 1 0 0 2 97 11 1 2 2 46 2 78 
EIF[ ]	/* EndIf */
EIF[ ]	/* EndIf */
NPUSHB[ ]	/* 35 values pushed */
26 24 9 8 1 0 47 45 43 41 39 36 34 32 30 28 24 50 26 50 17 15 8 23 9 23 5 3 0 7 1 7 13 9 22 
CALL[ ]	/* CallFunction */";
};
width = 606;
}
);
note = Otilde;
unicode = 213;
},
{
glyphname = Odieresis;
kernLeft = O;
kernRight = O;
layers = (
{
layerId = m01;
shapes = (
{
closed = 1;
nodes = (
(434,277,qs),
(434,439,o),
(303,439,qs),
(172,439,o),
(172,277,qs),
(172,118,o),
(303,118,qs),
(434,118,o)
);
},
{
closed = 1;
nodes = (
(113,58,qs),
(34,134,o),
(34,277,qs),
(34,402,o),
(96,478,qs),
(168,566,o),
(303,566,qs),
(421,566,o),
(492,498,qs),
(572,420,o),
(572,277,qs),
(572,153,o),
(511,78,qs),
(440,-9,o),
(303,-9,qs),
(184,-9,o)
);
},
{
closed = 1;
nodes = (
(193,714,o),
(222,714,qs),
(252,714,o),
(294,672,o),
(294,643,qs),
(294,613,o),
(252,571,o),
(222,571,qs),
(192,571,o),
(151,613,o),
(151,643,qs),
(151,673,o)
);
},
{
closed = 1;
nodes = (
(363,714,o),
(393,714,qs),
(423,714,o),
(465,673,o),
(465,643,qs),
(465,613,o),
(423,571,o),
(393,571,qs),
(363,571,o),
(322,613,o),
(322,643,qs),
(322,673,o)
);
}
);
userData = {
assembly = "MPPEM[ ]	/* MeasurePixelPerEm */
PUSHB[ ]	/* 1 value pushed */
40 
LT[ ]	/* LessThan */
IF[ ]	/* If */
NPUSHB[ ]	/* 33 values pushed */
7 1 5 6 1 4 3 5 4 105 0 1 1 3 97 0 3 3 39 77 8 1 0 0 2 97 9 1 2 2 46 2 78 
ELSE[ ]	/* Else */
NPUSHB[ ]	/* 31 values pushed */
7 1 5 6 1 4 3 5 4 105 0 3 0 1 0 3 1 105 8 1 0 0 2 97 9 1 2 2 46 2 78 
EIF[ ]	/* EndIf */
NPUSHB[ ]	/* 27 values pushed */
9 8 1 0 46 44 40 38 34 32 28 26 17 15 8 23 9 23 5 3 0 7 1 7 10 9 22 
CALL[ ]	/* CallFunction */";
};
width = 606;
}
);
note = Odieresis;
unicode = 214;
},
{
glyphname = multiply;
layers = (
{
layerId = m01;
shapes = (
{
closed = 1;
nodes = (
(28,389,o),
(37,398,qs),
(43,404,ls),
(78,439,o),
(132,441,o),
(164,408,qs),
(221,352,l),
(315,447,ls),
(324,456,o),
(334,447,qs),
(391,389,ls),
(400,381,o),
(391,372,qs),
(296,276,l),
(402,171,ls),
(412,161,o),
(402,152,qs),
(397,147,ls),
(362,112,o),
(307,110,o),
(275,143,qs),
(219,200,l),
(123,104,ls),
(114,95,o),
(105,104,qs),
(49,161,ls),
(40,170,o),
(49,180,qs),
(143,274,l),
(37,381,ls)
);
}
);
userData = {
assembly = "NPUSHB[ ]	/* 22 values pushed */
22 15 7 3 0 1 1 76 0 1 0 1 133 0 0 0 118 30 25 2 9 24 
CALL[ ]	/* CallFunction */";
};
width = 432;
}
);
note = multiply;
unicode = 215;
},
{
glyphname = Oslash;
kernLeft = O;
kernRight = O;
layers = (
{
layerId = m01;
shapes = (
{
closed = 1;
nodes = (
(323,439,o),
(303,439,qs),
(172,439,o),
(172,277,qs),
(172,233,o),
(185,195,q),
(337,437,l)
);
},
{
closed = 1;
nodes = (
(284,118,o),
(303,118,qs),
(435,118,o),
(435,277,qs),
(435,326,o),
(423,359,q),
(271,121,l)
);
},
{
closed = 1;
nodes = (
(113,58,qs),
(34,134,o),
(34,277,qs),
(34,402,o),
(96,478,qs),
(168,566,o),
(303,566,qs),
(421,566,o),
(492,498,qs),
(572,420,o),
(572,277,qs),
(572,152,o),
(511,78,qs),
(439,-9,o),
(303,-9,qs),
(184,-9,o)
);
}
);
userData = {
assembly = "PUSHB[ ]	/* 7 values pushed */
13 6 2 1 0 1 76 
MPPEM[ ]	/* MeasurePixelPerEm */
PUSHB[ ]	/* 1 value pushed */
40 
LT[ ]	/* LessThan */
IF[ ]	/* If */
NPUSHB[ ]	/* 22 values pushed */
0 0 0 3 97 0 3 3 39 77 0 1 1 2 97 4 1 2 2 46 2 78 
ELSE[ ]	/* Else */
NPUSHB[ ]	/* 20 values pushed */
0 3 0 0 1 3 0 105 0 1 1 2 97 4 1 2 2 46 2 78 
EIF[ ]	/* EndIf */
NPUSHB[ ]	/* 13 values pushed */
15 14 23 21 14 29 15 29 37 35 5 9 24 
CALL[ ]	/* CallFunction */";
};
width = 606;
}
);
note = Oslash;
unicode = 216;
},
{
glyphname = Ugrave;
kernLeft = U;
kernRight = U;
layers = (
{
layerId = m01;
shapes = (
{
closed = 1;
nodes = (
(43,556,o),
(56,556,qs),
(84,556,ls),
(133,556,o),
(178,508,o),
(178,455,qs),
(178,233,ls),
(178,117,o),
(262,117,qs),
(351,117,o),
(351,232,qs),
(351,542,ls),
(351,556,o),
(364,556,qs),
(392,556,ls),
(441,556,o),
(486,508,o),
(486,455,qs),
(486,211,ls),
(486,137,o),
(454,83,qs),
(399,-9,o),
(262,-9,qs),
(142,-9,o),
(86,65,qs),
(43,122,o),
(43,211,qs),
(43,542,ls)
);
},
{
closed = 1;
nodes = (
(111,702,o),
(118,702,qs),
(234,702,ls),
(251,702,o),
(263,691,qs),
(364,600,ls),
(368,596,o),
(364,585,o),
(357,585,qs),
(255,585,ls),
(233,585,o),
(220,597,qs),
(113,687,ls),
(108,691,o)
);
}
);
userData = {
assembly = "NPUSHB[ ]	/* 34 values pushed */
0 5 0 4 1 5 4 103 3 1 1 1 39 77 0 2 2 0 98 0 0 0 46 0 78 52 52 52 35 54 35 6 9 28 
CALL[ ]	/* CallFunction */";
};
width = 528;
}
);
note = Ugrave;
unicode = 217;
},
{
glyphname = Uacute;
kernLeft = U;
kernRight = U;
layers = (
{
layerId = m01;
shapes = (
{
closed = 1;
nodes = (
(43,556,o),
(56,556,qs),
(84,556,ls),
(133,556,o),
(178,508,o),
(178,455,qs),
(178,233,ls),
(178,117,o),
(262,117,qs),
(351,117,o),
(351,232,qs),
(351,542,ls),
(351,556,o),
(364,556,qs),
(392,556,ls),
(441,556,o),
(486,508,o),
(486,455,qs),
(486,211,ls),
(486,137,o),
(454,83,qs),
(399,-9,o),
(262,-9,qs),
(142,-9,o),
(86,65,qs),
(43,122,o),
(43,211,qs),
(43,542,ls)
);
},
{
closed = 1;
nodes = (
(141,596,o),
(146,600,qs),
(246,691,ls),
(259,702,o),
(276,702,qs),
(391,702,ls),
(398,702,o),
(401,691,o),
(396,687,qs),
(290,597,ls),
(276,585,o),
(254,585,qs),
(151,585,ls),
(145,585,o)
);
}
);
userData = {
assembly = "NPUSHB[ ]	/* 41 values pushed */
0 5 6 1 4 1 5 4 103 3 1 1 1 39 77 0 2 2 0 98 0 0 0 46 0 78 30 28 37 34 28 41 30 41 52 35 54 35 7 9 26 
CALL[ ]	/* CallFunction */";
};
width = 528;
}
);
note = Uacute;
unicode = 218;
},
{
glyphname = Ucircumflex;
kernLeft = U;
kernRight = U;
layers = (
{
layerId = m01;
shapes = (
{
closed = 1;
nodes = (
(43,556,o),
(56,556,qs),
(84,556,ls),
(133,556,o),
(178,508,o),
(178,455,qs),
(178,233,ls),
(178,117,o),
(262,117,qs),
(351,117,o),
(351,232,qs),
(351,542,ls),
(351,556,o),
(364,556,qs),
(392,556,ls),
(441,556,o),
(486,508,o),
(486,455,qs),
(486,211,ls),
(486,137,o),
(454,83,qs),
(399,-9,o),
(262,-9,qs),
(142,-9,o),
(86,65,qs),
(43,122,o),
(43,211,qs),
(43,542,ls)
);
},
{
closed = 1;
nodes = (
(217,585,o),
(196,585,qs),
(106,585,ls),
(100,585,o),
(95,596,o),
(100,600,q),
(186,691,ls),
(197,702,o),
(216,702,qs),
(317,702,ls),
(336,702,o),
(347,691,qs),
(434,600,ls),
(438,596,o),
(433,585,o),
(427,585,qs),
(337,585,ls),
(316,585,o),
(304,599,qs),
(267,642,l),
(230,599,ls)
);
}
);
userData = {
assembly = "NPUSHB[ ]	/* 36 values pushed */
0 5 6 1 4 1 5 4 103 3 1 1 1 39 77 0 2 2 0 98 0 0 0 46 0 78 52 53 36 52 35 54 35 7 9 29 
CALL[ ]	/* CallFunction */";
};
width = 528;
}
);
note = Ucircumflex;
unicode = 219;
},
{
glyphname = Udieresis;
kernLeft = U;
kernRight = U;
layers = (
{
layerId = m01;
shapes = (
{
closed = 1;
nodes = (
(43,556,o),
(56,556,qs),
(84,556,ls),
(133,556,o),
(178,508,o),
(178,455,qs),
(178,233,ls),
(178,117,o),
(262,117,qs),
(351,117,o),
(351,232,qs),
(351,542,ls),
(351,556,o),
(364,556,qs),
(392,556,ls),
(441,556,o),
(486,508,o),
(486,455,qs),
(486,211,ls),
(486,137,o),
(454,83,qs),
(399,-9,o),
(262,-9,qs),
(142,-9,o),
(86,65,qs),
(43,122,o),
(43,211,qs),
(43,542,ls)
);
},
{
closed = 1;
nodes = (
(147,714,o),
(177,714,qs),
(206,714,o),
(249,672,o),
(249,643,qs),
(249,613,o),
(207,571,o),
(177,571,qs),
(147,571,o),
(105,613,o),
(105,643,qs),
(105,673,o)
);
},
{
closed = 1;
nodes = (
(318,714,o),
(347,714,qs),
(377,714,o),
(419,673,o),
(419,643,qs),
(419,613,o),
(377,571,o),
(347,571,qs),
(318,571,o),
(276,613,o),
(276,643,qs),
(276,673,o)
);
}
);
userData = {
assembly = "NPUSHB[ ]	/* 38 values pushed */
7 1 5 6 1 4 1 5 4 105 3 1 1 1 39 77 0 2 2 0 98 0 0 0 46 0 78 36 36 36 36 52 35 54 35 8 9 30 
CALL[ ]	/* CallFunction */";
};
width = 528;
}
);
note = Udieresis;
unicode = 220;
},
{
glyphname = Yacute;
kernLeft = Y;
kernRight = Y;
layers = (
{
layerId = m01;
shapes = (
{
closed = 1;
nodes = (
(-4,556,o),
(10,556,qs),
(80,556,ls),
(148,556,o),
(179,495,qs),
(255,346,l),
(353,542,ls),
(360,556,o),
(373,556,qs),
(491,556,ls),
(505,556,o),
(499,542,q),
(317,199,l),
(317,13,ls),
(317,0,o),
(304,0,qs),
(195,0,ls),
(182,0,o),
(182,13,qs),
(182,203,l),
(2,542,l)
);
},
{
closed = 1;
nodes = (
(141,596,o),
(146,600,qs),
(246,691,ls),
(259,702,o),
(276,702,qs),
(391,702,ls),
(398,702,o),
(402,691,o),
(396,687,q),
(290,597,ls),
(276,585,o),
(255,585,qs),
(152,585,ls),
(145,585,o)
);
}
);
userData = {
assembly = "NPUSHB[ ]	/* 43 values pushed */
14 7 0 3 0 1 1 76 0 4 5 1 3 1 4 3 103 2 1 1 1 39 77 0 0 0 40 0 78 23 21 30 27 21 34 23 34 52 52 50 6 9 25 
CALL[ ]	/* CallFunction */";
};
width = 492;
}
);
note = Yacute;
unicode = 221;
},
{
glyphname = Thorn;
layers = (
{
layerId = m01;
shapes = (
{
closed = 1;
nodes = (
(180,0,o),
(168,0,qs),
(59,0,ls),
(46,0,o),
(46,13,qs),
(46,542,ls),
(46,556,o),
(59,556,qs),
(87,556,ls),
(134,556,o),
(178,512,o),
(180,464,q),
(258,464,ls),
(472,464,o),
(472,281,qs),
(472,203,o),
(425,150,qs),
(369,88,o),
(273,88,qs),
(180,88,l),
(180,13,ls)
);
},
{
closed = 1;
nodes = (
(338,213,o),
(338,278,qs),
(338,339,o),
(267,339,qs),
(180,339,l),
(180,213,l),
(267,213,ls)
);
}
);
userData = {
assembly = "NPUSHB[ ]	/* 42 values pushed */
0 1 0 4 5 1 4 103 6 1 5 0 0 3 5 0 103 0 2 2 39 77 0 3 3 40 3 78 21 21 21 27 21 26 35 51 50 36 32 7 9 27 
CALL[ ]	/* CallFunction */";
};
width = 494;
}
);
note = Thorn;
unicode = 222;
},
{
glyphname = germandbls;
layers = (
{
layerId = m01;
shapes = (
{
closed = 1;
nodes = (
(36,13,qs),
(36,399,ls),
(36,472,o),
(83,516,qs),
(136,566,o),
(229,566,qs),
(316,566,o),
(362,526,qs),
(402,491,o),
(402,443,qs),
(402,409,o),
(367,363,qs),
(339,325,o),
(339,314,qs),
(339,295,o),
(376,272,qs),
(429,239,o),
(445,223,qs),
(482,185,o),
(482,131,qs),
(482,74,o),
(451,37,qs),
(412,-10,o),
(335,-10,qs),
(275,-10,o),
(235,26,qs),
(193,64,o),
(193,118,qs),
(193,140,o),
(208,140,qs),
(213,140,o),
(218,135,qs),
(259,95,o),
(307,95,qs),
(340,95,o),
(340,124,qs),
(340,143,o),
(296,168,qs),
(250,195,o),
(215,243,o),
(215,279,qs),
(215,307,o),
(246,347,qs),
(272,381,o),
(284,402,o),
(284,416,qs),
(284,435,o),
(255,458,o),
(230,458,qs),
(169,458,o),
(169,386,qs),
(169,13,ls),
(169,0,o),
(155,0,qs),
(49,0,ls),
(36,0,o)
);
}
);
userData = {
assembly = "MPPEM[ ]	/* MeasurePixelPerEm */
PUSHB[ ]	/* 1 value pushed */
19 
LT[ ]	/* LessThan */
IF[ ]	/* If */
NPUSHB[ ]	/* 31 values pushed */
0 3 1 2 1 3 2 128 0 1 1 5 97 0 5 5 39 77 0 2 2 0 97 4 6 2 0 0 40 0 78 
ELSE[ ]	/* Else */
MPPEM[ ]	/* MeasurePixelPerEm */
PUSHB[ ]	/* 1 value pushed */
40 
LT[ ]	/* LessThan */
IF[ ]	/* If */
NPUSHB[ ]	/* 35 values pushed */
0 3 1 2 1 3 2 128 0 1 1 5 97 0 5 5 39 77 6 1 0 0 40 77 0 2 2 4 97 0 4 4 46 4 78 
ELSE[ ]	/* Else */
NPUSHB[ ]	/* 33 values pushed */
0 3 1 2 1 3 2 128 0 5 0 1 3 5 1 105 6 1 0 0 40 77 0 2 2 4 97 0 4 4 46 4 78 
EIF[ ]	/* EndIf */
EIF[ ]	/* EndIf */
NPUSHB[ ]	/* 19 values pushed */
2 0 50 48 32 30 26 24 22 20 7 5 0 55 2 55 7 9 22 
CALL[ ]	/* CallFunction */";
};
width = 492;
}
);
note = germandbls;
unicode = 223;
},
{
glyphname = agrave;
kernLeft = a;
layers = (
{
layerId = m01;
shapes = (
{
closed = 1;
nodes = (
(201,-8,qs),
(122,-8,o),
(75,45,qs),
(24,101,o),
(24,196,qs),
(24,276,o),
(66,331,qs),
(116,397,o),
(203,397,qs),
(277,397,o),
(318,353,q),
(338,386,o),
(400,386,qs),
(417,386,ls),
(430,386,o),
(430,373,qs),
(430,13,ls),
(430,0,o),
(417,0,qs),
(310,0,ls),
(297,0,o),
(297,13,qs),
(297,28,l),
(258,-8,o)
);
},
{
closed = 1;
nodes = (
(297,158,o),
(297,195,qs),
(297,272,o),
(231,272,qs),
(198,272,o),
(161,231,o),
(161,195,qs),
(161,158,o),
(199,114,o),
(231,114,qs),
(262,114,o)
);
},
{
closed = 1;
nodes = (
(87,543,o),
(94,543,qs),
(210,543,ls),
(227,543,o),
(239,532,qs),
(340,441,ls),
(344,437,o),
(340,426,o),
(333,426,qs),
(231,426,ls),
(209,426,o),
(196,438,qs),
(89,528,ls),
(84,532,o)
);
}
);
userData = {
assembly = "NPUSHB[ ]	/* 10 values pushed */
12 1 5 1 0 1 0 4 2 76 
MPPEM[ ]	/* MeasurePixelPerEm */
PUSHB[ ]	/* 1 value pushed */
17 
LT[ ]	/* LessThan */
IF[ ]	/* If */
NPUSHB[ ]	/* 34 values pushed */
0 6 6 7 95 0 7 7 39 77 0 5 5 1 97 2 1 1 1 42 77 8 1 4 4 0 97 3 1 0 0 40 0 78 
ELSE[ ]	/* Else */
MPPEM[ ]	/* MeasurePixelPerEm */
PUSHB[ ]	/* 1 value pushed */
23 
LT[ ]	/* LessThan */
IF[ ]	/* If */
NPUSHB[ ]	/* 38 values pushed */
0 6 6 7 95 0 7 7 39 77 0 1 1 42 77 0 5 5 2 97 0 2 2 48 77 8 1 4 4 0 97 3 1 0 0 40 0 78 
ELSE[ ]	/* Else */
MPPEM[ ]	/* MeasurePixelPerEm */
PUSHB[ ]	/* 1 value pushed */
31 
LT[ ]	/* LessThan */
IF[ ]	/* If */
NPUSHB[ ]	/* 42 values pushed */
0 6 6 7 95 0 7 7 39 77 0 1 1 42 77 0 5 5 2 97 0 2 2 48 77 0 0 0 40 77 8 1 4 4 3 97 0 3 3 46 3 78 
ELSE[ ]	/* Else */
NPUSHB[ ]	/* 40 values pushed */
0 7 0 6 2 7 6 103 0 1 1 42 77 0 5 5 2 97 0 2 2 48 77 0 0 0 40 77 8 1 4 4 3 97 0 3 3 46 3 78 
EIF[ ]	/* EndIf */
EIF[ ]	/* EndIf */
EIF[ ]	/* EndIf */
NPUSHB[ ]	/* 19 values pushed */
25 24 47 44 40 37 31 29 24 34 25 34 38 34 51 50 9 9 26 
CALL[ ]	/* CallFunction */";
};
width = 464;
}
);
note = agrave;
unicode = 224;
},
{
glyphname = aacute;
kernLeft = a;
layers = (
{
layerId = m01;
shapes = (
{
closed = 1;
nodes = (
(201,-8,qs),
(122,-8,o),
(75,45,qs),
(24,101,o),
(24,196,qs),
(24,276,o),
(66,331,qs),
(116,397,o),
(203,397,qs),
(277,397,o),
(318,353,q),
(338,386,o),
(400,386,qs),
(417,386,ls),
(430,386,o),
(430,373,qs),
(430,13,ls),
(430,0,o),
(417,0,qs),
(310,0,ls),
(297,0,o),
(297,13,qs),
(297,28,l),
(258,-8,o)
);
},
{
closed = 1;
nodes = (
(297,158,o),
(297,195,qs),
(297,272,o),
(231,272,qs),
(198,272,o),
(161,231,o),
(161,195,qs),
(161,158,o),
(199,114,o),
(231,114,qs),
(262,114,o)
);
},
{
closed = 1;
nodes = (
(126,437,o),
(131,441,qs),
(231,532,ls),
(244,543,o),
(261,543,qs),
(376,543,ls),
(383,543,o),
(387,532,o),
(381,528,q),
(275,438,ls),
(261,426,o),
(240,426,qs),
(137,426,ls),
(130,426,o)
);
}
);
userData = {
assembly = "NPUSHB[ ]	/* 10 values pushed */
12 1 5 1 0 1 0 4 2 76 
MPPEM[ ]	/* MeasurePixelPerEm */
PUSHB[ ]	/* 1 value pushed */
17 
LT[ ]	/* LessThan */
IF[ ]	/* If */
NPUSHB[ ]	/* 35 values pushed */
9 1 6 6 7 95 0 7 7 39 77 0 5 5 1 97 2 1 1 1 42 77 8 1 4 4 0 97 3 1 0 0 40 0 78 
ELSE[ ]	/* Else */
MPPEM[ ]	/* MeasurePixelPerEm */
PUSHB[ ]	/* 1 value pushed */
23 
LT[ ]	/* LessThan */
IF[ ]	/* If */
NPUSHB[ ]	/* 39 values pushed */
9 1 6 6 7 95 0 7 7 39 77 0 1 1 42 77 0 5 5 2 97 0 2 2 48 77 8 1 4 4 0 97 3 1 0 0 40 0 78 
ELSE[ ]	/* Else */
MPPEM[ ]	/* MeasurePixelPerEm */
PUSHB[ ]	/* 1 value pushed */
31 
LT[ ]	/* LessThan */
IF[ ]	/* If */
NPUSHB[ ]	/* 43 values pushed */
9 1 6 6 7 95 0 7 7 39 77 0 1 1 42 77 0 5 5 2 97 0 2 2 48 77 0 0 0 40 77 8 1 4 4 3 97 0 3 3 46 3 78 
ELSE[ ]	/* Else */
NPUSHB[ ]	/* 41 values pushed */
0 7 9 1 6 2 7 6 103 0 1 1 42 77 0 5 5 2 97 0 2 2 48 77 0 0 0 40 77 8 1 4 4 3 97 0 3 3 46 3 78 
EIF[ ]	/* EndIf */
EIF[ ]	/* EndIf */
EIF[ ]	/* EndIf */
NPUSHB[ ]	/* 23 values pushed */
37 35 25 24 44 41 35 48 37 48 31 29 24 34 25 34 38 34 51 50 10 9 26 
CALL[ ]	/* CallFunction */";
};
width = 464;
}
);
note = aacute;
unicode = 225;
},
{
glyphname = acircumflex;
kernLeft = a;
layers = (
{
layerId = m01;
shapes = (
{
closed = 1;
nodes = (
(201,-8,qs),
(122,-8,o),
(75,45,qs),
(24,101,o),
(24,196,qs),
(24,276,o),
(66,331,qs),
(116,397,o),
(203,397,qs),
(277,397,o),
(318,353,q),
(338,386,o),
(400,386,qs),
(417,386,ls),
(430,386,o),
(430,373,qs),
(430,13,ls),
(430,0,o),
(417,0,qs),
(310,0,ls),
(297,0,o),
(297,13,qs),
(297,28,l),
(258,-8,o)
);
},
{
closed = 1;
nodes = (
(297,158,o),
(297,195,qs),
(297,272,o),
(231,272,qs),
(198,272,o),
(161,231,o),
(161,195,qs),
(161,158,o),
(199,114,o),
(231,114,qs),
(262,114,o)
);
},
{
closed = 1;
nodes = (
(191,426,o),
(170,426,qs),
(79,426,ls),
(73,426,o),
(69,437,o),
(73,441,qs),
(160,532,ls),
(170,543,o),
(189,543,qs),
(291,543,ls),
(309,543,o),
(320,532,qs),
(407,441,ls),
(411,437,o),
(407,426,o),
(401,426,qs),
(311,426,ls),
(289,426,o),
(277,440,qs),
(240,483,l),
(203,440,ls)
);
}
);
userData = {
assembly = "NPUSHB[ ]	/* 10 values pushed */
12 1 5 1 0 1 0 4 2 76 
MPPEM[ ]	/* MeasurePixelPerEm */
PUSHB[ ]	/* 1 value pushed */
17 
LT[ ]	/* LessThan */
IF[ ]	/* If */
NPUSHB[ ]	/* 35 values pushed */
8 1 6 6 7 95 0 7 7 39 77 0 5 5 1 97 2 1 1 1 42 77 9 1 4 4 0 97 3 1 0 0 40 0 78 
ELSE[ ]	/* Else */
MPPEM[ ]	/* MeasurePixelPerEm */
PUSHB[ ]	/* 1 value pushed */
23 
LT[ ]	/* LessThan */
IF[ ]	/* If */
NPUSHB[ ]	/* 39 values pushed */
8 1 6 6 7 95 0 7 7 39 77 0 1 1 42 77 0 5 5 2 97 0 2 2 48 77 9 1 4 4 0 97 3 1 0 0 40 0 78 
ELSE[ ]	/* Else */
MPPEM[ ]	/* MeasurePixelPerEm */
PUSHB[ ]	/* 1 value pushed */
31 
LT[ ]	/* LessThan */
IF[ ]	/* If */
NPUSHB[ ]	/* 43 values pushed */
8 1 6 6 7 95 0 7 7 39 77 0 1 1 42 77 0 5 5 2 97 0 2 2 48 77 0 0 0 40 77 9 1 4 4 3 97 0 3 3 46 3 78 
ELSE[ ]	/* Else */
NPUSHB[ ]	/* 41 values pushed */
0 7 8 1 6 2 7 6 103 0 1 1 42 77 0 5 5 2 97 0 2 2 48 77 0 0 0 40 77 9 1 4 4 3 97 0 3 3 46 3 78 
EIF[ ]	/* EndIf */
EIF[ ]	/* EndIf */
EIF[ ]	/* EndIf */
NPUSHB[ ]	/* 21 values pushed */
25 24 54 51 47 44 39 37 31 29 24 34 25 34 38 34 51 50 10 9 26 
CALL[ ]	/* CallFunction */";
};
width = 464;
}
);
note = acircumflex;
unicode = 226;
},
{
glyphname = atilde;
kernLeft = a;
layers = (
{
layerId = m01;
shapes = (
{
closed = 1;
nodes = (
(201,-8,qs),
(122,-8,o),
(75,45,qs),
(24,101,o),
(24,196,qs),
(24,276,o),
(66,331,qs),
(116,397,o),
(203,397,qs),
(277,397,o),
(318,353,q),
(338,386,o),
(400,386,qs),
(417,386,ls),
(430,386,o),
(430,373,qs),
(430,13,ls),
(430,0,o),
(417,0,qs),
(310,0,ls),
(297,0,o),
(297,13,qs),
(297,28,l),
(258,-8,o)
);
},
{
closed = 1;
nodes = (
(297,158,o),
(297,195,qs),
(297,272,o),
(231,272,qs),
(198,272,o),
(161,231,o),
(161,195,qs),
(161,158,o),
(199,114,o),
(231,114,qs),
(262,114,o)
);
},
{
closed = 1;
nodes = (
(86,435,qs),
(88,486,o),
(135,547,o),
(173,547,qs),
(202,547,o),
(246,531,qs),
(282,518,o),
(293,518,qs),
(308,518,o),
(315,538,qs),
(318,551,o),
(328,551,qs),
(384,551,ls),
(397,551,o),
(395,537,qs),
(384,428,o),
(308,428,qs),
(284,428,o),
(237,442,qs),
(200,454,o),
(192,454,qs),
(176,454,o),
(173,434,qs),
(171,422,o),
(160,422,qs),
(97,422,ls),
(86,422,o)
);
}
);
userData = {
assembly = "NPUSHB[ ]	/* 10 values pushed */
12 1 5 1 0 1 0 4 2 76 
MPPEM[ ]	/* MeasurePixelPerEm */
PUSHB[ ]	/* 1 value pushed */
17 
LT[ ]	/* LessThan */
IF[ ]	/* If */
NPUSHB[ ]	/* 50 values pushed */
0 10 9 7 9 10 114 0 7 6 6 7 112 8 13 2 6 6 9 98 11 1 9 9 39 77 0 5 5 1 97 2 1 1 1 42 77 12 1 4 4 0 97 3 1 0 0 40 0 78 
ELSE[ ]	/* Else */
MPPEM[ ]	/* MeasurePixelPerEm */
PUSHB[ ]	/* 1 value pushed */
23 
LT[ ]	/* LessThan */
IF[ ]	/* If */
NPUSHB[ ]	/* 54 values pushed */
0 10 9 7 9 10 114 0 7 6 6 7 112 8 13 2 6 6 9 98 11 1 9 9 39 77 0 1 1 42 77 0 5 5 2 97 0 2 2 48 77 12 1 4 4 0 97 3 1 0 0 40 0 78 
ELSE[ ]	/* Else */
MPPEM[ ]	/* MeasurePixelPerEm */
PUSHB[ ]	/* 1 value pushed */
30 
LT[ ]	/* LessThan */
IF[ ]	/* If */
NPUSHB[ ]	/* 58 values pushed */
0 10 9 7 9 10 114 0 7 6 6 7 112 8 13 2 6 6 9 98 11 1 9 9 39 77 0 1 1 42 77 0 5 5 2 97 0 2 2 48 77 0 0 0 40 77 12 1 4 4 3 97 0 3 3 46 3 78 
ELSE[ ]	/* Else */
MPPEM[ ]	/* MeasurePixelPerEm */
PUSHB[ ]	/* 1 value pushed */
31 
LT[ ]	/* LessThan */
IF[ ]	/* If */
NPUSHB[ ]	/* 59 values pushed */
0 10 9 7 9 10 7 128 0 7 6 6 7 112 8 13 2 6 6 9 98 11 1 9 9 39 77 0 1 1 42 77 0 5 5 2 97 0 2 2 48 77 0 0 0 40 77 12 1 4 4 3 97 0 3 3 46 3 78 
ELSE[ ]	/* Else */
MPPEM[ ]	/* MeasurePixelPerEm */
PUSHB[ ]	/* 1 value pushed */
46 
LT[ ]	/* LessThan */
IF[ ]	/* If */
NPUSHB[ ]	/* 70 values pushed */
0 10 9 7 9 10 7 128 0 7 8 9 7 8 126 0 8 8 9 97 11 1 9 9 39 77 13 1 6 6 9 98 11 1 9 9 39 77 0 1 1 42 77 0 5 5 2 97 0 2 2 48 77 0 0 0 40 77 12 1 4 4 3 97 0 3 3 46 3 78 
ELSE[ ]	/* Else */
NPUSHB[ ]	/* 66 values pushed */
0 10 11 7 11 10 7 128 0 7 8 11 7 8 126 0 11 13 1 6 2 11 6 103 0 8 8 9 97 0 9 9 39 77 0 1 1 42 77 0 5 5 2 97 0 2 2 48 77 0 0 0 40 77 12 1 4 4 3 97 0 3 3 46 3 78 
EIF[ ]	/* EndIf */
EIF[ ]	/* EndIf */
EIF[ ]	/* EndIf */
EIF[ ]	/* EndIf */
EIF[ ]	/* EndIf */
NPUSHB[ ]	/* 31 values pushed */
37 35 25 24 58 56 54 52 50 47 45 43 41 39 35 61 37 61 31 29 24 34 25 34 38 34 51 50 14 9 26 
CALL[ ]	/* CallFunction */";
};
width = 464;
}
);
note = atilde;
unicode = 227;
},
{
glyphname = adieresis;
kernLeft = a;
layers = (
{
layerId = m01;
shapes = (
{
closed = 1;
nodes = (
(201,-8,qs),
(122,-8,o),
(75,45,qs),
(24,101,o),
(24,196,qs),
(24,276,o),
(66,331,qs),
(116,397,o),
(203,397,qs),
(277,397,o),
(318,353,q),
(338,386,o),
(400,386,qs),
(417,386,ls),
(430,386,o),
(430,373,qs),
(430,13,ls),
(430,0,o),
(417,0,qs),
(310,0,ls),
(297,0,o),
(297,13,qs),
(297,28,l),
(258,-8,o)
);
},
{
closed = 1;
nodes = (
(297,158,o),
(297,195,qs),
(297,272,o),
(231,272,qs),
(198,272,o),
(161,231,o),
(161,195,qs),
(161,158,o),
(199,114,o),
(231,114,qs),
(262,114,o)
);
},
{
closed = 1;
nodes = (
(119,556,o),
(148,556,qs),
(178,556,o),
(220,513,o),
(220,484,qs),
(220,454,o),
(178,412,o),
(148,412,qs),
(118,412,o),
(77,454,o),
(77,484,qs),
(77,514,o)
);
},
{
closed = 1;
nodes = (
(289,556,o),
(319,556,qs),
(349,556,o),
(391,514,o),
(391,484,qs),
(391,454,o),
(349,412,o),
(319,412,qs),
(289,412,o),
(248,454,o),
(248,484,qs),
(248,514,o)
);
}
);
userData = {
assembly = "NPUSHB[ ]	/* 10 values pushed */
12 1 5 1 0 1 0 4 2 76 
MPPEM[ ]	/* MeasurePixelPerEm */
PUSHB[ ]	/* 1 value pushed */
17 
LT[ ]	/* LessThan */
IF[ ]	/* If */
NPUSHB[ ]	/* 36 values pushed */
8 1 6 6 7 97 9 1 7 7 39 77 0 5 5 1 97 2 1 1 1 42 77 10 1 4 4 0 97 3 1 0 0 40 0 78 
ELSE[ ]	/* Else */
MPPEM[ ]	/* MeasurePixelPerEm */
PUSHB[ ]	/* 1 value pushed */
23 
LT[ ]	/* LessThan */
IF[ ]	/* If */
NPUSHB[ ]	/* 40 values pushed */
8 1 6 6 7 97 9 1 7 7 39 77 0 1 1 42 77 0 5 5 2 97 0 2 2 48 77 10 1 4 4 0 97 3 1 0 0 40 0 78 
ELSE[ ]	/* Else */
NPUSHB[ ]	/* 44 values pushed */
8 1 6 6 7 97 9 1 7 7 39 77 0 1 1 42 77 0 5 5 2 97 0 2 2 48 77 0 0 0 40 77 10 1 4 4 3 97 0 3 3 46 3 78 
EIF[ ]	/* EndIf */
EIF[ ]	/* EndIf */
NPUSHB[ ]	/* 23 values pushed */
25 24 57 55 51 49 45 43 39 37 31 29 24 34 25 34 38 34 51 50 11 9 26 
CALL[ ]	/* CallFunction */";
};
width = 464;
}
);
note = adieresis;
unicode = 228;
},
{
glyphname = aring;
kernLeft = a;
layers = (
{
layerId = m01;
shapes = (
{
closed = 1;
nodes = (
(201,-8,qs),
(122,-8,o),
(75,45,qs),
(24,101,o),
(24,196,qs),
(24,276,o),
(66,331,qs),
(116,397,o),
(203,397,qs),
(277,397,o),
(318,353,q),
(338,386,o),
(400,386,qs),
(417,386,ls),
(430,386,o),
(430,373,qs),
(430,13,ls),
(430,0,o),
(417,0,qs),
(310,0,ls),
(297,0,o),
(297,13,qs),
(297,28,l),
(258,-8,o)
);
},
{
closed = 1;
nodes = (
(297,158,o),
(297,195,qs),
(297,272,o),
(231,272,qs),
(198,272,o),
(161,231,o),
(161,195,qs),
(161,158,o),
(199,114,o),
(231,114,qs),
(262,114,o)
);
},
{
closed = 1;
nodes = (
(195,594,o),
(235,594,qs),
(273,594,o),
(327,541,o),
(327,504,qs),
(327,466,o),
(273,412,o),
(235,412,qs),
(195,412,o),
(141,465,o),
(141,504,qs),
(141,542,o)
);
},
{
closed = 1;
nodes = (
(263,491,o),
(263,504,qs),
(263,515,o),
(246,533,o),
(235,533,qs),
(223,533,o),
(205,516,o),
(205,504,qs),
(205,491,o),
(222,473,o),
(235,473,qs),
(246,473,o)
);
}
);
userData = {
assembly = "NPUSHB[ ]	/* 10 values pushed */
12 1 5 1 0 1 0 4 2 76 
MPPEM[ ]	/* MeasurePixelPerEm */
PUSHB[ ]	/* 1 value pushed */
17 
LT[ ]	/* LessThan */
IF[ ]	/* If */
NPUSHB[ ]	/* 41 values pushed */
0 7 0 9 8 7 9 105 11 1 8 0 6 1 8 6 105 0 5 5 1 97 2 1 1 1 42 77 10 1 4 4 0 97 3 1 0 0 40 0 78 
ELSE[ ]	/* Else */
MPPEM[ ]	/* MeasurePixelPerEm */
PUSHB[ ]	/* 1 value pushed */
23 
LT[ ]	/* LessThan */
IF[ ]	/* If */
NPUSHB[ ]	/* 45 values pushed */
0 7 0 9 8 7 9 105 11 1 8 0 6 2 8 6 105 0 1 1 42 77 0 5 5 2 97 0 2 2 48 77 10 1 4 4 0 97 3 1 0 0 40 0 78 
ELSE[ ]	/* Else */
NPUSHB[ ]	/* 49 values pushed */
0 7 0 9 8 7 9 105 11 1 8 0 6 2 8 6 105 0 1 1 42 77 0 5 5 2 97 0 2 2 48 77 0 0 0 40 77 10 1 4 4 3 97 0 3 3 46 3 78 
EIF[ ]	/* EndIf */
EIF[ ]	/* EndIf */
NPUSHB[ ]	/* 27 values pushed */
48 47 25 24 54 52 47 58 48 58 45 43 39 37 31 29 24 34 25 34 38 34 51 50 12 9 26 
CALL[ ]	/* CallFunction */";
};
width = 464;
}
);
note = aring;
unicode = 229;
},
{
glyphname = ae;
kernLeft = a;
kernRight = e;
layers = (
{
layerId = m01;
shapes = (
{
closed = 1;
nodes = (
(421,0,o),
(408,0,qs),
(319,0,ls),
(306,0,o),
(306,13,qs),
(306,37,l),
(265,-8,o),
(201,-8,qs),
(122,-8,o),
(75,45,qs),
(24,101,o),
(24,196,qs),
(24,276,o),
(66,331,qs),
(116,398,o),
(203,398,qs),
(274,398,o),
(317,353,q),
(338,386,o),
(398,386,qs),
(408,386,ls),
(421,386,o),
(421,373,qs),
(421,343,l),
(476,398,o),
(558,398,qs),
(638,398,o),
(686,349,qs),
(733,299,o),
(733,222,qs),
(733,191,o),
(731,167,qs),
(730,152,o),
(712,152,qs),
(492,152,l),
(497,125,o),
(544,94,o),
(580,94,qs),
(611,94,o),
(654,105,o),
(696,123,qs),
(707,128,o),
(713,128,qs),
(725,128,o),
(725,113,qs),
(725,72,o),
(694,39,qs),
(648,-10,o),
(557,-10,qs),
(475,-10,o),
(421,42,q),
(421,13,ls)
);
},
{
closed = 1;
nodes = (
(297,157,o),
(297,195,qs),
(297,273,o),
(231,273,qs),
(161,273,o),
(161,195,qs),
(161,158,o),
(198,114,o),
(231,114,qs),
(261,114,o)
);
},
{
closed = 1;
nodes = (
(607,260,o),
(577,291,o),
(550,291,qs),
(525,291,o),
(493,261,o),
(492,237,q),
(603,237,l)
);
}
);
userData = {
assembly = "MPPEM[ ]	/* MeasurePixelPerEm */
PUSHB[ ]	/* 1 value pushed */
11 
LT[ ]	/* LessThan */
IF[ ]	/* If */
NPUSHB[ ]	/* 16 values pushed */
33 27 2 10 4 19 1 3 12 45 0 2 0 2 3 76 
ELSE[ ]	/* Else */
MPPEM[ ]	/* MeasurePixelPerEm */
PUSHB[ ]	/* 1 value pushed */
15 
LT[ ]	/* LessThan */
IF[ ]	/* If */
NPUSHB[ ]	/* 16 values pushed */
33 27 2 11 4 19 1 3 12 45 0 2 0 2 3 76 
ELSE[ ]	/* Else */
MPPEM[ ]	/* MeasurePixelPerEm */
PUSHB[ ]	/* 1 value pushed */
19 
LT[ ]	/* LessThan */
IF[ ]	/* If */
NPUSHB[ ]	/* 16 values pushed */
33 27 2 11 5 19 1 3 12 45 0 2 0 2 3 76 
ELSE[ ]	/* Else */
NPUSHB[ ]	/* 16 values pushed */
33 27 2 11 5 19 1 3 12 45 0 2 8 2 3 76 
EIF[ ]	/* EndIf */
EIF[ ]	/* EndIf */
EIF[ ]	/* EndIf */
MPPEM[ ]	/* MeasurePixelPerEm */
PUSHB[ ]	/* 1 value pushed */
9 
LT[ ]	/* LessThan */
IF[ ]	/* If */
NPUSHB[ ]	/* 45 values pushed */
0 1 3 2 3 1 2 128 14 1 12 0 3 1 12 3 103 11 1 10 10 4 97 6 5 2 4 4 48 77 13 9 2 2 2 0 97 8 7 2 0 0 46 0 78 
ELSE[ ]	/* Else */
MPPEM[ ]	/* MeasurePixelPerEm */
PUSHB[ ]	/* 1 value pushed */
11 
LT[ ]	/* LessThan */
IF[ ]	/* If */
NPUSHB[ ]	/* 49 values pushed */
14 1 12 0 3 1 12 3 103 11 1 10 10 4 97 6 5 2 4 4 48 77 13 9 2 1 1 0 97 8 7 2 0 0 46 77 0 2 2 0 97 8 7 2 0 0 46 0 78 
ELSE[ ]	/* Else */
MPPEM[ ]	/* MeasurePixelPerEm */
PUSHB[ ]	/* 1 value pushed */
13 
LT[ ]	/* LessThan */
IF[ ]	/* If */
NPUSHB[ ]	/* 60 values pushed */
14 1 12 0 3 1 12 3 103 0 11 11 4 97 6 5 2 4 4 48 77 0 10 10 4 97 6 5 2 4 4 48 77 13 9 2 1 1 0 97 8 7 2 0 0 46 77 0 2 2 0 97 8 7 2 0 0 46 0 78 
ELSE[ ]	/* Else */
MPPEM[ ]	/* MeasurePixelPerEm */
PUSHB[ ]	/* 1 value pushed */
15 
LT[ ]	/* LessThan */
IF[ ]	/* If */
NPUSHB[ ]	/* 67 values pushed */
0 1 3 9 3 1 9 128 14 1 12 0 3 1 12 3 103 0 11 11 4 97 6 5 2 4 4 48 77 0 10 10 4 97 6 5 2 4 4 48 77 13 1 9 9 0 97 8 7 2 0 0 46 77 0 2 2 0 97 8 7 2 0 0 46 0 78 
ELSE[ ]	/* Else */
MPPEM[ ]	/* MeasurePixelPerEm */
PUSHB[ ]	/* 1 value pushed */
19 
LT[ ]	/* LessThan */
IF[ ]	/* If */
NPUSHB[ ]	/* 70 values pushed */
0 1 3 9 3 1 9 128 14 1 12 0 3 1 12 3 103 0 5 5 42 77 0 11 11 4 97 6 1 4 4 48 77 0 10 10 4 97 6 1 4 4 48 77 13 1 9 9 0 97 8 7 2 0 0 46 77 0 2 2 0 97 8 7 2 0 0 46 0 78 
ELSE[ ]	/* Else */
NPUSHB[ ]	/* 73 values pushed */
0 1 3 9 3 1 9 128 14 1 12 0 3 1 12 3 103 0 5 5 42 77 0 11 11 4 97 6 1 4 4 48 77 0 10 10 4 97 6 1 4 4 48 77 13 1 9 9 0 97 7 1 0 0 46 77 0 8 8 40 77 0 2 2 0 97 7 1 0 0 46 0 78 
EIF[ ]	/* EndIf */
EIF[ ]	/* EndIf */
EIF[ ]	/* EndIf */
EIF[ ]	/* EndIf */
EIF[ ]	/* EndIf */
NPUSHB[ ]	/* 28 values pushed */
62 62 53 52 62 68 62 68 66 64 58 56 52 61 53 61 51 38 34 51 38 34 36 20 33 15 9 31 
CALL[ ]	/* CallFunction */";
};
width = 755;
}
);
note = ae;
unicode = 230;
},
{
glyphname = ccedilla;
kernLeft = c;
kernRight = c;
layers = (
{
layerId = m01;
shapes = (
{
closed = 1;
nodes = (
(217,-127,o),
(193,-127,qs),
(99,-127,ls),
(87,-127,o),
(93,-112,q),
(162,-4,l),
(102,9,o),
(66,55,qs),
(24,109,o),
(24,194,qs),
(24,281,o),
(73,336,qs),
(127,397,o),
(224,397,qs),
(270,397,o),
(306,384,qs),
(335,374,o),
(353,335,o),
(345,299,qs),
(335,261,l),
(331,251,o),
(326,251,qs),
(322,251,o),
(315,254,qs),
(273,274,o),
(233,274,qs),
(200,274,o),
(161,229,o),
(161,191,qs),
(161,149,o),
(204,104,o),
(244,104,qs),
(291,104,o),
(325,129,qs),
(335,136,o),
(342,136,qs),
(357,136,o),
(357,117,qs),
(357,76,o),
(310,14,o),
(270,0,q),
(224,-110,ls)
);
}
);
userData = {
assembly = "NPUSHB[ ]	/* 48 values pushed */
35 1 5 1 1 76 0 3 2 0 2 3 0 128 0 0 1 2 0 1 126 0 1 0 5 1 5 99 0 2 2 4 97 0 4 4 48 2 78 57 38 34 36 34 36 6 9 28 
CALL[ ]	/* CallFunction */";
};
width = 364;
}
);
note = ccedilla;
unicode = 231;
},
{
glyphname = egrave;
kernLeft = e;
kernRight = e;
layers = (
{
layerId = m01;
shapes = (
{
closed = 1;
nodes = (
(276,260,o),
(246,291,o),
(219,291,qs),
(194,291,o),
(162,260,o),
(161,237,q),
(273,237,l)
);
},
{
closed = 1;
nodes = (
(214,94,o),
(249,94,qs),
(300,94,o),
(366,123,qs),
(377,128,o),
(383,128,qs),
(395,128,o),
(395,113,qs),
(395,73,o),
(364,39,qs),
(318,-10,o),
(227,-10,qs),
(142,-10,o),
(89,38,qs),
(27,93,o),
(27,193,qs),
(27,275,o),
(72,331,qs),
(127,397,o),
(223,397,qs),
(306,397,o),
(354,349,qs),
(403,300,o),
(403,222,qs),
(403,200,o),
(401,172,qs),
(401,167,ls),
(399,152,o),
(382,152,qs),
(162,152,l),
(167,126,o)
);
},
{
closed = 1;
nodes = (
(62,543,o),
(68,543,qs),
(184,543,ls),
(201,543,o),
(213,532,qs),
(314,441,ls),
(319,437,o),
(314,426,o),
(308,426,qs),
(205,426,ls),
(184,426,o),
(170,438,qs),
(63,528,ls),
(58,532,o)
);
}
);
userData = {
assembly = "PUSHB[ ]	/* 6 values pushed */
10 1 2 1 1 76 
MPPEM[ ]	/* MeasurePixelPerEm */
PUSHB[ ]	/* 1 value pushed */
31 
LT[ ]	/* LessThan */
IF[ ]	/* If */
NPUSHB[ ]	/* 48 values pushed */
0 5 2 6 2 5 6 128 9 1 1 0 2 5 1 2 103 0 7 7 8 95 0 8 8 39 77 0 0 0 3 97 0 3 3 48 77 0 6 6 4 97 0 4 4 46 4 78 
ELSE[ ]	/* Else */
NPUSHB[ ]	/* 46 values pushed */
0 5 2 6 2 5 6 128 0 8 0 7 3 8 7 103 9 1 1 0 2 5 1 2 103 0 0 0 3 97 0 3 3 48 77 0 6 6 4 97 0 4 4 46 4 78 
EIF[ ]	/* EndIf */
NPUSHB[ ]	/* 24 values pushed */
0 0 49 47 42 40 36 34 31 30 26 24 18 16 9 7 0 6 0 6 34 10 9 23 
CALL[ ]	/* CallFunction */";
};
width = 423;
}
);
note = egrave;
unicode = 232;
},
{
glyphname = eacute;
kernLeft = e;
kernRight = e;
layers = (
{
layerId = m01;
shapes = (
{
closed = 1;
nodes = (
(276,260,o),
(246,291,o),
(219,291,qs),
(194,291,o),
(162,260,o),
(161,237,q),
(273,237,l)
);
},
{
closed = 1;
nodes = (
(214,94,o),
(249,94,qs),
(300,94,o),
(366,123,qs),
(377,128,o),
(383,128,qs),
(395,128,o),
(395,113,qs),
(395,73,o),
(364,39,qs),
(318,-10,o),
(227,-10,qs),
(142,-10,o),
(89,38,qs),
(27,93,o),
(27,193,qs),
(27,275,o),
(72,331,qs),
(127,397,o),
(223,397,qs),
(306,397,o),
(354,349,qs),
(403,300,o),
(403,222,qs),
(403,200,o),
(401,172,qs),
(401,167,ls),
(399,152,o),
(382,152,qs),
(162,152,l),
(167,126,o)
);
},
{
closed = 1;
nodes = (
(100,437,o),
(105,441,qs),
(205,532,ls),
(218,543,o),
(235,543,qs),
(350,543,ls),
(357,543,o),
(360,532,o),
(355,528,qs),
(249,438,ls),
(235,426,o),
(213,426,qs),
(110,426,ls),
(104,426,o)
);
}
);
userData = {
assembly = "PUSHB[ ]	/* 6 values pushed */
10 1 2 1 1 76 
MPPEM[ ]	/* MeasurePixelPerEm */
PUSHB[ ]	/* 1 value pushed */
31 
LT[ ]	/* LessThan */
IF[ ]	/* If */
NPUSHB[ ]	/* 49 values pushed */
0 5 2 6 2 5 6 128 9 1 1 0 2 5 1 2 103 10 1 7 7 8 95 0 8 8 39 77 0 0 0 3 97 0 3 3 48 77 0 6 6 4 97 0 4 4 46 4 78 
ELSE[ ]	/* Else */
NPUSHB[ ]	/* 47 values pushed */
0 5 2 6 2 5 6 128 0 8 10 1 7 3 8 7 103 9 1 1 0 2 5 1 2 103 0 0 0 3 97 0 3 3 48 77 0 6 6 4 97 0 4 4 46 4 78 
EIF[ ]	/* EndIf */
NPUSHB[ ]	/* 28 values pushed */
40 38 0 0 47 44 38 51 40 51 36 34 31 30 26 24 18 16 9 7 0 6 0 6 34 11 9 23 
CALL[ ]	/* CallFunction */";
};
width = 423;
}
);
note = eacute;
unicode = 233;
},
{
glyphname = ecircumflex;
kernLeft = e;
kernRight = e;
layers = (
{
layerId = m01;
shapes = (
{
closed = 1;
nodes = (
(276,260,o),
(246,291,o),
(219,291,qs),
(194,291,o),
(162,260,o),
(161,237,q),
(273,237,l)
);
},
{
closed = 1;
nodes = (
(214,94,o),
(249,94,qs),
(300,94,o),
(366,123,qs),
(377,128,o),
(383,128,qs),
(395,128,o),
(395,113,qs),
(395,73,o),
(364,39,qs),
(318,-10,o),
(227,-10,qs),
(142,-10,o),
(89,38,qs),
(27,93,o),
(27,193,qs),
(27,275,o),
(72,331,qs),
(127,397,o),
(223,397,qs),
(306,397,o),
(354,349,qs),
(403,300,o),
(403,222,qs),
(403,200,o),
(401,172,qs),
(401,167,ls),
(399,152,o),
(382,152,qs),
(162,152,l),
(167,126,o)
);
},
{
closed = 1;
nodes = (
(176,426,o),
(155,426,qs),
(64,426,ls),
(58,426,o),
(54,437,o),
(58,441,qs),
(145,532,ls),
(155,543,o),
(174,543,qs),
(276,543,ls),
(294,543,o),
(305,532,qs),
(392,441,ls),
(396,437,o),
(392,426,o),
(386,426,qs),
(296,426,ls),
(274,426,o),
(262,440,qs),
(225,483,l),
(188,440,ls)
);
}
);
userData = {
assembly = "PUSHB[ ]	/* 6 values pushed */
10 1 2 1 1 76 
MPPEM[ ]	/* MeasurePixelPerEm */
PUSHB[ ]	/* 1 value pushed */
31 
LT[ ]	/* LessThan */
IF[ ]	/* If */
NPUSHB[ ]	/* 49 values pushed */
0 5 2 6 2 5 6 128 10 1 1 0 2 5 1 2 103 9 1 7 7 8 95 0 8 8 39 77 0 0 0 3 97 0 3 3 48 77 0 6 6 4 97 0 4 4 46 4 78 
ELSE[ ]	/* Else */
NPUSHB[ ]	/* 47 values pushed */
0 5 2 6 2 5 6 128 0 8 9 1 7 3 8 7 103 10 1 1 0 2 5 1 2 103 0 0 0 3 97 0 3 3 48 77 0 6 6 4 97 0 4 4 46 4 78 
EIF[ ]	/* EndIf */
NPUSHB[ ]	/* 26 values pushed */
0 0 57 54 50 47 42 40 36 34 31 30 26 24 18 16 9 7 0 6 0 6 34 11 9 23 
CALL[ ]	/* CallFunction */";
};
width = 423;
}
);
note = ecircumflex;
unicode = 234;
},
{
glyphname = edieresis;
kernLeft = e;
kernRight = e;
layers = (
{
layerId = m01;
shapes = (
{
closed = 1;
nodes = (
(276,260,o),
(246,291,o),
(219,291,qs),
(194,291,o),
(162,260,o),
(161,237,q),
(273,237,l)
);
},
{
closed = 1;
nodes = (
(214,94,o),
(249,94,qs),
(300,94,o),
(366,123,qs),
(377,128,o),
(383,128,qs),
(395,128,o),
(395,113,qs),
(395,73,o),
(364,39,qs),
(318,-10,o),
(227,-10,qs),
(142,-10,o),
(89,38,qs),
(27,93,o),
(27,193,qs),
(27,275,o),
(72,331,qs),
(127,397,o),
(223,397,qs),
(306,397,o),
(354,349,qs),
(403,300,o),
(403,222,qs),
(403,200,o),
(401,172,qs),
(401,167,ls),
(399,152,o),
(382,152,qs),
(162,152,l),
(167,126,o)
);
},
{
closed = 1;
nodes = (
(111,556,o),
(141,556,qs),
(170,556,o),
(213,513,o),
(213,484,qs),
(213,454,o),
(171,412,o),
(141,412,qs),
(111,412,o),
(69,454,o),
(69,484,qs),
(69,514,o)
);
},
{
closed = 1;
nodes = (
(282,556,o),
(311,556,qs),
(341,556,o),
(383,514,o),
(383,484,qs),
(383,454,o),
(341,412,o),
(311,412,qs),
(282,412,o),
(240,454,o),
(240,484,qs),
(240,514,o)
);
}
);
userData = {
assembly = "NPUSHB[ ]	/* 84 values pushed */
10 1 2 1 1 76 0 5 2 6 2 5 6 128 11 1 1 0 2 5 1 2 103 9 1 7 7 8 97 10 1 8 8 39 77 0 0 0 3 97 0 3 3 48 77 0 6 6 4 97 0 4 4 46 4 78 0 0 60 58 54 52 48 46 42 40 36 34 31 30 26 24 18 16 9 7 0 6 0 6 34 12 9 23 
CALL[ ]	/* CallFunction */";
};
width = 423;
}
);
note = edieresis;
unicode = 235;
},
{
glyphname = igrave;
kernLeft = i;
kernRight = i;
layers = (
{
layerId = m01;
shapes = (
{
closed = 1;
nodes = (
(41,386,o),
(55,386,qs),
(77,386,ls),
(128,386,o),
(174,339,o),
(174,288,qs),
(174,13,ls),
(174,0,o),
(161,0,qs),
(55,0,ls),
(41,0,o),
(41,13,qs),
(41,373,ls)
);
},
{
closed = 1;
nodes = (
(-27,543,o),
(-20,543,qs),
(95,543,ls),
(112,543,o),
(125,532,qs),
(225,441,ls),
(230,437,o),
(226,426,o),
(219,426,qs),
(117,426,ls),
(95,426,o),
(81,438,qs),
(-25,528,ls),
(-30,532,o)
);
}
);
userData = {
assembly = "MPPEM[ ]	/* MeasurePixelPerEm */
PUSHB[ ]	/* 1 value pushed */
31 
LT[ ]	/* LessThan */
IF[ ]	/* If */
NPUSHB[ ]	/* 21 values pushed */
0 2 2 3 95 0 3 3 39 77 0 1 1 42 77 0 0 0 40 0 78 
ELSE[ ]	/* Else */
NPUSHB[ ]	/* 19 values pushed */
0 3 0 2 1 3 2 103 0 1 1 42 77 0 0 0 40 0 78 
EIF[ ]	/* EndIf */
PUSHB[ ]	/* 7 values pushed */
52 52 52 49 4 9 26 
CALL[ ]	/* CallFunction */";
};
width = 204;
}
);
note = igrave;
unicode = 236;
},
{
glyphname = iacute;
kernLeft = i;
kernRight = i;
layers = (
{
layerId = m01;
shapes = (
{
closed = 1;
nodes = (
(29,386,o),
(42,386,qs),
(65,386,ls),
(115,386,o),
(161,339,o),
(161,288,qs),
(161,13,ls),
(161,0,o),
(148,0,qs),
(42,0,ls),
(29,0,o),
(29,13,qs),
(29,373,ls)
);
},
{
closed = 1;
nodes = (
(-30,437,o),
(-25,441,qs),
(75,532,ls),
(88,543,o),
(105,543,qs),
(220,543,ls),
(227,543,o),
(231,532,o),
(225,528,q),
(119,438,ls),
(105,426,o),
(83,426,qs),
(-19,426,ls),
(-26,426,o)
);
}
);
userData = {
assembly = "MPPEM[ ]	/* MeasurePixelPerEm */
PUSHB[ ]	/* 1 value pushed */
31 
LT[ ]	/* LessThan */
IF[ ]	/* If */
NPUSHB[ ]	/* 22 values pushed */
4 1 2 2 3 95 0 3 3 39 77 0 1 1 42 77 0 0 0 40 0 78 
ELSE[ ]	/* Else */
NPUSHB[ ]	/* 20 values pushed */
0 3 4 1 2 1 3 2 103 0 1 1 42 77 0 0 0 40 0 78 
EIF[ ]	/* EndIf */
NPUSHB[ ]	/* 13 values pushed */
15 13 22 19 13 26 15 26 52 49 5 9 24 
CALL[ ]	/* CallFunction */";
};
width = 204;
}
);
note = iacute;
unicode = 237;
},
{
glyphname = icircumflex;
kernLeft = i;
kernRight = i;
layers = (
{
layerId = m01;
shapes = (
{
closed = 1;
nodes = (
(33,386,o),
(46,386,qs),
(69,386,ls),
(119,386,o),
(165,339,o),
(165,288,qs),
(165,13,ls),
(165,0,o),
(152,0,qs),
(46,0,ls),
(33,0,o),
(33,13,qs),
(33,373,ls)
);
},
{
closed = 1;
nodes = (
(52,426,o),
(31,426,qs),
(-60,426,ls),
(-66,426,o),
(-70,437,o),
(-66,441,qs),
(21,532,ls),
(31,543,o),
(50,543,qs),
(152,543,ls),
(170,543,o),
(181,532,qs),
(268,441,ls),
(272,437,o),
(268,426,o),
(262,426,qs),
(172,426,ls),
(150,426,o),
(138,440,qs),
(101,483,l),
(64,440,ls)
);
}
);
userData = {
assembly = "MPPEM[ ]	/* MeasurePixelPerEm */
PUSHB[ ]	/* 1 value pushed */
31 
LT[ ]	/* LessThan */
IF[ ]	/* If */
NPUSHB[ ]	/* 22 values pushed */
4 1 2 2 3 95 0 3 3 39 77 0 1 1 42 77 0 0 0 40 0 78 
ELSE[ ]	/* Else */
NPUSHB[ ]	/* 20 values pushed */
0 3 4 1 2 1 3 2 103 0 1 1 42 77 0 0 0 40 0 78 
EIF[ ]	/* EndIf */
PUSHB[ ]	/* 8 values pushed */
52 53 36 52 49 5 9 27 
CALL[ ]	/* CallFunction */";
};
width = 204;
}
);
note = icircumflex;
unicode = 238;
},
{
glyphname = idieresis;
kernLeft = i;
kernRight = i;
layers = (
{
layerId = m01;
shapes = (
{
closed = 1;
nodes = (
(33,386,o),
(47,386,qs),
(69,386,ls),
(120,386,o),
(166,339,o),
(166,288,qs),
(166,13,ls),
(166,0,o),
(153,0,qs),
(47,0,ls),
(33,0,o),
(33,13,qs),
(33,373,ls)
);
},
{
closed = 1;
nodes = (
(-13,556,o),
(17,556,qs),
(46,556,o),
(88,513,o),
(88,484,qs),
(88,454,o),
(46,412,o),
(17,412,qs),
(-13,412,o),
(-55,454,o),
(-55,484,qs),
(-55,514,o)
);
},
{
closed = 1;
nodes = (
(158,556,o),
(187,556,qs),
(217,556,o),
(259,514,o),
(259,484,qs),
(259,454,o),
(217,412,o),
(187,412,qs),
(158,412,o),
(116,454,o),
(116,484,qs),
(116,514,o)
);
}
);
userData = {
assembly = "NPUSHB[ ]	/* 32 values pushed */
4 1 2 2 3 97 5 1 3 3 39 77 0 1 1 42 77 0 0 0 40 0 78 36 36 36 36 52 49 6 9 28 
CALL[ ]	/* CallFunction */";
};
width = 204;
}
);
note = idieresis;
unicode = 239;
},
{
glyphname = eth;
layers = (
{
layerId = m01;
shapes = (
{
closed = 1;
nodes = (
(105,401,ls),
(94,395,o),
(89,406,q),
(73,429,ls),
(66,439,o),
(77,444,qs),
(130,472,l),
(83,542,ls),
(80,547,o),
(84,556,o),
(89,556,qs),
(150,556,ls),
(191,556,o),
(227,544,o),
(243,527,q),
(292,552,ls),
(303,557,o),
(309,547,qs),
(325,523,ls),
(332,512,o),
(322,508,qs),
(275,484,l),
(363,356,ls),
(413,284,o),
(413,194,qs),
(413,107,o),
(368,53,qs),
(315,-9,o),
(220,-9,qs),
(136,-9,o),
(84,39,qs),
(24,93,o),
(24,188,qs),
(24,264,o),
(64,314,qs),
(109,373,o),
(194,381,q),
(160,428,l)
);
},
{
closed = 1;
nodes = (
(282,186,qs),
(282,269,o),
(219,269,qs),
(154,269,o),
(154,186,qs),
(154,105,o),
(218,105,qs),
(282,105,o)
);
}
);
userData = {
assembly = "NPUSHB[ ]	/* 44 values pushed */
37 30 22 15 4 3 1 1 76 0 3 3 1 95 0 1 1 39 77 4 1 2 2 0 97 0 0 0 46 0 78 39 38 43 41 38 45 39 45 47 39 5 9 24 
CALL[ ]	/* CallFunction */";
};
width = 437;
}
);
note = eth;
unicode = 240;
},
{
glyphname = ntilde;
kernLeft = n;
kernRight = n;
layers = (
{
layerId = m01;
shapes = (
{
closed = 1;
nodes = (
(253,396,qs),
(322,396,o),
(363,359,qs),
(412,314,o),
(412,222,qs),
(412,13,ls),
(412,0,o),
(398,0,qs),
(292,0,ls),
(279,0,o),
(279,13,qs),
(279,202,ls),
(279,275,o),
(224,275,qs),
(168,275,o),
(168,207,qs),
(168,13,ls),
(168,0,o),
(155,0,qs),
(49,0,ls),
(36,0,o),
(36,13,qs),
(36,373,ls),
(36,386,o),
(49,386,qs),
(69,386,ls),
(131,386,o),
(152,349,q),
(196,396,o)
);
},
{
closed = 1;
nodes = (
(72,435,qs),
(74,486,o),
(121,547,o),
(158,547,qs),
(187,547,o),
(231,531,qs),
(267,518,o),
(278,518,qs),
(293,518,o),
(300,538,qs),
(303,551,o),
(313,551,qs),
(369,551,ls),
(382,551,o),
(380,537,qs),
(369,428,o),
(293,428,qs),
(269,428,o),
(223,442,qs),
(185,454,o),
(178,454,qs),
(161,454,o),
(158,434,qs),
(157,422,o),
(145,422,qs),
(83,422,ls),
(72,422,o)
);
}
);
userData = {
assembly = "MPPEM[ ]	/* MeasurePixelPerEm */
PUSHB[ ]	/* 1 value pushed */
19 
LT[ ]	/* LessThan */
IF[ ]	/* If */
NPUSHB[ ]	/* 44 values pushed */
0 9 8 6 8 9 114 0 6 5 5 6 112 7 11 2 5 5 8 98 10 1 8 8 39 77 0 2 2 0 97 4 1 0 0 42 77 3 1 1 1 40 1 78 
ELSE[ ]	/* Else */
MPPEM[ ]	/* MeasurePixelPerEm */
PUSHB[ ]	/* 1 value pushed */
30 
LT[ ]	/* LessThan */
IF[ ]	/* If */
NPUSHB[ ]	/* 48 values pushed */
0 9 8 6 8 9 114 0 6 5 5 6 112 7 11 2 5 5 8 98 10 1 8 8 39 77 0 0 0 42 77 0 2 2 4 97 0 4 4 48 77 3 1 1 1 40 1 78 
ELSE[ ]	/* Else */
MPPEM[ ]	/* MeasurePixelPerEm */
PUSHB[ ]	/* 1 value pushed */
31 
LT[ ]	/* LessThan */
IF[ ]	/* If */
NPUSHB[ ]	/* 49 values pushed */
0 9 8 6 8 9 6 128 0 6 5 5 6 112 7 11 2 5 5 8 98 10 1 8 8 39 77 0 0 0 42 77 0 2 2 4 97 0 4 4 48 77 3 1 1 1 40 1 78 
ELSE[ ]	/* Else */
MPPEM[ ]	/* MeasurePixelPerEm */
PUSHB[ ]	/* 1 value pushed */
46 
LT[ ]	/* LessThan */
IF[ ]	/* If */
NPUSHB[ ]	/* 60 values pushed */
0 9 8 6 8 9 6 128 0 6 7 8 6 7 126 0 7 7 8 97 10 1 8 8 39 77 11 1 5 5 8 98 10 1 8 8 39 77 0 0 0 42 77 0 2 2 4 97 0 4 4 48 77 3 1 1 1 40 1 78 
ELSE[ ]	/* Else */
NPUSHB[ ]	/* 56 values pushed */
0 9 10 6 10 9 6 128 0 6 7 10 6 7 126 0 10 11 1 5 4 10 5 103 0 7 7 8 97 0 8 8 39 77 0 0 0 42 77 0 2 2 4 97 0 4 4 48 77 3 1 1 1 40 1 78 
EIF[ ]	/* EndIf */
EIF[ ]	/* EndIf */
EIF[ ]	/* EndIf */
EIF[ ]	/* EndIf */
NPUSHB[ ]	/* 24 values pushed */
31 29 52 50 48 46 44 41 39 37 35 33 29 55 31 55 37 51 35 51 49 12 9 27 
CALL[ ]	/* CallFunction */";
};
width = 446;
}
);
note = ntilde;
unicode = 241;
},
{
glyphname = ograve;
kernLeft = o;
kernRight = o;
layers = (
{
layerId = m01;
shapes = (
{
closed = 1;
nodes = (
(292,193,qs),
(292,278,o),
(226,278,qs),
(159,278,o),
(159,193,qs),
(159,109,o),
(225,109,qs),
(292,109,o)
);
},
{
closed = 1;
nodes = (
(86,40,qs),
(24,96,o),
(24,195,qs),
(24,280,o),
(71,334,qs),
(126,397,o),
(225,397,qs),
(311,397,o),
(365,348,qs),
(427,292,o),
(427,194,qs),
(427,108,o),
(380,54,qs),
(326,-9,o),
(227,-9,qs),
(140,-9,o)
);
},
{
closed = 1;
nodes = (
(84,543,o),
(90,543,qs),
(206,543,ls),
(223,543,o),
(235,532,qs),
(336,441,ls),
(341,437,o),
(336,426,o),
(330,426,qs),
(227,426,ls),
(206,426,o),
(192,438,qs),
(85,528,ls),
(80,532,o)
);
}
);
userData = {
assembly = "MPPEM[ ]	/* MeasurePixelPerEm */
PUSHB[ ]	/* 1 value pushed */
31 
LT[ ]	/* LessThan */
IF[ ]	/* If */
NPUSHB[ ]	/* 33 values pushed */
0 4 4 5 95 0 5 5 39 77 0 1 1 3 97 0 3 3 48 77 6 1 0 0 2 97 7 1 2 2 46 2 78 
ELSE[ ]	/* Else */
NPUSHB[ ]	/* 31 values pushed */
0 5 0 4 3 5 4 103 0 1 1 3 97 0 3 3 48 77 6 1 0 0 2 97 7 1 2 2 46 2 78 
EIF[ ]	/* EndIf */
NPUSHB[ ]	/* 23 values pushed */
9 8 1 0 35 33 28 26 17 15 8 23 9 23 5 3 0 7 1 7 8 9 22 
CALL[ ]	/* CallFunction */";
};
width = 452;
}
);
note = ograve;
unicode = 242;
},
{
glyphname = oacute;
kernLeft = o;
kernRight = o;
layers = (
{
layerId = m01;
shapes = (
{
closed = 1;
nodes = (
(292,193,qs),
(292,278,o),
(226,278,qs),
(159,278,o),
(159,193,qs),
(159,109,o),
(225,109,qs),
(292,109,o)
);
},
{
closed = 1;
nodes = (
(86,40,qs),
(24,96,o),
(24,195,qs),
(24,280,o),
(71,334,qs),
(126,397,o),
(225,397,qs),
(311,397,o),
(365,348,qs),
(427,292,o),
(427,194,qs),
(427,108,o),
(380,54,qs),
(326,-9,o),
(227,-9,qs),
(140,-9,o)
);
},
{
closed = 1;
nodes = (
(112,437,o),
(117,441,qs),
(217,532,ls),
(230,543,o),
(247,543,qs),
(362,543,ls),
(369,543,o),
(373,532,o),
(367,528,q),
(261,438,ls),
(247,426,o),
(226,426,qs),
(123,426,ls),
(117,426,o)
);
}
);
userData = {
assembly = "MPPEM[ ]	/* MeasurePixelPerEm */
PUSHB[ ]	/* 1 value pushed */
31 
LT[ ]	/* LessThan */
IF[ ]	/* If */
NPUSHB[ ]	/* 34 values pushed */
8 1 4 4 5 95 0 5 5 39 77 0 1 1 3 97 0 3 3 48 77 6 1 0 0 2 97 7 1 2 2 46 2 78 
ELSE[ ]	/* Else */
NPUSHB[ ]	/* 32 values pushed */
0 5 8 1 4 3 5 4 103 0 1 1 3 97 0 3 3 48 77 6 1 0 0 2 97 7 1 2 2 46 2 78 
EIF[ ]	/* EndIf */
NPUSHB[ ]	/* 27 values pushed */
26 24 9 8 1 0 33 30 24 37 26 37 17 15 8 23 9 23 5 3 0 7 1 7 9 9 22 
CALL[ ]	/* CallFunction */";
};
width = 452;
}
);
note = oacute;
unicode = 243;
},
{
glyphname = ocircumflex;
kernLeft = o;
kernRight = o;
layers = (
{
layerId = m01;
shapes = (
{
closed = 1;
nodes = (
(292,193,qs),
(292,278,o),
(226,278,qs),
(159,278,o),
(159,193,qs),
(159,109,o),
(225,109,qs),
(292,109,o)
);
},
{
closed = 1;
nodes = (
(86,40,qs),
(24,96,o),
(24,195,qs),
(24,280,o),
(71,334,qs),
(126,397,o),
(225,397,qs),
(311,397,o),
(365,348,qs),
(427,292,o),
(427,194,qs),
(427,108,o),
(380,54,qs),
(326,-9,o),
(227,-9,qs),
(140,-9,o)
);
},
{
closed = 1;
nodes = (
(182,426,o),
(161,426,qs),
(70,426,ls),
(64,426,o),
(60,437,o),
(64,441,qs),
(151,532,ls),
(161,543,o),
(180,543,qs),
(282,543,ls),
(300,543,o),
(311,532,qs),
(398,441,ls),
(402,437,o),
(398,426,o),
(392,426,qs),
(302,426,ls),
(280,426,o),
(268,440,qs),
(231,483,l),
(194,440,ls)
);
}
);
userData = {
assembly = "MPPEM[ ]	/* MeasurePixelPerEm */
PUSHB[ ]	/* 1 value pushed */
31 
LT[ ]	/* LessThan */
IF[ ]	/* If */
NPUSHB[ ]	/* 34 values pushed */
6 1 4 4 5 95 0 5 5 39 77 0 1 1 3 97 0 3 3 48 77 7 1 0 0 2 97 8 1 2 2 46 2 78 
ELSE[ ]	/* Else */
NPUSHB[ ]	/* 32 values pushed */
0 5 6 1 4 3 5 4 103 0 1 1 3 97 0 3 3 48 77 7 1 0 0 2 97 8 1 2 2 46 2 78 
EIF[ ]	/* EndIf */
NPUSHB[ ]	/* 25 values pushed */
9 8 1 0 43 40 36 33 28 26 17 15 8 23 9 23 5 3 0 7 1 7 9 9 22 
CALL[ ]	/* CallFunction */";
};
width = 452;
}
);
note = ocircumflex;
unicode = 244;
},
{
glyphname = otilde;
kernLeft = o;
kernRight = o;
layers = (
{
layerId = m01;
shapes = (
{
closed = 1;
nodes = (
(292,193,qs),
(292,278,o),
(226,278,qs),
(159,278,o),
(159,193,qs),
(159,109,o),
(225,109,qs),
(292,109,o)
);
},
{
closed = 1;
nodes = (
(86,40,qs),
(24,96,o),
(24,195,qs),
(24,280,o),
(71,334,qs),
(126,397,o),
(225,397,qs),
(311,397,o),
(365,348,qs),
(427,292,o),
(427,194,qs),
(427,108,o),
(380,54,qs),
(326,-9,o),
(227,-9,qs),
(140,-9,o)
);
},
{
closed = 1;
nodes = (
(68,435,qs),
(70,486,o),
(117,547,o),
(155,547,qs),
(183,547,o),
(228,531,qs),
(264,518,o),
(275,518,qs),
(290,518,o),
(296,538,qs),
(300,551,o),
(310,551,qs),
(366,551,ls),
(379,551,o),
(377,537,qs),
(366,428,o),
(290,428,qs),
(265,428,o),
(219,442,qs),
(181,454,o),
(174,454,qs),
(157,454,o),
(155,434,qs),
(153,422,o),
(141,422,qs),
(79,422,ls),
(68,422,o)
);
}
);
userData = {
assembly = "MPPEM[ ]	/* MeasurePixelPerEm */
PUSHB[ ]	/* 1 value pushed */
30 
LT[ ]	/* LessThan */
IF[ ]	/* If */
NPUSHB[ ]	/* 49 values pushed */
0 8 7 5 7 8 114 0 5 4 4 5 112 6 12 2 4 4 7 98 9 1 7 7 39 77 0 1 1 3 97 0 3 3 48 77 10 1 0 0 2 97 11 1 2 2 46 2 78 
ELSE[ ]	/* Else */
MPPEM[ ]	/* MeasurePixelPerEm */
PUSHB[ ]	/* 1 value pushed */
31 
LT[ ]	/* LessThan */
IF[ ]	/* If */
NPUSHB[ ]	/* 50 values pushed */
0 8 7 5 7 8 5 128 0 5 4 4 5 112 6 12 2 4 4 7 98 9 1 7 7 39 77 0 1 1 3 97 0 3 3 48 77 10 1 0 0 2 97 11 1 2 2 46 2 78 
ELSE[ ]	/* Else */
MPPEM[ ]	/* MeasurePixelPerEm */
PUSHB[ ]	/* 1 value pushed */
46 
LT[ ]	/* LessThan */
IF[ ]	/* If */
NPUSHB[ ]	/* 61 values pushed */
0 8 7 5 7 8 5 128 0 5 6 7 5 6 126 0 6 6 7 97 9 1 7 7 39 77 12 1 4 4 7 98 9 1 7 7 39 77 0 1 1 3 97 0 3 3 48 77 10 1 0 0 2 97 11 1 2 2 46 2 78 
ELSE[ ]	/* Else */
NPUSHB[ ]	/* 57 values pushed */
0 8 9 5 9 8 5 128 0 5 6 9 5 6 126 0 9 12 1 4 3 9 4 103 0 6 6 7 97 0 7 7 39 77 0 1 1 3 97 0 3 3 48 77 10 1 0 0 2 97 11 1 2 2 46 2 78 
EIF[ ]	/* EndIf */
EIF[ ]	/* EndIf */
EIF[ ]	/* EndIf */
NPUSHB[ ]	/* 35 values pushed */
26 24 9 8 1 0 47 45 43 41 39 36 34 32 30 28 24 50 26 50 17 15 8 23 9 23 5 3 0 7 1 7 13 9 22 
CALL[ ]	/* CallFunction */";
};
width = 452;
}
);
note = otilde;
unicode = 245;
},
{
glyphname = odieresis;
kernLeft = o;
kernRight = o;
layers = (
{
layerId = m01;
shapes = (
{
closed = 1;
nodes = (
(292,193,qs),
(292,278,o),
(226,278,qs),
(159,278,o),
(159,193,qs),
(159,109,o),
(225,109,qs),
(292,109,o)
);
},
{
closed = 1;
nodes = (
(86,40,qs),
(24,96,o),
(24,195,qs),
(24,280,o),
(71,334,qs),
(126,397,o),
(225,397,qs),
(311,397,o),
(365,348,qs),
(427,292,o),
(427,194,qs),
(427,108,o),
(380,54,qs),
(326,-9,o),
(227,-9,qs),
(140,-9,o)
);
},
{
closed = 1;
nodes = (
(116,556,o),
(146,556,qs),
(175,556,o),
(217,514,o),
(217,484,qs),
(217,454,o),
(175,412,o),
(146,412,qs),
(116,412,o),
(74,454,o),
(74,484,qs),
(74,514,o)
);
},
{
closed = 1;
nodes = (
(287,556,o),
(316,556,qs),
(346,556,o),
(388,514,o),
(388,484,qs),
(388,454,o),
(346,412,o),
(316,412,qs),
(287,412,o),
(245,454,o),
(245,484,qs),
(245,514,o)
);
}
);
userData = {
assembly = "NPUSHB[ ]	/* 62 values pushed */
6 1 4 4 5 97 7 1 5 5 39 77 0 1 1 3 97 0 3 3 48 77 8 1 0 0 2 97 9 1 2 2 46 2 78 9 8 1 0 46 44 40 38 34 32 28 26 17 15 8 23 9 23 5 3 0 7 1 7 10 9 22 
CALL[ ]	/* CallFunction */";
};
width = 452;
}
);
note = odieresis;
unicode = 246;
},
{
glyphname = divide;
layers = (
{
layerId = m01;
shapes = (
{
closed = 1;
nodes = (
(25,329,o),
(38,329,qs),
(337,329,ls),
(407,329,o),
(407,263,qs),
(407,230,ls),
(407,217,o),
(393,217,qs),
(38,217,ls),
(25,217,o),
(25,230,qs),
(25,316,ls)
);
},
{
closed = 1;
nodes = (
(186,189,o),
(217,189,qs),
(247,189,o),
(287,148,o),
(287,117,qs),
(287,86,o),
(247,46,o),
(217,46,qs),
(185,46,o),
(144,86,o),
(144,117,qs),
(144,147,o)
);
},
{
closed = 1;
nodes = (
(186,499,o),
(217,499,qs),
(247,499,o),
(287,459,o),
(287,428,qs),
(287,397,o),
(247,357,o),
(217,357,qs),
(185,357,o),
(144,397,o),
(144,428,qs),
(144,458,o)
);
}
);
userData = {
assembly = "NPUSHB[ ]	/* 41 values pushed */
0 5 0 4 1 5 4 105 0 1 0 0 3 1 0 103 0 3 2 2 3 89 0 3 3 2 97 0 2 3 2 81 36 36 36 36 51 49 6 9 28 
CALL[ ]	/* CallFunction */";
};
width = 432;
}
);
note = divide;
unicode = 247;
},
{
glyphname = oslash;
kernLeft = o;
kernRight = o;
layers = (
{
layerId = m01;
shapes = (
{
closed = 1;
nodes = (
(235,278,o),
(226,278,qs),
(159,278,o),
(159,193,qs),
(159,177,o),
(163,159,q),
(239,277,l)
);
},
{
closed = 1;
nodes = (
(216,110,o),
(220,110,qs),
(224,109,o),
(225,109,qs),
(292,109,o),
(292,193,qs),
(292,213,o),
(289,226,q),
(215,110,l)
);
},
{
closed = 1;
nodes = (
(86,40,qs),
(24,97,o),
(24,195,qs),
(24,281,o),
(71,334,qs),
(126,397,o),
(225,397,qs),
(311,397,o),
(366,348,qs),
(428,292,o),
(428,194,qs),
(428,108,o),
(381,54,qs),
(326,-9,o),
(227,-9,qs),
(140,-9,o)
);
}
);
userData = {
assembly = "NPUSHB[ ]	/* 35 values pushed */
0 0 0 3 97 0 3 3 48 77 0 1 1 2 97 4 1 2 2 46 2 78 17 16 25 23 16 31 17 31 21 35 5 9 24 
CALL[ ]	/* CallFunction */";
};
width = 452;
}
);
note = oslash;
unicode = 248;
},
{
glyphname = ugrave;
kernLeft = u;
kernRight = u;
layers = (
{
layerId = m01;
shapes = (
{
closed = 1;
nodes = (
(35,194,qs),
(35,373,ls),
(35,386,o),
(48,386,qs),
(71,386,ls),
(121,386,o),
(167,339,o),
(167,288,qs),
(167,175,ls),
(167,108,o),
(222,108,qs),
(278,108,o),
(278,174,qs),
(278,373,ls),
(278,386,o),
(291,386,qs),
(314,386,ls),
(364,386,o),
(411,339,o),
(411,288,qs),
(411,188,ls),
(411,-9,o),
(222,-9,qs),
(35,-9,o)
);
},
{
closed = 1;
nodes = (
(69,543,o),
(76,543,qs),
(191,543,ls),
(208,543,o),
(221,532,qs),
(321,441,ls),
(326,437,o),
(321,426,o),
(315,426,qs),
(213,426,ls),
(191,426,o),
(177,438,qs),
(71,528,l),
(65,532,o)
);
}
);
userData = {
assembly = "MPPEM[ ]	/* MeasurePixelPerEm */
PUSHB[ ]	/* 1 value pushed */
31 
LT[ ]	/* LessThan */
IF[ ]	/* If */
NPUSHB[ ]	/* 28 values pushed */
0 4 4 5 95 0 5 5 39 77 3 1 1 1 42 77 0 2 2 0 98 6 1 0 0 46 0 78 
ELSE[ ]	/* Else */
NPUSHB[ ]	/* 26 values pushed */
0 5 0 4 1 5 4 103 3 1 1 1 42 77 0 2 2 0 98 6 1 0 0 46 0 78 
EIF[ ]	/* EndIf */
NPUSHB[ ]	/* 19 values pushed */
1 0 36 33 28 26 20 17 13 11 8 5 0 23 1 23 7 9 22 
CALL[ ]	/* CallFunction */";
};
width = 446;
}
);
note = ugrave;
unicode = 249;
},
{
glyphname = uacute;
kernLeft = u;
kernRight = u;
layers = (
{
layerId = m01;
shapes = (
{
closed = 1;
nodes = (
(35,194,qs),
(35,373,ls),
(35,386,o),
(48,386,qs),
(71,386,ls),
(121,386,o),
(167,339,o),
(167,288,qs),
(167,175,ls),
(167,108,o),
(222,108,qs),
(278,108,o),
(278,174,qs),
(278,373,ls),
(278,386,o),
(291,386,qs),
(314,386,ls),
(364,386,o),
(411,339,o),
(411,288,qs),
(411,188,ls),
(411,-9,o),
(222,-9,qs),
(35,-9,o)
);
},
{
closed = 1;
nodes = (
(100,437,o),
(104,441,qs),
(204,532,l),
(218,543,o),
(234,543,qs),
(349,543,ls),
(356,543,o),
(360,532,o),
(354,528,q),
(248,438,ls),
(235,426,o),
(213,426,qs),
(110,426,ls),
(104,426,o)
);
}
);
userData = {
assembly = "MPPEM[ ]	/* MeasurePixelPerEm */
PUSHB[ ]	/* 1 value pushed */
31 
LT[ ]	/* LessThan */
IF[ ]	/* If */
NPUSHB[ ]	/* 29 values pushed */
7 1 4 4 5 95 0 5 5 39 77 3 1 1 1 42 77 0 2 2 0 98 6 1 0 0 46 0 78 
ELSE[ ]	/* Else */
NPUSHB[ ]	/* 27 values pushed */
0 5 7 1 4 1 5 4 103 3 1 1 1 42 77 0 2 2 0 98 6 1 0 0 46 0 78 
EIF[ ]	/* EndIf */
NPUSHB[ ]	/* 23 values pushed */
26 24 1 0 33 30 24 37 26 37 20 17 13 11 8 5 0 23 1 23 8 9 22 
CALL[ ]	/* CallFunction */";
};
width = 446;
}
);
note = uacute;
unicode = 250;
},
{
glyphname = ucircumflex;
kernLeft = u;
kernRight = u;
layers = (
{
layerId = m01;
shapes = (
{
closed = 1;
nodes = (
(35,194,qs),
(35,373,ls),
(35,386,o),
(48,386,qs),
(71,386,ls),
(121,386,o),
(167,339,o),
(167,288,qs),
(167,175,ls),
(167,108,o),
(222,108,qs),
(278,108,o),
(278,174,qs),
(278,373,ls),
(278,386,o),
(291,386,qs),
(314,386,ls),
(364,386,o),
(411,339,o),
(411,288,qs),
(411,188,ls),
(411,-9,o),
(222,-9,qs),
(35,-9,o)
);
},
{
closed = 1;
nodes = (
(174,426,o),
(153,426,qs),
(63,426,ls),
(57,426,o),
(52,437,o),
(57,441,q),
(143,532,ls),
(154,543,o),
(173,543,qs),
(274,543,ls),
(293,543,o),
(304,532,qs),
(391,441,ls),
(395,437,o),
(390,426,o),
(384,426,qs),
(294,426,ls),
(273,426,o),
(261,440,qs),
(224,483,l),
(187,440,ls)
);
}
);
userData = {
assembly = "MPPEM[ ]	/* MeasurePixelPerEm */
PUSHB[ ]	/* 1 value pushed */
31 
LT[ ]	/* LessThan */
IF[ ]	/* If */
NPUSHB[ ]	/* 29 values pushed */
6 1 4 4 5 95 0 5 5 39 77 3 1 1 1 42 77 0 2 2 0 98 7 1 0 0 46 0 78 
ELSE[ ]	/* Else */
NPUSHB[ ]	/* 27 values pushed */
0 5 6 1 4 1 5 4 103 3 1 1 1 42 77 0 2 2 0 98 7 1 0 0 46 0 78 
EIF[ ]	/* EndIf */
NPUSHB[ ]	/* 21 values pushed */
1 0 43 40 36 33 28 26 20 17 13 11 8 5 0 23 1 23 8 9 22 
CALL[ ]	/* CallFunction */";
};
width = 446;
}
);
note = ucircumflex;
unicode = 251;
},
{
glyphname = udieresis;
kernLeft = u;
kernRight = u;
layers = (
{
layerId = m01;
shapes = (
{
closed = 1;
nodes = (
(35,194,qs),
(35,373,ls),
(35,386,o),
(48,386,qs),
(71,386,ls),
(121,386,o),
(167,339,o),
(167,288,qs),
(167,175,ls),
(167,108,o),
(222,108,qs),
(278,108,o),
(278,174,qs),
(278,373,ls),
(278,386,o),
(291,386,qs),
(314,386,ls),
(364,386,o),
(411,339,o),
(411,288,qs),
(411,188,ls),
(411,-9,o),
(222,-9,qs),
(35,-9,o)
);
},
{
closed = 1;
nodes = (
(113,556,o),
(143,556,qs),
(172,556,o),
(214,514,o),
(214,484,qs),
(214,454,o),
(173,412,o),
(143,412,qs),
(113,412,o),
(71,454,o),
(71,484,qs),
(71,514,o)
);
},
{
closed = 1;
nodes = (
(284,556,o),
(313,556,qs),
(343,556,o),
(385,514,o),
(385,484,qs),
(385,454,o),
(343,412,o),
(313,412,qs),
(284,412,o),
(242,454,o),
(242,484,qs),
(242,514,o)
);
}
);
userData = {
assembly = "NPUSHB[ ]	/* 53 values pushed */
6 1 4 4 5 97 7 1 5 5 39 77 3 1 1 1 42 77 0 2 2 0 98 8 1 0 0 46 0 78 1 0 46 44 40 38 34 32 28 26 20 17 13 11 8 5 0 23 1 23 9 9 22 
CALL[ ]	/* CallFunction */";
};
width = 446;
}
);
note = udieresis;
unicode = 252;
},
{
glyphname = yacute;
kernLeft = y;
kernRight = y;
layers = (
{
layerId = m01;
shapes = (
{
closed = 1;
nodes = (
(1,377,o),
(5,386,o),
(10,386,qs),
(51,386,ls),
(102,386,o),
(148,347,o),
(168,288,qs),
(212,162,l),
(283,373,ls),
(288,386,o),
(299,386,qs),
(405,386,ls),
(416,386,o),
(413,373,q),
(277,-9,ls),
(242,-103,o),
(174,-171,o),
(114,-171,qs),
(63,-171,o),
(30,-140,qs),
(-4,-107,o),
(-4,-59,qs),
(-4,-37,o),
(12,-37,qs),
(17,-37,o),
(21,-40,qs),
(51,-59,o),
(74,-59,qs),
(119,-59,o),
(142,-5,q),
(3,373,ls)
);
},
{
closed = 1;
nodes = (
(93,437,o),
(98,441,qs),
(198,532,ls),
(211,543,o),
(228,543,qs),
(343,543,ls),
(349,543,o),
(353,532,o),
(348,528,qs),
(242,438,ls),
(228,426,o),
(206,426,qs),
(103,426,ls),
(97,426,o)
);
}
);
userData = {
assembly = "MPPEM[ ]	/* MeasurePixelPerEm */
PUSHB[ ]	/* 1 value pushed */
9 
LT[ ]	/* LessThan */
IF[ ]	/* If */
PUSHB[ ]	/* 6 values pushed */
22 1 0 3 1 76 
ELSE[ ]	/* Else */
PUSHB[ ]	/* 6 values pushed */
22 1 1 3 1 76 
EIF[ ]	/* EndIf */
MPPEM[ ]	/* MeasurePixelPerEm */
PUSHB[ ]	/* 1 value pushed */
9 
LT[ ]	/* LessThan */
IF[ ]	/* If */
NPUSHB[ ]	/* 29 values pushed */
7 1 5 5 6 95 0 6 6 39 77 4 1 3 3 42 77 1 1 0 0 2 98 0 2 2 50 2 78 
ELSE[ ]	/* Else */
MPPEM[ ]	/* MeasurePixelPerEm */
PUSHB[ ]	/* 1 value pushed */
31 
LT[ ]	/* LessThan */
IF[ ]	/* If */
NPUSHB[ ]	/* 36 values pushed */
0 1 3 0 3 1 0 128 7 1 5 5 6 95 0 6 6 39 77 4 1 3 3 42 77 0 0 0 2 98 0 2 2 50 2 78 
ELSE[ ]	/* Else */
NPUSHB[ ]	/* 34 values pushed */
0 1 3 0 3 1 0 128 0 6 7 1 5 3 6 5 103 4 1 3 3 42 77 0 0 0 2 98 0 2 2 50 2 78 
EIF[ ]	/* EndIf */
EIF[ ]	/* EndIf */
NPUSHB[ ]	/* 16 values pushed */
33 31 40 37 31 44 33 44 37 52 36 34 33 8 9 27 
CALL[ ]	/* CallFunction */";
};
width = 416;
}
);
note = yacute;
unicode = 253;
},
{
glyphname = thorn;
layers = (
{
layerId = m01;
shapes = (
{
closed = 1;
nodes = (
(168,-160,o),
(155,-160,qs),
(49,-160,ls),
(36,-160,o),
(36,-147,qs),
(36,542,ls),
(36,556,o),
(49,556,qs),
(72,556,ls),
(122,556,o),
(168,509,o),
(168,458,qs),
(168,368,l),
(210,397,o),
(260,397,qs),
(343,397,o),
(391,345,qs),
(442,291,o),
(442,196,qs),
(442,114,o),
(402,60,qs),
(354,-8,o),
(264,-8,qs),
(201,-8,o),
(168,27,q),
(168,-147,ls)
);
},
{
closed = 1;
nodes = (
(304,157,o),
(304,195,qs),
(304,273,o),
(235,273,qs),
(168,273,o),
(168,195,qs),
(168,157,o),
(204,114,o),
(235,114,qs),
(267,114,o)
);
}
);
userData = {
assembly = "NPUSHB[ ]	/* 57 values pushed */
12 1 5 1 0 1 0 4 2 76 0 2 2 39 77 0 5 5 1 97 0 1 1 48 77 6 1 4 4 0 97 0 0 0 46 77 0 3 3 44 3 78 27 26 32 30 26 35 27 35 51 52 38 33 7 9 26 
CALL[ ]	/* CallFunction */";
};
width = 464;
}
);
note = thorn;
unicode = 254;
},
